<svg xmlns="http://www.w3.org/2000/svg" xmlns:xlink="http://www.w3.org/1999/xlink" width="63" height="63" viewBox="0 0 63 63">
  <defs>
    <clipPath id="clip-path">
      <rect id="Rectángulo_3865" data-name="Rectángulo 3865" width="48.858" height="45.275" fill="none"/>
    </clipPath>
  </defs>
  <g id="Grupo_17484" data-name="Grupo 17484" transform="translate(-546 -7436)">
    <g id="Grupo_17468" data-name="Grupo 17468">
      <g id="Elipse_963" data-name="Elipse 963" transform="translate(546 7436)" fill="#fff" stroke="#472ea6" stroke-width="1">
        <circle cx="31.5" cy="31.5" r="31.5" stroke="none"/>
        <circle cx="31.5" cy="31.5" r="31" fill="none"/>
      </g>
      <g id="Grupo_12418" data-name="Grupo 12418" transform="translate(550.585 7443.16)">
        <g id="Grupo_12417" data-name="Grupo 12417" clip-path="url(#clip-path)">
          <path id="Trazado_36677" data-name="Trazado 36677" d="M206.4,103.161l20.709.008a.6.6,0,0,0,.6-.6l.009-23.279a.6.6,0,0,0-.6-.6l-20.709-.008a.6.6,0,0,0-.6.6l-.009,23.279a.6.6,0,0,0,.6.6" transform="translate(-185.785 -71.035)" fill="#c7ddeb"/>
          <path id="Trazado_36678" data-name="Trazado 36678" d="M199.471,145.525h0l-20.962-.008a1.02,1.02,0,0,1-1.018-1.019l.007-17.366h.79l-.006,17.366a.229.229,0,0,0,.229.229l20.962.008a.229.229,0,0,0,.229-.229l0-5.515h.79l0,5.515a1.02,1.02,0,0,1-1.019,1.018" transform="translate(-160.23 -114.768)" fill="#3d4451"/>
          <path id="Trazado_36679" data-name="Trazado 36679" d="M200.562,56.2h-.79l0-17.454a.229.229,0,0,0-.229-.229l-20.962-.008a.229.229,0,0,0-.229.229l0,5.446h-.79l0-5.446a1.018,1.018,0,0,1,1.018-1.018h0l20.962.008a1.018,1.018,0,0,1,1.018,1.019Z" transform="translate(-160.298 -34.053)" fill="#3d4451"/>
          <path id="Trazado_36680" data-name="Trazado 36680" d="M317.306,88.008a.589.589,0,0,1-.409-.2l-1.986-2.182a.5.5,0,0,1,.059-.739.578.578,0,0,1,.78.053l1.555,1.7,3.376-3.9a.577.577,0,0,1,.778-.076.5.5,0,0,1,.08.731l-3.793,4.4a.571.571,0,0,1-.422.214h-.018" transform="translate(-284.165 -74.515)" fill="#4ece46"/>
          <path id="Trazado_36681" data-name="Trazado 36681" d="M314.622,85.608h-.029a.874.874,0,0,1-.619-.3l-1.986-2.183a.789.789,0,0,1-.207-.6.8.8,0,0,1,.3-.565.875.875,0,0,1,1.178.082l1.334,1.457,3.161-3.654a.874.874,0,0,1,1.176-.117.8.8,0,0,1,.315.556.785.785,0,0,1-.191.6l-3.793,4.4a.852.852,0,0,1-.636.315m-.02-.584h0l0,.292.006-.292h.023a.3.3,0,0,0,.19-.112l3.794-4.4a.2.2,0,0,0,.052-.157.22.22,0,0,0-.089-.152.286.286,0,0,0-.38.035l-3.59,4.15-1.776-1.941a.287.287,0,0,0-.381-.023.22.22,0,0,0-.084.155.211.211,0,0,0,.056.16l1.986,2.183a.3.3,0,0,0,.2.107" transform="translate(-281.457 -71.823)" fill="#3d4451"/>
          <path id="Trazado_36682" data-name="Trazado 36682" d="M317.159,158.18a.589.589,0,0,1-.409-.2l-1.986-2.182a.5.5,0,0,1,.059-.739.578.578,0,0,1,.78.053l1.555,1.7,3.376-3.9a.577.577,0,0,1,.778-.076.5.5,0,0,1,.08.731l-3.793,4.4a.571.571,0,0,1-.422.213h-.018" transform="translate(-284.032 -137.863)" fill="#4ece46"/>
          <path id="Trazado_36683" data-name="Trazado 36683" d="M314.475,155.78h-.012l-.012-.292,0,.292a.874.874,0,0,1-.619-.3L311.84,153.3a.789.789,0,0,1-.207-.6.8.8,0,0,1,.3-.565.875.875,0,0,1,1.178.082l1.334,1.457,3.161-3.654a.874.874,0,0,1,1.176-.117.8.8,0,0,1,.314.556.784.784,0,0,1-.191.6l-3.793,4.4a.852.852,0,0,1-.636.315m-.02-.584h0l0,.292.014-.292a.3.3,0,0,0,.2-.112l3.793-4.4a.2.2,0,0,0,.052-.157.22.22,0,0,0-.089-.152.286.286,0,0,0-.38.035l-3.59,4.15-1.777-1.941a.287.287,0,0,0-.381-.023.221.221,0,0,0-.084.155.211.211,0,0,0,.057.16l1.986,2.183a.306.306,0,0,0,.2.107" transform="translate(-281.324 -135.17)" fill="#3d4451"/>
          <rect id="Rectángulo_3858" data-name="Rectángulo 3858" width="3.856" height="4.196" transform="translate(21.66 8.731)" fill="#f5fafc"/>
          <rect id="Rectángulo_3859" data-name="Rectángulo 3859" width="4.188" height="4.196" transform="translate(21.66 15.594)" fill="#f5fafc"/>
          <path id="Trazado_36684" data-name="Trazado 36684" d="M223.972,89.661H218.29V84.268h5.682Zm-5.006-.676h4.33V84.944h-4.33Z" transform="translate(-197.061 -76.073)" fill="#3d4451"/>
          <path id="Trazado_36685" data-name="Trazado 36685" d="M223.972,159.789H218.29V154.4h5.682Zm-5.006-.676h4.33v-4.041h-4.33Z" transform="translate(-197.061 -139.381)" fill="#3d4451"/>
          <path id="Trazado_36686" data-name="Trazado 36686" d="M244.371,5.275h-3.08a1.917,1.917,0,0,0,.013-.223,2.1,2.1,0,0,0-4.193,0,1.947,1.947,0,0,0,.013.223h-2.692a1.179,1.179,0,0,0-1.2,1.153v1.71a1.179,1.179,0,0,0,1.2,1.153h9.939a1.179,1.179,0,0,0,1.2-1.153V6.428a1.179,1.179,0,0,0-1.2-1.152m-5.164.757a.832.832,0,1,1,.868-.831.85.85,0,0,1-.868.831" transform="translate(-210.546 -2.749)" fill="#fdc345"/>
          <path id="Trazado_36687" data-name="Trazado 36687" d="M231.683,6.839a1.476,1.476,0,0,1-1.5-1.449V3.68a1.477,1.477,0,0,1,1.5-1.449h2.384a2.248,2.248,0,0,1,.7-1.561A2.425,2.425,0,0,1,236.458,0a2.356,2.356,0,0,1,2.392,2.231h2.772a1.477,1.477,0,0,1,1.5,1.449v1.71a1.414,1.414,0,0,1-.444,1.029,1.518,1.518,0,0,1-1.056.42ZM236.458.592a1.835,1.835,0,0,0-1.278.506,1.645,1.645,0,0,0-.511,1.4l.038.33h-3.024a.884.884,0,0,0-.907.857v1.71a.884.884,0,0,0,.908.856h9.939a.928.928,0,0,0,.646-.255.828.828,0,0,0,.261-.6V3.679a.884.884,0,0,0-.908-.856h-3.413l.039-.331a1.62,1.62,0,0,0,.011-.189,1.76,1.76,0,0,0-1.8-1.711m0,2.987h0a1.147,1.147,0,0,1-1.164-1.127,1.1,1.1,0,0,1,.345-.8,1.177,1.177,0,0,1,.818-.326,1.147,1.147,0,0,1,1.164,1.127,1.147,1.147,0,0,1-1.164,1.127m0-1.662a.587.587,0,0,0-.409.161.515.515,0,0,0-.163.374.573.573,0,0,0,1.143,0,.555.555,0,0,0-.572-.535" transform="translate(-207.797 0)" fill="#3d4451"/>
          <path id="Trazado_36688" data-name="Trazado 36688" d="M125.377,250.7h19.476a.644.644,0,0,0,.616-.537l1.8-12.316a.453.453,0,0,0-.458-.537H127.336a.643.643,0,0,0-.615.537l-1.8,12.316a.453.453,0,0,0,.458.537" transform="translate(-112.765 -214.228)" fill="#f5fafc"/>
          <path id="Trazado_36689" data-name="Trazado 36689" d="M124.228,267.292H144.29a.628.628,0,0,0,.6-.524l1.665-11.378a.442.442,0,0,0-.448-.524H126.047a.628.628,0,0,0-.6.524l-1.665,11.378a.442.442,0,0,0,.448.524" transform="translate(-111.738 -230.08)" fill="#7eb9c7"/>
          <path id="Trazado_36690" data-name="Trazado 36690" d="M134.14,243.336H113.581a1.041,1.041,0,0,1-1.042-1.212l1.95-13.329a1.248,1.248,0,0,1,1.21-1.051h20.559a1.041,1.041,0,0,1,1.042,1.212l-1.95,13.329a1.248,1.248,0,0,1-1.21,1.051m-20.487-1.116H134.14a.136.136,0,0,0,.106-.1l1.941-13.264H115.7a.136.136,0,0,0-.106.1Z" transform="translate(-101.584 -205.596)" fill="#3d4451"/>
          <path id="Trazado_36691" data-name="Trazado 36691" d="M134.369,242.632h-7.73a2.128,2.128,0,0,0-2.135,1.632l-1.763,12.051H100.384a.916.916,0,0,0-.868.773l-.178,1.214a.645.645,0,0,0,.642.773H104.3a4.255,4.255,0,0,0-.518,1.488,3.125,3.125,0,0,0,3.111,3.748,4.441,4.441,0,0,0,4.208-3.748,3.606,3.606,0,0,0-.083-1.488H126.6a4.1,4.1,0,0,0-.532,1.488,3,3,0,0,0,2.99,3.6,4.268,4.268,0,0,0,4.044-3.6,3.45,3.45,0,0,0-.1-1.488h4.149a.916.916,0,0,0,.868-.773l.178-1.214a.645.645,0,0,0-.637-.773l.946-6.467a1.586,1.586,0,0,0-.276-1.165m-31.075,13.45a1.267,1.267,0,0,1-1.261-1.519,1.8,1.8,0,0,1,1.706-1.519,1.267,1.267,0,0,1,1.261,1.519,1.8,1.8,0,0,1-1.706,1.519m22.253-.061a1.218,1.218,0,0,1-1.212-1.46,1.73,1.73,0,0,1,1.64-1.46,1.218,1.218,0,0,1,1.212,1.46,1.73,1.73,0,0,1-1.639,1.46m5.535-11.194h-7.7l.68-4.649a.96.96,0,0,1,.879-.838h3.867a.743.743,0,0,1,.637.346l1.772,2.758a.917.917,0,0,1,.121.628Z" transform="translate(-89.67 -219.036)" fill="#3d4451"/>
          <rect id="Rectángulo_3860" data-name="Rectángulo 3860" width="15.369" height="0.807" transform="translate(0 26.802)" fill="#3d4451"/>
          <path id="Trazado_36692" data-name="Trazado 36692" d="M25.189,313.467c-1.2-.042-2.319-.042-3.513,0l-.029-.807c1.213-.043,2.347-.043,3.57,0Z" transform="translate(-19.543 -282.224)" fill="#3d4451"/>
          <path id="Trazado_36693" data-name="Trazado 36693" d="M85.038,313.464c-2.64-.043-5.306-.043-7.925,0l-.013-.807c2.628-.043,5.3-.043,7.951,0Z" transform="translate(-69.602 -282.221)" fill="#3d4451"/>
          <rect id="Rectángulo_3861" data-name="Rectángulo 3861" width="13.323" height="0.807" transform="translate(3.909 34.069)" fill="#3d4451"/>
          <path id="Trazado_36694" data-name="Trazado 36694" d="M158.918,251.369H138.252a.372.372,0,0,1,0-.744h20.666a.372.372,0,1,1,0,.744" transform="translate(-124.471 -226.251)" fill="#3d4451"/>
          <path id="Trazado_36695" data-name="Trazado 36695" d="M394.105,276.489h-7.7l.68-4.649a.96.96,0,0,1,.879-.838h3.867a.743.743,0,0,1,.637.346l1.772,2.758a.916.916,0,0,1,.121.628Z" transform="translate(-348.828 -244.647)" fill="#c7ddeb"/>
          <rect id="Rectángulo_3862" data-name="Rectángulo 3862" width="9.113" height="7.17" transform="translate(19.97 27.997)" fill="#f5fafc"/>
          <path id="Trazado_36696" data-name="Trazado 36696" d="M205.343,276.4l1.617-1.578h6.173l1.323,1.578" transform="translate(-185.373 -248.092)" fill="#fdc345"/>
          <rect id="Rectángulo_3863" data-name="Rectángulo 3863" width="7.794" height="6.111" transform="translate(21.289 29.056)" fill="#fdc345"/>
          <path id="Trazado_36697" data-name="Trazado 36697" d="M203.623,270.762l-.415-.424,1.7-1.663h6.417l1.408,1.684-.456.381-1.23-1.471h-5.9Z" transform="translate(-183.445 -242.546)" fill="#3d4451"/>
          <path id="Trazado_36698" data-name="Trazado 36698" d="M212.782,292.759h-9.488v-7.608h9.488Zm-8.942-.545h8.4V285.7h-8.4Z" transform="translate(-183.523 -257.42)" fill="#3d4451"/>
          <rect id="Rectángulo_3864" data-name="Rectángulo 3864" width="4.027" height="1.141" transform="translate(23.891 32.898)" fill="#f04f4c"/>
          <path id="Trazado_36699" data-name="Trazado 36699" d="M248.426,338.157H244.1v-1.444h4.33Zm-4.027-.3h3.723v-.837H244.4Z" transform="translate(-220.357 -303.967)" fill="#3d4451"/>
        </g>
      </g>
    </g>
  </g>
</svg>
