<svg xmlns="http://www.w3.org/2000/svg" xmlns:xlink="http://www.w3.org/1999/xlink" width="63" height="63" viewBox="0 0 63 63">
  <defs>
    <clipPath id="clip-path">
      <rect id="Rectángulo_3819" data-name="Rectángulo 3819" width="39.594" height="39.79" fill="none"/>
    </clipPath>
  </defs>
  <g id="Grupo_17475" data-name="Grupo 17475" transform="translate(-546 -6774)">
    <g id="Grupo_17460" data-name="Grupo 17460">
      <g id="Elipse_955" data-name="Elipse 955" transform="translate(546 6774)" fill="#fff" stroke="#472ea6" stroke-width="1">
        <circle cx="31.5" cy="31.5" r="31.5" stroke="none"/>
        <circle cx="31.5" cy="31.5" r="31" fill="none"/>
      </g>
      <g id="Grupo_12401" data-name="Grupo 12401" transform="translate(559 6782.21)">
        <g id="Grupo_12400" data-name="Grupo 12400" clip-path="url(#clip-path)">
          <path id="Trazado_36523" data-name="Trazado 36523" d="M40.131,25.714a14.765,14.765,0,1,0,0,20.881,14.765,14.765,0,0,0,0-20.881M38.419,44.882a12.343,12.343,0,1,1,0-17.456,12.343,12.343,0,0,1,0,17.456" transform="translate(-13.707 -19.642)" fill="#c7ddeb"/>
          <path id="Trazado_36524" data-name="Trazado 36524" d="M363.531,373.374a1.507,1.507,0,0,1,.155,2.094l-1.42,1.421a1.507,1.507,0,0,1-2.094-.155l-5.4-5.4a1.468,1.468,0,0,1-.127-2.066l1.421-1.421a1.469,1.469,0,0,1,2.066.126Z" transform="translate(-325.33 -337.454)" fill="#c7ddeb"/>
          <path id="Trazado_36525" data-name="Trazado 36525" d="M106.318,238.882c0,1.033-3.809,1.87-8.508,1.87s-8.508-.837-8.508-1.87,3.809-1.871,8.508-1.871,8.508.837,8.508,1.871" transform="translate(-82.007 -217.647)" fill="#7eb9c7"/>
          <path id="Trazado_36526" data-name="Trazado 36526" d="M15.369,30.729a15.356,15.356,0,1,1,10.867-4.494,15.319,15.319,0,0,1-10.867,4.494m0-29.522A14.161,14.161,0,1,0,25.383,5.355,14.068,14.068,0,0,0,15.369,1.207" transform="translate(-0.001 0)" fill="#3d4451"/>
          <path id="Trazado_36527" data-name="Trazado 36527" d="M45.118,57.841a12.721,12.721,0,1,1,9-3.722,12.687,12.687,0,0,1-9,3.722m0-24.719a12,12,0,1,0,8.488,3.51,11.965,11.965,0,0,0-8.488-3.51" transform="translate(-29.75 -29.751)" fill="#3d4451"/>
          <path id="Trazado_36528" data-name="Trazado 36528" d="M309.141,299.5l-4.384-4.384,2.811-2.811,4.384,4.384Zm-3.512-4.384,3.512,3.512,1.94-1.94-3.513-3.513Z" transform="translate(-279.858 -268.427)" fill="#3d4451"/>
          <path id="Trazado_36529" data-name="Trazado 36529" d="M360.774,352.6l-.082,0a1.91,1.91,0,0,1-1.27-.562l-5.4-5.4a1.846,1.846,0,0,1-.548-1.26,1.689,1.689,0,0,1,.493-1.251l1.525-1.525a1.692,1.692,0,0,1,1.251-.493,1.846,1.846,0,0,1,1.26.548l5.4,5.4a1.911,1.911,0,0,1,.562,1.27,1.668,1.668,0,0,1-.478,1.27l-1.525,1.525a1.659,1.659,0,0,1-1.189.48m-4.08-9.968a1.162,1.162,0,0,0-.831.338l-1.525,1.525a1.164,1.164,0,0,0-.338.863,1.319,1.319,0,0,0,.393.9l5.4,5.4a1.4,1.4,0,0,0,.918.407,1.14,1.14,0,0,0,.873-.324l1.525-1.525a1.144,1.144,0,0,0,.324-.873,1.4,1.4,0,0,0-.407-.919l-5.4-5.4a1.317,1.317,0,0,0-.9-.393h-.033" transform="translate(-324.592 -314.151)" fill="#3d4451"/>
          <path id="Trazado_36530" data-name="Trazado 36530" d="M358.325,350.365l-.091,0a2.127,2.127,0,0,1-1.415-.625l-5.4-5.4a2.063,2.063,0,0,1-.612-1.409,1.9,1.9,0,0,1,.556-1.411l1.525-1.525a1.9,1.9,0,0,1,1.411-.557,2.062,2.062,0,0,1,1.409.611l5.4,5.4a2.127,2.127,0,0,1,.625,1.415,1.883,1.883,0,0,1-.542,1.434l-1.525,1.525a1.874,1.874,0,0,1-1.342.544m-4.08-9.968a.946.946,0,0,0-.677.274l-1.525,1.525a.948.948,0,0,0-.274.7,1.1,1.1,0,0,0,.329.751l5.4,5.4a1.18,1.18,0,0,0,.774.344.925.925,0,0,0,.709-.26l1.525-1.525a.929.929,0,0,0,.26-.709,1.181,1.181,0,0,0-.343-.774l-5.4-5.4a1.1,1.1,0,0,0-.751-.329h-.027" transform="translate(-322.143 -311.701)" fill="#3d4451"/>
          <path id="Trazado_36531" data-name="Trazado 36531" d="M379.419,387.073a.264.264,0,0,1-.187-.078l-5.068-5.068a.265.265,0,0,1,.374-.374l5.068,5.068a.265.265,0,0,1-.187.452" transform="translate(-343.524 -350.309)" fill="#3d4451"/>
          <rect id="Rectángulo_3815" data-name="Rectángulo 3815" width="3.351" height="12.461" transform="translate(16.132 8.296)" fill="#fdc345"/>
          <path id="Trazado_36532" data-name="Trazado 36532" d="M197.248,110.455H193.2V97.3h4.045Zm-3.351-.694h2.657V97.994H193.9Z" transform="translate(-177.418 -89.351)" fill="#3d4451"/>
          <rect id="Rectángulo_3816" data-name="Rectángulo 3816" width="2.919" height="8.076" transform="translate(11.925 12.682)" fill="#f04f4c"/>
          <path id="Trazado_36533" data-name="Trazado 36533" d="M145.272,159.7h-3.623v-8.78h3.623Zm-2.919-.7h2.215v-7.372h-2.215Z" transform="translate(-130.076 -138.585)" fill="#3d4451"/>
          <rect id="Rectángulo_3817" data-name="Rectángulo 3817" width="2.673" height="6.209" transform="translate(20.757 14.549)" fill="#c7ddeb"/>
          <path id="Trazado_36534" data-name="Trazado 36534" d="M253.331,180.878h-3.338V174h3.338Zm-2.673-.665h2.008v-5.544h-2.008Z" transform="translate(-229.569 -159.788)" fill="#3d4451"/>
          <rect id="Rectángulo_3818" data-name="Rectángulo 3818" width="2.659" height="5.384" transform="translate(7.994 15.374)" fill="#7eb9c7"/>
          <path id="Trazado_36535" data-name="Trazado 36535" d="M97.114,190.16H93.791v-6.048h3.323Zm-2.659-.663h2v-4.721h-2Z" transform="translate(-86.128 -169.07)" fill="#3d4451"/>
          <path id="Trazado_36536" data-name="Trazado 36536" d="M148.85,306.64a3.411,3.411,0,1,0-3.231-3.228,3.412,3.412,0,0,0,3.231,3.228" transform="translate(-133.718 -275.327)" fill="#7eb9c7"/>
          <path id="Trazado_36537" data-name="Trazado 36537" d="M144.077,302.141q-.1,0-.193,0a3.859,3.859,0,1,1,.193,0m.009-6.822a2.965,2.965,0,1,0,.15,0c-.05,0-.1,0-.15,0" transform="translate(-128.773 -270.383)" fill="#3d4451"/>
          <path id="Trazado_36538" data-name="Trazado 36538" d="M127.925,395.1a1.123,1.123,0,0,0,1.1-1.346c-.591-2.959-3.007-5.607-5.9-5.607s-5.306,2.647-5.9,5.607a1.123,1.123,0,0,0,1.1,1.347Z" transform="translate(-107.631 -356.432)" fill="#7eb9c7"/>
          <path id="Trazado_36539" data-name="Trazado 36539" d="M122.98,390.59h-9.6a1.563,1.563,0,0,1-1.531-1.873,8.128,8.128,0,0,1,2.208-4.139,5.573,5.573,0,0,1,8.242,0,8.128,8.128,0,0,1,2.208,4.139,1.563,1.563,0,0,1-1.531,1.873m-4.8-6.953a5.021,5.021,0,0,0-3.5,1.566,7.239,7.239,0,0,0-1.965,3.687.686.686,0,0,0,.142.572.677.677,0,0,0,.526.249h9.6a.677.677,0,0,0,.526-.249.686.686,0,0,0,.142-.572,7.238,7.238,0,0,0-1.965-3.687,5.022,5.022,0,0,0-3.5-1.566" transform="translate(-102.687 -351.486)" fill="#3d4451"/>
        </g>
      </g>
    </g>
  </g>
</svg>
