<svg xmlns="http://www.w3.org/2000/svg" xmlns:xlink="http://www.w3.org/1999/xlink" width="63" height="63" viewBox="0 0 63 63">
  <defs>
    <clipPath id="clip-path">
      <rect id="Rectángulo_3852" data-name="Rectángulo 3852" width="44.343" height="36.875" fill="none"/>
    </clipPath>
  </defs>
  <g id="Grupo_17482" data-name="Grupo 17482" transform="translate(-546 -7250)">
    <g id="Grupo_17481" data-name="Grupo 17481">
      <g id="Grupo_17466" data-name="Grupo 17466">
        <g id="Elipse_961" data-name="Elipse 961" transform="translate(546 7250)" fill="#fff" stroke="#472ea6" stroke-width="1">
          <circle cx="31.5" cy="31.5" r="31.5" stroke="none"/>
          <circle cx="31.5" cy="31.5" r="31" fill="none"/>
        </g>
        <g id="Grupo_12414" data-name="Grupo 12414" transform="translate(555 7260.462)">
          <g id="Grupo_12413" data-name="Grupo 12413" clip-path="url(#clip-path)">
            <path id="Trazado_36636" data-name="Trazado 36636" d="M308.337,38.576a4.227,4.227,0,1,1,3.638-3.987,4.04,4.04,0,0,1-3.638,3.987" transform="translate(-278.844 -27.639)" fill="#c7ddeb"/>
            <path id="Trazado_36637" data-name="Trazado 36637" d="M271.727,160.908a1.443,1.443,0,0,1-1.318-1.766c.7-3.885,3.592-7.363,7.052-7.367s6.355,3.468,7.067,7.352a1.443,1.443,0,0,1-1.314,1.769Z" transform="translate(-247.773 -139.084)" fill="#c7ddeb"/>
            <path id="Trazado_36638" data-name="Trazado 36638" d="M269.83,11.408q-.146,0-.292-.008a5.719,5.719,0,1,1,.292.008m.014-10.369a4.656,4.656,0,1,0,.241.006c-.08,0-.161-.006-.241-.006" transform="translate(-242.046 0)" fill="#3d4451"/>
            <path id="Trazado_36639" data-name="Trazado 36639" d="M238.577,142.762h0l-14.584-.015a2.227,2.227,0,0,1-2.177-2.67,12.2,12.2,0,0,1,3.321-6.211,8.81,8.81,0,0,1,6.153-2.719h.008a8.81,8.81,0,0,1,6.156,2.731,12.2,12.2,0,0,1,3.308,6.218,2.227,2.227,0,0,1-2.181,2.666m0-1.039h0a1.178,1.178,0,0,0,.913-.431,1.191,1.191,0,0,0,.248-.992,11.15,11.15,0,0,0-3.021-5.684,7.78,7.78,0,0,0-5.424-2.429h-.007a7.781,7.781,0,0,0-5.421,2.417,11.153,11.153,0,0,0-3.033,5.677,1.191,1.191,0,0,0,.246.993,1.178,1.178,0,0,0,.914.433Z" transform="translate(-203.224 -120.18)" fill="#3d4451"/>
            <path id="Trazado_36640" data-name="Trazado 36640" d="M451.312,354.167l.772,1.677,3.28.36-1.912,2.115.566,2.952-2.586-1.5-2.576,1.623,1.07-3.376-1.4-1.478,1.815-.06Z" transform="translate(-411.021 -324.551)" fill="#f04f4c"/>
            <path id="Trazado_36641" data-name="Trazado 36641" d="M425.538,345.013l.509-3.024-2.2-2.134,3.033-.45,1.349-2.753,1.365,2.745,3.036.432-2.189,2.147.527,3.021-2.718-1.419Zm-.117-4.651,1.413,1.369-.327,1.94,1.739-.921,1.744.91-.338-1.938,1.4-1.378-1.948-.277-.876-1.762-.866,1.767Z" transform="translate(-388.403 -308.501)" fill="#3d4451"/>
            <path id="Trazado_36642" data-name="Trazado 36642" d="M425.538,345.013l.509-3.024-2.2-2.134,3.033-.45,1.349-2.753,1.365,2.745,3.036.432-2.189,2.147.527,3.021-2.718-1.419Zm-.117-4.651,1.413,1.369-.327,1.94,1.739-.921,1.744.91-.338-1.938,1.4-1.378-1.948-.277-.876-1.762-.866,1.767Z" transform="translate(-388.403 -308.501)" fill="#3d4451"/>
            <path id="Trazado_36643" data-name="Trazado 36643" d="M27.467,354.167l.772,1.677,3.28.36-1.912,2.115.567,2.952-2.586-1.5-2.576,1.623,1.07-3.376-1.4-1.478,1.815-.06Z" transform="translate(-22.618 -324.551)" fill="#f04f4c"/>
            <path id="Trazado_36644" data-name="Trazado 36644" d="M1.692,345.013l.51-3.024L0,339.855l3.033-.45,1.349-2.753L5.747,339.4l3.035.432-2.189,2.147L7.12,345,4.4,343.578Zm-.117-4.651,1.413,1.369-.327,1.94,1.739-.921,1.744.91-.338-1.938,1.4-1.378-1.948-.277-.876-1.762-.866,1.767Z" transform="translate(0 -308.501)" fill="#3d4451"/>
            <path id="Trazado_36645" data-name="Trazado 36645" d="M1.692,345.013l.51-3.024L0,339.855l3.033-.45,1.349-2.753L5.747,339.4l3.035.432-2.189,2.147L7.12,345,4.4,343.578Zm-.117-4.651,1.413,1.369-.327,1.94,1.739-.921,1.744.91-.338-1.938,1.4-1.378-1.948-.277-.876-1.762-.866,1.767Z" transform="translate(0 -308.501)" fill="#3d4451"/>
            <path id="Trazado_36646" data-name="Trazado 36646" d="M345.053,354.6l.772,1.677,3.28.36-1.912,2.115.567,2.952-2.586-1.5L342.6,361.82l1.07-3.376-1.4-1.478,1.815-.06Z" transform="translate(-313.647 -324.945)" fill="#f04f4c"/>
            <path id="Trazado_36647" data-name="Trazado 36647" d="M319.278,345.442l.51-3.024-2.2-2.134,3.033-.45,1.349-2.753,1.365,2.746,3.036.432-2.189,2.147.527,3.021-2.718-1.419Zm-.117-4.651,1.413,1.369-.327,1.94,1.739-.921,1.744.91-.338-1.938,1.4-1.377-1.948-.277-.876-1.762-.866,1.767Z" transform="translate(-291.029 -308.895)" fill="#3d4451"/>
            <path id="Trazado_36648" data-name="Trazado 36648" d="M319.278,345.442l.51-3.024-2.2-2.134,3.033-.45,1.349-2.753,1.365,2.746,3.036.432-2.189,2.147.527,3.021-2.718-1.419Zm-.117-4.651,1.413,1.369-.327,1.94,1.739-.921,1.744.91-.338-1.938,1.4-1.377-1.948-.277-.876-1.762-.866,1.767Z" transform="translate(-291.029 -308.895)" fill="#3d4451"/>
            <path id="Trazado_36649" data-name="Trazado 36649" d="M237.6,354.167l.772,1.677,3.28.36-1.912,2.115.567,2.952-2.586-1.5-2.576,1.623,1.07-3.376-1.4-1.478,1.815-.06Z" transform="translate(-215.179 -324.551)" fill="#f04f4c"/>
            <path id="Trazado_36650" data-name="Trazado 36650" d="M211.825,345.013l.509-3.024-2.2-2.134,3.033-.45,1.349-2.753,1.365,2.745,3.036.432-2.189,2.147.527,3.021-2.718-1.419Zm-.117-4.651,1.413,1.369-.327,1.94,1.739-.921,1.744.91-.338-1.938,1.4-1.378-1.948-.277-.876-1.762-.866,1.767Z" transform="translate(-192.561 -308.501)" fill="#3d4451"/>
            <path id="Trazado_36651" data-name="Trazado 36651" d="M211.825,345.013l.509-3.024-2.2-2.134,3.033-.45,1.349-2.753,1.365,2.745,3.036.432-2.189,2.147.527,3.021-2.718-1.419Zm-.117-4.651,1.413,1.369-.327,1.94,1.739-.921,1.744.91-.338-1.938,1.4-1.378-1.948-.277-.876-1.762-.866,1.767Z" transform="translate(-192.561 -308.501)" fill="#3d4451"/>
            <path id="Trazado_36652" data-name="Trazado 36652" d="M131.339,354.6l.772,1.677,3.28.36-1.912,2.115.567,2.952-2.586-1.5-2.576,1.623,1.07-3.376-1.4-1.478,1.815-.06Z" transform="translate(-117.805 -324.945)" fill="#f04f4c"/>
            <path id="Trazado_36653" data-name="Trazado 36653" d="M105.566,345.442l.509-3.024-2.2-2.134,3.033-.45,1.349-2.753,1.365,2.746,3.036.432-2.189,2.147.527,3.021-2.718-1.419Zm-.117-4.651,1.413,1.369-.327,1.94,1.739-.921,1.744.91-.338-1.938,1.4-1.377-1.948-.277-.876-1.762L107.4,340.5Z" transform="translate(-95.188 -308.895)" fill="#3d4451"/>
            <path id="Trazado_36654" data-name="Trazado 36654" d="M105.566,345.442l.509-3.024-2.2-2.134,3.033-.45,1.349-2.753,1.365,2.746,3.036.432-2.189,2.147.527,3.021-2.718-1.419Zm-.117-4.651,1.413,1.369-.327,1.94,1.739-.921,1.744.91-.338-1.938,1.4-1.377-1.948-.277-.876-1.762L107.4,340.5Z" transform="translate(-95.188 -308.895)" fill="#3d4451"/>
            <path id="Trazado_36655" data-name="Trazado 36655" d="M133.383,135.974l-3.5,0,0-3.323s0-1.4,0-1.675a.581.581,0,0,0-.248-.439h-2c-.33,0-.412.165-.412.165s-1.81,4.148-2.606,5.493a2.866,2.866,0,0,1-2.416,1.292l0,7.141h2.362l1.539,1.317,6.508,0a1.707,1.707,0,0,0,1.1-.4l.781-.655a1.707,1.707,0,0,0,.61-1.309l0-5.9a1.707,1.707,0,0,0-1.708-1.706" transform="translate(-111.977 -119.623)" fill="#f5fafc"/>
            <path id="Trazado_36656" data-name="Trazado 36656" d="M132.745,173.329l-3.3,0v-2.6s0-1.1,0-1.31a.455.455,0,0,0-.234-.344h-1.888c-.31,0-.388.129-.388.129s-1.705,3.245-2.455,4.3a2.941,2.941,0,0,1-2.276,1.011l0,5.586h2.225l1.449,1.03,6.13,0a1.817,1.817,0,0,0,1.033-.312l.736-.513a1.258,1.258,0,0,0,.574-1.024l0-4.615a1.308,1.308,0,0,0-.779-1.144,1.862,1.862,0,0,0-.829-.191" transform="translate(-111.988 -154.939)" fill="#fdc345"/>
            <path id="Trazado_36657" data-name="Trazado 36657" d="M120.21,140.77l-1.539-1.317h-2.69l0-8.2.537.018a2.32,2.32,0,0,0,1.951-1.037c.77-1.3,2.559-5.4,2.577-5.437l.011-.024a.936.936,0,0,1,.877-.453h2.162l.131.087a1.085,1.085,0,0,1,.48.872l0,4.478,2.98,0h0a2.227,2.227,0,0,1,2.226,2.225l0,5.9a2.221,2.221,0,0,1-.8,1.707l-.781.655a2.23,2.23,0,0,1-1.43.521Zm-1.155-2.357,1.538,1.317,6.316,0a1.189,1.189,0,0,0,.762-.278l.781-.655a1.184,1.184,0,0,0,.424-.91l0-5.9a1.187,1.187,0,0,0-1.187-1.186h0l-4.019,0,0-5.437h-1.733c-.335.762-1.844,4.174-2.57,5.4a3.219,3.219,0,0,1-2.343,1.506l0,6.142Z" transform="translate(-106.279 -113.927)" fill="#3d4451"/>
            <rect id="Rectángulo_3850" data-name="Rectángulo 3850" width="7.85" height="9.391" transform="translate(3.268 16.784)" fill="#7eb9c7"/>
            <path id="Trazado_36658" data-name="Trazado 36658" d="M32.837,204.913l-.006-10.431,8.89,0,.006,10.431Zm1.034-9.392,0,8.352,6.811,0,0-8.352Z" transform="translate(-30.086 -178.216)" fill="#3d4451"/>
            <rect id="Rectángulo_3851" data-name="Rectángulo 3851" width="6.591" height="1.845" transform="translate(3.911 17.373)" fill="#f5fafc"/>
            <path id="Trazado_36659" data-name="Trazado 36659" d="M336.363,150.618a1.375,1.375,0,0,1-.956-.446l-4.694-4.9a1.141,1.141,0,0,1,.1-1.688,1.352,1.352,0,0,1,1.807.09l3.675,3.817,7.638-9.038a1.349,1.349,0,0,1,1.8-.2,1.13,1.13,0,0,1,.218,1.666l-8.582,10.2a1.324,1.324,0,0,1-.967.5Z" transform="translate(-302.762 -126.454)" fill="#4ece46"/>
            <path id="Trazado_36660" data-name="Trazado 36660" d="M330.155,144.979h-.041a1.931,1.931,0,0,1-1.366-.621l-4.695-4.9a1.7,1.7,0,0,1-.48-1.286,1.717,1.717,0,0,1,.633-1.236,1.934,1.934,0,0,1,2.581.134l3.237,3.362,7.23-8.555a1.93,1.93,0,0,1,2.568-.3,1.727,1.727,0,0,1,.714,1.2,1.683,1.683,0,0,1-.4,1.3l-8.582,10.2a1.891,1.891,0,0,1-1.4.707m-4.729-7.34a.776.776,0,0,0-.494.172.589.589,0,0,0-.221.422.571.571,0,0,0,.165.431l4.7,4.9a.815.815,0,0,0,.544.27h.041a.772.772,0,0,0,.531-.3l8.582-10.2a.556.556,0,0,0,.135-.427.6.6,0,0,0-.252-.411.78.78,0,0,0-1.026.111l-8.046,9.521-4.114-4.272a.748.748,0,0,0-.539-.218" transform="translate(-296.513 -120.245)" fill="#3d4451"/>
          </g>
        </g>
      </g>
    </g>
  </g>
</svg>
