<svg id="Grupo_17452" data-name="Grupo 17452" xmlns="http://www.w3.org/2000/svg" xmlns:xlink="http://www.w3.org/1999/xlink" width="103.852" height="76.146" viewBox="0 0 103.852 76.146">
  <defs>
    <clipPath id="clip-path">
      <rect id="Rectángulo_3702" data-name="Rectángulo 3702" width="103.852" height="76.146" fill="none"/>
    </clipPath>
  </defs>
  <rect id="Rectángulo_3688" data-name="Rectángulo 3688" width="14.565" height="25.954" transform="translate(7.05 25.672)" fill="#c7ddeb"/>
  <rect id="Rectángulo_3689" data-name="Rectángulo 3689" width="14.565" height="25.954" transform="translate(82.237 25.672)" fill="#c7ddeb"/>
  <path id="Trazado_35787" data-name="Trazado 35787" d="M38.4,252.925h0Z" transform="translate(-31.548 -207.788)" fill="#f5fafc"/>
  <rect id="Rectángulo_3690" data-name="Rectángulo 3690" width="14.959" height="1.934" transform="translate(6.853 44.169)" fill="#3d4451"/>
  <path id="Trazado_35788" data-name="Trazado 35788" d="M0,0V55.5H22.205V53.6H1.9V1.9H40.152v4.7h1.9V0Z" transform="translate(0 0)" fill="#3d4451"/>
  <path id="Trazado_35789" data-name="Trazado 35789" d="M346.312,0V6.593h1.9V1.9h38.255V53.6h-21.49v1.9h23.386V0Z" transform="translate(-284.509 0)" fill="#3d4451"/>
  <path id="Trazado_35790" data-name="Trazado 35790" d="M36.131,58.845H5.314v11.4H32.081" transform="translate(-4.366 -48.344)" fill="#fdc345"/>
  <path id="Trazado_35791" data-name="Trazado 35791" d="M28.613,67.532H1.093V54.624h31.57V56.13H2.6v9.9H28.613Z" transform="translate(-0.898 -44.875)" fill="#3d4451"/>
  <path id="Trazado_35792" data-name="Trazado 35792" d="M394.484,60.2h32.5V71H398.756" transform="translate(-324.085 -49.46)" fill="#6b968b"/>
  <path id="Trazado_35793" data-name="Trazado 35793" d="M427.73,68.322H398.756V66.837h27.489V57.528H394.484V56.043H427.73Z" transform="translate(-324.085 -46.042)" fill="#3d4451"/>
  <rect id="Rectángulo_3691" data-name="Rectángulo 3691" width="46.972" height="57.285" transform="translate(28.187 7.683)" fill="#f5fafc"/>
  <path id="Trazado_35794" data-name="Trazado 35794" d="M200.815,96.234H151.567V36.673h49.248Zm-46.972-2.276h44.7V38.949h-44.7Z" transform="translate(-124.518 -30.128)" fill="#3d4451"/>
  <rect id="Rectángulo_3692" data-name="Rectángulo 3692" width="26.768" height="44.413" transform="translate(38.345 14.157)" fill="#c7ddeb"/>
  <rect id="Rectángulo_3693" data-name="Rectángulo 3693" width="47.041" height="13.251" transform="translate(28.208 14.522)" fill="#7eb9c7"/>
  <path id="Trazado_35795" data-name="Trazado 35795" d="M202.032,91.553H153.284V76.6h48.748Zm-47.041-1.707h45.334V78.3H154.991Z" transform="translate(-125.929 -62.926)" fill="#3d4451"/>
  <path id="Trazado_35796" data-name="Trazado 35796" d="M38.4,164.846h0Z" transform="translate(-31.548 -135.428)" fill="#f5fafc"/>
  <rect id="Rectángulo_3694" data-name="Rectángulo 3694" width="15.352" height="1.934" transform="translate(6.853 28.451)" fill="#3d4451"/>
  <path id="Trazado_35797" data-name="Trazado 35797" d="M38.4,208.885h0Z" transform="translate(-31.548 -171.608)" fill="#f5fafc"/>
  <rect id="Rectángulo_3695" data-name="Rectángulo 3695" width="15.352" height="1.934" transform="translate(6.853 36.31)" fill="#3d4451"/>
  <rect id="Rectángulo_3696" data-name="Rectángulo 3696" width="26.571" height="5.3" transform="translate(34.212 18.909)" fill="#f5fafc"/>
  <g id="Grupo_12221" data-name="Grupo 12221">
    <g id="Grupo_12220" data-name="Grupo 12220" clip-path="url(#clip-path)">
      <path id="Trazado_35798" data-name="Trazado 35798" d="M363.3,111.643h-3.278a1.23,1.23,0,0,1-1.23-1.23v-2.868a1.23,1.23,0,0,1,1.23-1.23H363.3a1.23,1.23,0,0,1,1.23,1.23v2.868a1.23,1.23,0,0,1-1.23,1.23" transform="translate(-294.765 -87.342)" fill="#f5fafc"/>
      <line id="Línea_3" data-name="Línea 3" x1="14.959" transform="translate(82.237 45.228)" fill="#f5fafc"/>
      <rect id="Rectángulo_3697" data-name="Rectángulo 3697" width="14.959" height="1.934" transform="translate(82.237 44.261)" fill="#3d4451"/>
      <line id="Línea_4" data-name="Línea 4" x1="15.352" transform="translate(81.843 29.51)" fill="#f5fafc"/>
      <rect id="Rectángulo_3698" data-name="Rectángulo 3698" width="15.352" height="1.935" transform="translate(81.843 28.542)" fill="#3d4451"/>
      <line id="Línea_5" data-name="Línea 5" x1="15.352" transform="translate(81.843 37.369)" fill="#f5fafc"/>
      <rect id="Rectángulo_3699" data-name="Rectángulo 3699" width="15.352" height="1.934" transform="translate(81.843 36.402)" fill="#3d4451"/>
      <path id="Trazado_35799" data-name="Trazado 35799" d="M240.676,202.658a1.915,1.915,0,0,1-1.3-.58l-6.405-6.383a1.441,1.441,0,0,1,.141-2.2,1.911,1.911,0,0,1,2.466.117l5.016,4.969,10.423-11.766a1.9,1.9,0,0,1,2.453-.265,1.428,1.428,0,0,1,.3,2.168L242.051,202a1.834,1.834,0,0,1-1.32.656Z" transform="translate(-191.027 -152.99)" fill="#4ece46"/>
      <path id="Trazado_35800" data-name="Trazado 35800" d="M237.136,199.827h-.055a2.681,2.681,0,0,1-1.854-.807l-6.407-6.384a2.24,2.24,0,0,1-.67-1.712,2.281,2.281,0,0,1,.878-1.653,2.682,2.682,0,0,1,3.5.175l4.429,4.388,9.875-11.147a2.673,2.673,0,0,1,3.482-.39,2.3,2.3,0,0,1,.991,1.6,2.185,2.185,0,0,1-.553,1.725l-11.711,13.28a2.616,2.616,0,0,1-1.906.921m-6.453-9.558a1.114,1.114,0,0,0-.688.229.708.708,0,0,0-.286.514.67.67,0,0,0,.211.515l6.407,6.385a1.144,1.144,0,0,0,.753.352h.055a1.075,1.075,0,0,0,.734-.392l11.711-13.281a.636.636,0,0,0,.172-.505.733.733,0,0,0-.33-.506,1.119,1.119,0,0,0-1.422.142l-10.971,12.384-5.6-5.55a1.06,1.06,0,0,0-.746-.287" transform="translate(-187.432 -149.378)" fill="#3d4451"/>
      <path id="Trazado_35801" data-name="Trazado 35801" d="M277.963,289.265l-6.017,0,0-5.453s0-2.3,0-2.748a.952.952,0,0,0-.427-.721l-3.446,0c-.567,0-.708.271-.708.271s-3.112,6.806-4.48,9.014a5.02,5.02,0,0,1-4.154,2.12l.007,11.718,4.061,0,2.645,2.161,11.189-.006a3.02,3.02,0,0,0,1.885-.655l1.343-1.075a2.751,2.751,0,0,0,1.048-2.147l-.006-9.681a2.778,2.778,0,0,0-1.423-2.4,3.039,3.039,0,0,0-1.513-.4" transform="translate(-212.556 -230.316)" fill="#f5fafc"/>
      <path id="Trazado_35802" data-name="Trazado 35802" d="M276.853,316.956l-5.667,0,0-4.266s0-1.8,0-2.15-.4-.564-.4-.564l-3.246,0c-.534,0-.667.212-.667.212s-2.932,5.325-4.22,7.052-3.913,1.659-3.913,1.659l.005,9.166,3.825,0,2.491,1.69,10.538-.005a3.23,3.23,0,0,0,1.775-.513l1.265-.841a2.045,2.045,0,0,0,.988-1.68l0-7.573a2.147,2.147,0,0,0-1.34-1.877,3.324,3.324,0,0,0-1.425-.313" transform="translate(-212.562 -254.661)" fill="#fdc345"/>
      <path id="Trazado_35803" data-name="Trazado 35803" d="M261.311,302.63l-2.645-2.161-4.6,0-.008-13.409.859.027a4.231,4.231,0,0,0,3.419-1.726c1.325-2.138,4.4-8.855,4.431-8.922l.019-.039a1.561,1.561,0,0,1,1.445-.718l3.688,0,.2.13a1.749,1.749,0,0,1,.813,1.422l0,7.369,5.184,0h0a3.875,3.875,0,0,1,1.925.51,3.626,3.626,0,0,1,1.841,3.121l.006,9.681a3.573,3.573,0,0,1-1.36,2.8l-1.343,1.075a3.862,3.862,0,0,1-2.4.838Zm-2.052-3.826,2.645,2.161,10.892-.006a2.189,2.189,0,0,0,1.365-.473l1.343-1.075a1.917,1.917,0,0,0,.736-1.5l-.006-9.681a1.958,1.958,0,0,0-1-1.678,2.207,2.207,0,0,0-1.1-.29h0l-6.849,0-.005-8.922-3.04,0-.051,0c-.553,1.2-3.173,6.86-4.43,8.889a5.528,5.528,0,0,1-4.029,2.455l.006,10.112Z" transform="translate(-208.722 -226.484)" fill="#3d4451"/>
      <rect id="Rectángulo_3700" data-name="Rectángulo 3700" width="13.496" height="15.411" transform="translate(34.223 59.661)" fill="#7eb9c7"/>
      <path id="Trazado_35804" data-name="Trazado 35804" d="M187.089,346.709l-.01-17.075,15.161-.008.01,17.075Zm1.655-15.412.008,13.747,11.832-.006-.008-13.747Z" transform="translate(-153.693 -270.801)" fill="#3d4451"/>
      <rect id="Rectángulo_3701" data-name="Rectángulo 3701" width="11.331" height="3.028" transform="translate(35.328 60.627)" fill="#f5fafc"/>
    </g>
  </g>
</svg>
