<svg xmlns="http://www.w3.org/2000/svg" xmlns:xlink="http://www.w3.org/1999/xlink" width="160" height="160" viewBox="0 0 160 160">
  <defs>
    <clipPath id="clip-path">
      <rect id="Rectángulo_3702" data-name="Rectángulo 3702" width="112.8" height="82.707" fill="none"/>
    </clipPath>
  </defs>
  <g id="Grupo_17472" data-name="Grupo 17472" transform="translate(-1246 -605)">
    <g id="Grupo_17457" data-name="Grupo 17457">
      <g id="Elipse_942" data-name="Elipse 942" transform="translate(1246 605)" fill="#fff" stroke="#472ea6" stroke-width="1">
        <circle cx="80" cy="80" r="80" stroke="none"/>
        <circle cx="80" cy="80" r="79.5" fill="none"/>
      </g>
      <g id="Grupo_12222" data-name="Grupo 12222" transform="translate(1270 648.978)">
        <rect id="Rectángulo_3688" data-name="Rectángulo 3688" width="15.82" height="28.19" transform="translate(7.657 27.883)" fill="#c7ddeb"/>
        <rect id="Rectángulo_3689" data-name="Rectángulo 3689" width="15.82" height="28.19" transform="translate(89.322 27.883)" fill="#c7ddeb"/>
        <path id="Trazado_35787" data-name="Trazado 35787" d="M38.4,252.925h0Z" transform="translate(-30.958 -203.899)" fill="#f5fafc"/>
        <rect id="Rectángulo_3690" data-name="Rectángulo 3690" width="16.248" height="2.101" transform="translate(7.444 47.975)" fill="#3d4451"/>
        <path id="Trazado_35788" data-name="Trazado 35788" d="M0,0V60.28H24.119V58.22H2.06V2.061H43.612v5.1h2.06V0Z" transform="translate(0 0)" fill="#3d4451"/>
        <path id="Trazado_35789" data-name="Trazado 35789" d="M346.312,0v7.16h2.06v-5.1h41.552V58.22H366.582v2.06h25.4V0Z" transform="translate(-279.184 0)" fill="#3d4451"/>
        <path id="Trazado_35790" data-name="Trazado 35790" d="M38.786,58.845H5.314V71.229H34.387" transform="translate(-4.284 -47.439)" fill="#fdc345"/>
        <path id="Trazado_35791" data-name="Trazado 35791" d="M30.984,68.644H1.093V54.624h34.29V56.26H2.729V67.008H30.984Z" transform="translate(-0.881 -44.036)" fill="#3d4451"/>
        <path id="Trazado_35792" data-name="Trazado 35792" d="M394.484,60.2h35.3V71.927H399.124" transform="translate(-318.019 -48.534)" fill="#6b968b"/>
        <path id="Trazado_35793" data-name="Trazado 35793" d="M430.595,69.38H399.124V67.767h29.858V57.656h-34.5V56.043h36.111Z" transform="translate(-318.019 -45.18)" fill="#3d4451"/>
        <rect id="Rectángulo_3691" data-name="Rectángulo 3691" width="51.019" height="62.22" transform="translate(30.615 8.345)" fill="#f5fafc"/>
        <path id="Trazado_35794" data-name="Trazado 35794" d="M205.058,101.366H151.567V36.673h53.491Zm-51.019-2.472h48.547V39.145H154.039Z" transform="translate(-122.188 -29.564)" fill="#3d4451"/>
        <rect id="Rectángulo_3692" data-name="Rectángulo 3692" width="29.074" height="48.24" transform="translate(41.649 15.377)" fill="#c7ddeb"/>
        <rect id="Rectángulo_3693" data-name="Rectángulo 3693" width="51.094" height="14.393" transform="translate(30.639 15.774)" fill="#7eb9c7"/>
        <path id="Trazado_35795" data-name="Trazado 35795" d="M206.232,92.842H153.284V76.6h52.948Zm-51.094-1.854h49.24V78.449h-49.24Z" transform="translate(-123.572 -61.748)" fill="#3d4451"/>
        <path id="Trazado_35796" data-name="Trazado 35796" d="M38.4,164.846h0Z" transform="translate(-30.958 -132.893)" fill="#f5fafc"/>
        <rect id="Rectángulo_3694" data-name="Rectángulo 3694" width="16.675" height="2.101" transform="translate(7.444 30.902)" fill="#3d4451"/>
        <path id="Trazado_35797" data-name="Trazado 35797" d="M38.4,208.885h0Z" transform="translate(-30.958 -168.396)" fill="#f5fafc"/>
        <rect id="Rectángulo_3695" data-name="Rectángulo 3695" width="16.675" height="2.101" transform="translate(7.444 39.439)" fill="#3d4451"/>
        <rect id="Rectángulo_3696" data-name="Rectángulo 3696" width="28.861" height="5.757" transform="translate(37.159 20.538)" fill="#f5fafc"/>
        <g id="Grupo_12221" data-name="Grupo 12221">
          <g id="Grupo_12220" data-name="Grupo 12220" clip-path="url(#clip-path)">
            <path id="Trazado_35798" data-name="Trazado 35798" d="M363.691,112.1h-3.56a1.336,1.336,0,0,1-1.336-1.336v-3.115a1.336,1.336,0,0,1,1.336-1.336h3.56a1.336,1.336,0,0,1,1.336,1.336v3.115a1.336,1.336,0,0,1-1.336,1.336" transform="translate(-289.248 -85.707)" fill="#f5fafc"/>
            <line id="Línea_3" data-name="Línea 3" x1="16.248" transform="translate(89.322 49.125)" fill="#f5fafc"/>
            <rect id="Rectángulo_3697" data-name="Rectángulo 3697" width="16.248" height="2.101" transform="translate(89.322 48.074)" fill="#3d4451"/>
            <line id="Línea_4" data-name="Línea 4" x1="16.675" transform="translate(88.895 32.052)" fill="#f5fafc"/>
            <rect id="Rectángulo_3698" data-name="Rectángulo 3698" width="16.675" height="2.101" transform="translate(88.895 31.002)" fill="#3d4451"/>
            <line id="Línea_5" data-name="Línea 5" x1="16.675" transform="translate(88.895 40.589)" fill="#f5fafc"/>
            <rect id="Rectángulo_3699" data-name="Rectángulo 3699" width="16.675" height="2.101" transform="translate(88.895 39.538)" fill="#3d4451"/>
            <path id="Trazado_35799" data-name="Trazado 35799" d="M241.379,204.074a2.08,2.08,0,0,1-1.417-.63l-6.957-6.933a1.565,1.565,0,0,1,.153-2.387,2.076,2.076,0,0,1,2.679.127l5.448,5.4,11.321-12.779a2.068,2.068,0,0,1,2.664-.288,1.551,1.551,0,0,1,.323,2.355l-12.721,14.426a1.993,1.993,0,0,1-1.433.713Z" transform="translate(-187.452 -150.126)" fill="#4ece46"/>
            <path id="Trazado_35800" data-name="Trazado 35800" d="M237.91,201.378h-.06a2.912,2.912,0,0,1-2.014-.876l-6.959-6.934a2.433,2.433,0,0,1-.727-1.859,2.477,2.477,0,0,1,.954-1.8,2.913,2.913,0,0,1,3.8.19l4.811,4.766,10.726-12.108a2.9,2.9,0,0,1,3.782-.423,2.5,2.5,0,0,1,1.076,1.741,2.373,2.373,0,0,1-.6,1.874l-12.72,14.425a2.842,2.842,0,0,1-2.07,1M230.9,191a1.21,1.21,0,0,0-.747.249.769.769,0,0,0-.31.558.727.727,0,0,0,.229.56l6.959,6.935a1.243,1.243,0,0,0,.818.383h.06a1.167,1.167,0,0,0,.8-.426l12.72-14.426a.69.69,0,0,0,.187-.549.8.8,0,0,0-.358-.549,1.216,1.216,0,0,0-1.545.154L237.8,197.337l-6.085-6.028a1.152,1.152,0,0,0-.81-.312" transform="translate(-183.924 -146.582)" fill="#3d4451"/>
            <path id="Trazado_35801" data-name="Trazado 35801" d="M279.621,290.033l-6.535,0,0-5.923s0-2.5,0-2.985a1.034,1.034,0,0,0-.463-.783l-3.743,0c-.616,0-.769.294-.769.294s-3.38,7.393-4.866,9.791a5.453,5.453,0,0,1-4.512,2.3l.007,12.727,4.411,0,2.873,2.347,12.153-.006a3.28,3.28,0,0,0,2.047-.712l1.458-1.168a2.988,2.988,0,0,0,1.139-2.332l-.006-10.515a3.017,3.017,0,0,0-1.546-2.606,3.3,3.3,0,0,0-1.644-.435" transform="translate(-208.577 -226.005)" fill="#f5fafc"/>
            <path id="Trazado_35802" data-name="Trazado 35802" d="M278.414,317.557l-6.155,0,0-4.633s0-1.953,0-2.335-.436-.612-.436-.612l-3.526,0c-.58,0-.724.23-.724.23s-3.184,5.783-4.584,7.66-4.25,1.8-4.25,1.8l.006,9.956,4.154,0,2.706,1.836,11.446-.006a3.509,3.509,0,0,0,1.928-.557l1.374-.914a2.221,2.221,0,0,0,1.073-1.825l0-8.226a2.332,2.332,0,0,0-1.456-2.039,3.609,3.609,0,0,0-1.548-.34" transform="translate(-208.584 -249.895)" fill="#fdc345"/>
            <path id="Trazado_35803" data-name="Trazado 35803" d="M261.935,304.952l-2.873-2.347-4.992,0-.008-14.564.933.03a4.6,4.6,0,0,0,3.714-1.875c1.439-2.323,4.779-9.618,4.812-9.691l.021-.042a1.7,1.7,0,0,1,1.57-.78l4.006,0,.222.141a1.9,1.9,0,0,1,.883,1.545l0,8,5.631,0h0a4.209,4.209,0,0,1,2.091.554,3.939,3.939,0,0,1,2,3.39l.006,10.515a3.881,3.881,0,0,1-1.477,3.039l-1.458,1.168a4.194,4.194,0,0,1-2.612.91Zm-2.229-4.155,2.873,2.347,11.831-.006a2.378,2.378,0,0,0,1.483-.513l1.458-1.168a2.082,2.082,0,0,0,.8-1.626l-.006-10.515a2.126,2.126,0,0,0-1.091-1.823,2.4,2.4,0,0,0-1.192-.315h0l-7.439,0-.005-9.691-3.3,0-.056,0c-.6,1.306-3.446,7.451-4.811,9.655a6,6,0,0,1-4.376,2.667l.006,10.983Z" transform="translate(-204.816 -222.245)" fill="#3d4451"/>
            <rect id="Rectángulo_3700" data-name="Rectángulo 3700" width="14.659" height="16.739" transform="translate(37.172 64.801)" fill="#7eb9c7"/>
            <path id="Trazado_35804" data-name="Trazado 35804" d="M187.09,348.181l-.011-18.546,16.467-.009.011,18.546Zm1.8-16.74.009,14.931,12.852-.007-.008-14.931Z" transform="translate(-150.816 -265.733)" fill="#3d4451"/>
            <rect id="Rectángulo_3701" data-name="Rectángulo 3701" width="12.307" height="3.289" transform="translate(38.372 65.851)" fill="#f5fafc"/>
          </g>
        </g>
      </g>
    </g>
  </g>
</svg>
