<svg xmlns="http://www.w3.org/2000/svg" xmlns:xlink="http://www.w3.org/1999/xlink" width="160" height="160" viewBox="0 0 160 160">
  <defs>
    <clipPath id="clip-path">
      <rect id="Rectángulo_3711" data-name="Rectángulo 3711" width="118" height="94.544" fill="none"/>
    </clipPath>
  </defs>
  <g id="Grupo_17474" data-name="Grupo 17474" transform="translate(-1059 -1078)">
    <g id="Grupo_17459" data-name="Grupo 17459">
      <g id="Elipse_945" data-name="Elipse 945" transform="translate(1059 1078)" fill="#fff" stroke="#472ea6" stroke-width="1">
        <circle cx="80" cy="80" r="80" stroke="none"/>
        <circle cx="80" cy="80" r="79.5" fill="none"/>
      </g>
      <g id="Grupo_12228" data-name="Grupo 12228" transform="translate(1081 1106.456)">
        <g id="Grupo_12227" data-name="Grupo 12227" clip-path="url(#clip-path)">
          <path id="Trazado_35843" data-name="Trazado 35843" d="M118,310.9c0,3.669-26.415,6.642-59,6.642S0,314.569,0,310.9s26.415-6.642,59-6.642,59,2.974,59,6.642" transform="translate(0 -222.999)" fill="#c7ddeb"/>
          <path id="Trazado_35844" data-name="Trazado 35844" d="M260.269,224.584v8.379c0,3.261-8.347,5.906-18.642,5.906s-18.642-2.644-18.642-5.906v-8.379" transform="translate(-163.432 -164.604)" fill="#fdc345"/>
          <path id="Trazado_35845" data-name="Trazado 35845" d="M238.825,239.89a46.51,46.51,0,0,1-13.49-1.777c-4.038-1.279-6.173-3.06-6.173-5.149v-8.379H221.2v8.379c0,2.04,6.7,4.885,17.621,4.885s17.621-2.845,17.621-4.885v-8.379h2.042v8.379c0,2.09-2.134,3.87-6.173,5.149a46.5,46.5,0,0,1-13.49,1.777" transform="translate(-160.63 -164.604)" fill="#3d4451"/>
          <path id="Trazado_35846" data-name="Trazado 35846" d="M222.985,209.769c0,3.014,8.346,5.458,18.642,5.458s18.642-2.444,18.642-5.458-8.347-5.458-18.642-5.458-18.642,2.444-18.642,5.458" transform="translate(-163.432 -149.745)" fill="#fdc345"/>
          <path id="Trazado_35847" data-name="Trazado 35847" d="M238.934,213.515c-9.752,0-19.624-2.212-19.624-6.439s9.872-6.44,19.624-6.44,19.624,2.212,19.624,6.44-9.872,6.439-19.624,6.439m0-10.916c-10.781,0-17.661,2.652-17.661,4.477s6.88,4.476,17.661,4.476,17.661-2.651,17.661-4.476-6.88-4.477-17.661-4.477" transform="translate(-160.738 -147.052)" fill="#3d4451"/>
          <path id="Trazado_35848" data-name="Trazado 35848" d="M255.828,181.744v7.473c0,2.909-7.445,5.268-16.628,5.268s-16.628-2.358-16.628-5.268v-7.473" transform="translate(-163.129 -133.205)" fill="#fdc345"/>
          <path id="Trazado_35849" data-name="Trazado 35849" d="M236.7,195.4a41.467,41.467,0,0,1-12.033-1.586c-3.6-1.141-5.506-2.729-5.506-4.593v-7.473h1.821v7.473c0,1.82,5.979,4.357,15.717,4.357s15.717-2.537,15.717-4.357v-7.473h1.821v7.473c0,1.864-1.9,3.452-5.506,4.593A41.467,41.467,0,0,1,236.7,195.4" transform="translate(-160.63 -133.205)" fill="#3d4451"/>
          <path id="Trazado_35850" data-name="Trazado 35850" d="M222.572,168.53c0,2.689,7.445,4.868,16.628,4.868s16.628-2.18,16.628-4.868-7.445-4.868-16.628-4.868-16.628,2.18-16.628,4.868" transform="translate(-163.129 -119.952)" fill="#fdc345"/>
          <path id="Trazado_35851" data-name="Trazado 35851" d="M236.8,171.871c-8.7,0-17.5-1.973-17.5-5.744s8.805-5.744,17.5-5.744,17.5,1.973,17.5,5.744-8.805,5.744-17.5,5.744m0-9.737c-9.616,0-15.752,2.365-15.752,3.993s6.136,3.993,15.752,3.993,15.752-2.365,15.752-3.993-6.136-3.993-15.752-3.993" transform="translate(-160.727 -117.549)" fill="#3d4451"/>
          <path id="Trazado_35852" data-name="Trazado 35852" d="M117.4,218.183v7.763c0,3.022-7.733,5.472-17.272,5.472s-17.271-2.45-17.271-5.472v-7.763" transform="translate(-60.731 -159.912)" fill="#fdc345"/>
          <path id="Trazado_35853" data-name="Trazado 35853" d="M97.536,232.362a43.075,43.075,0,0,1-12.5-1.647c-3.741-1.185-5.719-2.835-5.719-4.77v-7.763h1.892v7.763c0,1.89,6.211,4.525,16.325,4.525s16.326-2.636,16.326-4.525v-7.763h1.892v7.763c0,1.936-1.978,3.585-5.719,4.77a43.075,43.075,0,0,1-12.5,1.647" transform="translate(-58.135 -159.912)" fill="#3d4451"/>
          <path id="Trazado_35854" data-name="Trazado 35854" d="M82.861,204.457c0,2.793,7.733,5.057,17.271,5.057s17.272-2.264,17.272-5.057-7.733-5.057-17.272-5.057-17.271,2.264-17.271,5.057" transform="translate(-60.731 -146.146)" fill="#fdc345"/>
          <path id="Trazado_35855" data-name="Trazado 35855" d="M97.636,207.928c-9.035,0-18.181-2.05-18.181-5.966s9.146-5.966,18.181-5.966,18.181,2.05,18.181,5.966-9.146,5.966-18.181,5.966m0-10.114c-9.988,0-16.362,2.456-16.362,4.147s6.374,4.148,16.362,4.148S114,203.652,114,201.961s-6.374-4.147-16.362-4.147" transform="translate(-58.235 -143.65)" fill="#3d4451"/>
          <path id="Trazado_35856" data-name="Trazado 35856" d="M182.559,266.214v8.379c0,3.262-8.347,5.906-18.642,5.906s-18.642-2.644-18.642-5.906v-8.379" transform="translate(-106.476 -195.115)" fill="#fdc345"/>
          <path id="Trazado_35857" data-name="Trazado 35857" d="M161.115,281.519a46.5,46.5,0,0,1-13.49-1.777c-4.038-1.28-6.173-3.06-6.173-5.15v-8.379h2.042v8.379c0,2.04,6.7,4.885,17.621,4.885s17.621-2.845,17.621-4.885v-8.379h2.042v8.379c0,2.09-2.134,3.87-6.173,5.15a46.5,46.5,0,0,1-13.49,1.777" transform="translate(-103.674 -195.115)" fill="#3d4451"/>
          <path id="Trazado_35858" data-name="Trazado 35858" d="M145.275,251.4c0,3.014,8.346,5.458,18.642,5.458s18.642-2.444,18.642-5.458-8.347-5.458-18.642-5.458-18.642,2.444-18.642,5.458" transform="translate(-106.476 -180.257)" fill="#fdc345"/>
          <path id="Trazado_35859" data-name="Trazado 35859" d="M161.224,255.145c-9.752,0-19.624-2.212-19.624-6.439s9.872-6.44,19.624-6.44,19.624,2.212,19.624,6.44-9.872,6.439-19.624,6.439m0-10.916c-10.781,0-17.66,2.652-17.66,4.477s6.88,4.476,17.66,4.476,17.661-2.651,17.661-4.476-6.88-4.477-17.661-4.477" transform="translate(-103.782 -177.563)" fill="#3d4451"/>
          <path id="Trazado_35860" data-name="Trazado 35860" d="M182.982,216.207v8.379c0,3.261-8.346,5.906-18.642,5.906s-18.642-2.644-18.642-5.906v-8.379" transform="translate(-106.786 -158.464)" fill="#fdc345"/>
          <path id="Trazado_35861" data-name="Trazado 35861" d="M161.538,231.513a46.51,46.51,0,0,1-13.49-1.777c-4.038-1.279-6.173-3.06-6.173-5.149v-8.379h2.042v8.379c0,2.04,6.7,4.885,17.621,4.885s17.621-2.845,17.621-4.885v-8.379H181.2v8.379c0,2.09-2.134,3.87-6.173,5.149a46.51,46.51,0,0,1-13.49,1.777" transform="translate(-103.984 -158.464)" fill="#3d4451"/>
          <path id="Trazado_35862" data-name="Trazado 35862" d="M145.7,201.392c0,3.014,8.346,5.458,18.642,5.458s18.642-2.444,18.642-5.458-8.346-5.458-18.642-5.458-18.642,2.444-18.642,5.458" transform="translate(-106.786 -143.605)" fill="#fdc345"/>
          <path id="Trazado_35863" data-name="Trazado 35863" d="M161.647,205.138c-9.752,0-19.624-2.212-19.624-6.439s9.872-6.44,19.624-6.44,19.624,2.212,19.624,6.44-9.872,6.439-19.624,6.439m0-10.916c-10.781,0-17.66,2.651-17.66,4.477s6.88,4.476,17.66,4.476,17.661-2.651,17.661-4.476-6.88-4.477-17.661-4.477" transform="translate(-104.093 -140.912)" fill="#3d4451"/>
          <path id="Trazado_35864" data-name="Trazado 35864" d="M165.654,45.129a17.034,17.034,0,1,1,17.033,17.1,17.064,17.064,0,0,1-17.033-17.1" transform="translate(-121.412 -20.547)" fill="#fdc345"/>
          <path id="Trazado_35865" data-name="Trazado 35865" d="M197.4,51.7v3.2h-2.155V51.789a12.036,12.036,0,0,1-5.579-1.358V46.343a8.6,8.6,0,0,0,2.553,1.284,11.773,11.773,0,0,0,3.026.679V42.934a11.409,11.409,0,0,1-4.716-2.782,5.48,5.48,0,0,1-1.262-3.653,5.364,5.364,0,0,1,1.638-3.948,6.885,6.885,0,0,1,4.339-1.9V27.909H197.4V30.6a10.942,10.942,0,0,1,4.649,1v3.985a11.159,11.159,0,0,0-4.649-1.535v5.594a11.849,11.849,0,0,1,4.635,2.665,5.11,5.11,0,0,1,1.4,3.623,5.214,5.214,0,0,1-1.565,3.948A7.469,7.469,0,0,1,197.4,51.7m-2.155-12.915V34.108q-2.052.369-2.051,2.14,0,1.52,2.051,2.538m2.155,4.989v4.472q2.111-.323,2.11-2.11,0-1.447-2.11-2.361" transform="translate(-138.718 -20.455)" fill="#3d4451"/>
          <path id="Trazado_35866" data-name="Trazado 35866" d="M159.143,41.164a20.582,20.582,0,1,1,20.582-20.582,20.605,20.605,0,0,1-20.582,20.582m0-39.061a18.479,18.479,0,1,0,18.479,18.479A18.5,18.5,0,0,0,159.143,2.1" transform="translate(-101.555)" fill="#3d4451"/>
          <path id="Trazado_35867" data-name="Trazado 35867" d="M170.275,48.241A16.526,16.526,0,1,1,186.8,31.715a16.545,16.545,0,0,1-16.526,16.526m0-31.85A15.324,15.324,0,1,0,185.6,31.715a15.341,15.341,0,0,0-15.324-15.324" transform="translate(-112.687 -11.132)" fill="#3d4451"/>
          <path id="Trazado_35868" data-name="Trazado 35868" d="M182.559,166.3v8.379c0,3.261-8.347,5.906-18.642,5.906s-18.642-2.644-18.642-5.906V166.3" transform="translate(-106.476 -121.887)" fill="#fdc345"/>
          <path id="Trazado_35869" data-name="Trazado 35869" d="M161.115,181.606a46.51,46.51,0,0,1-13.49-1.777c-4.038-1.279-6.173-3.06-6.173-5.149V166.3h2.042v8.379c0,2.04,6.7,4.885,17.621,4.885s17.621-2.845,17.621-4.885V166.3h2.042v8.379c0,2.09-2.134,3.87-6.173,5.149a46.5,46.5,0,0,1-13.49,1.777" transform="translate(-103.674 -121.886)" fill="#3d4451"/>
          <path id="Trazado_35870" data-name="Trazado 35870" d="M145.275,151.486c0,3.014,8.346,5.458,18.642,5.458s18.642-2.444,18.642-5.458-8.347-5.458-18.642-5.458-18.642,2.444-18.642,5.458" transform="translate(-106.476 -107.028)" fill="#fdc345"/>
          <path id="Trazado_35871" data-name="Trazado 35871" d="M161.224,155.232c-9.752,0-19.624-2.212-19.624-6.439s9.872-6.44,19.624-6.44,19.624,2.212,19.624,6.44-9.872,6.439-19.624,6.439m0-10.916c-10.781,0-17.66,2.652-17.66,4.477s6.88,4.476,17.66,4.476,17.661-2.651,17.661-4.476-6.88-4.477-17.661-4.477" transform="translate(-103.782 -104.334)" fill="#3d4451"/>
          <path id="Trazado_35872" data-name="Trazado 35872" d="M185.566,121.37v8.065c0,3.139-8.033,5.684-17.943,5.684s-17.943-2.545-17.943-5.684V121.37" transform="translate(-109.705 -88.955)" fill="#fdc345"/>
          <path id="Trazado_35873" data-name="Trazado 35873" d="M164.926,136.1a44.756,44.756,0,0,1-12.984-1.711c-3.887-1.231-5.941-2.945-5.941-4.956V121.37h1.966v8.065c0,1.963,6.452,4.7,16.96,4.7s16.96-2.738,16.96-4.7V121.37h1.965v8.065c0,2.011-2.054,3.725-5.941,4.956a44.756,44.756,0,0,1-12.984,1.711" transform="translate(-107.007 -88.955)" fill="#3d4451"/>
          <path id="Trazado_35874" data-name="Trazado 35874" d="M149.68,107.111c0,2.9,8.033,5.253,17.943,5.253s17.943-2.352,17.943-5.253-8.033-5.253-17.943-5.253-17.943,2.352-17.943,5.253" transform="translate(-109.705 -74.654)" fill="#fdc345"/>
          <path id="Trazado_35875" data-name="Trazado 35875" d="M165.03,110.718c-9.386,0-18.888-2.129-18.888-6.2s9.5-6.2,18.888-6.2,18.888,2.129,18.888,6.2-9.5,6.2-18.888,6.2m0-10.507c-10.376,0-17,2.552-17,4.309s6.622,4.308,17,4.308,17-2.552,17-4.308-6.622-4.309-17-4.309" transform="translate(-107.111 -72.063)" fill="#3d4451"/>
          <path id="Trazado_35876" data-name="Trazado 35876" d="M63.849,277.181v8.834c0,3.439-8.8,6.226-19.654,6.226s-19.654-2.788-19.654-6.226v-8.834" transform="translate(-17.987 -203.153)" fill="#fdc345"/>
          <path id="Trazado_35877" data-name="Trazado 35877" d="M41.241,293.317a49.025,49.025,0,0,1-14.223-1.874c-4.257-1.349-6.508-3.226-6.508-5.429v-8.834h2.153v8.834c0,2.15,7.068,5.15,18.578,5.15s18.578-3,18.578-5.15v-8.834h2.153v8.834c0,2.2-2.25,4.08-6.508,5.429a49.025,49.025,0,0,1-14.223,1.874" transform="translate(-15.033 -203.153)" fill="#3d4451"/>
          <path id="Trazado_35878" data-name="Trazado 35878" d="M24.541,261.562c0,3.178,8.8,5.754,19.654,5.754s19.654-2.576,19.654-5.754-8.8-5.754-19.654-5.754-19.654,2.576-19.654,5.754" transform="translate(-17.987 -187.489)" fill="#fdc345"/>
          <path id="Trazado_35879" data-name="Trazado 35879" d="M41.355,265.512c-10.281,0-20.689-2.332-20.689-6.789s10.408-6.789,20.689-6.789,20.689,2.332,20.689,6.789-10.408,6.789-20.689,6.789m0-11.509c-11.366,0-18.619,2.8-18.619,4.719s7.253,4.719,18.619,4.719,18.619-2.8,18.619-4.719S52.721,254,41.355,254" transform="translate(-15.147 -184.649)" fill="#3d4451"/>
          <path id="Trazado_35880" data-name="Trazado 35880" d="M308.375,276.391v8.379c0,3.262-8.346,5.906-18.642,5.906s-18.642-2.644-18.642-5.906v-8.379" transform="translate(-198.69 -202.574)" fill="#fdc345"/>
          <path id="Trazado_35881" data-name="Trazado 35881" d="M286.932,291.7a46.511,46.511,0,0,1-13.49-1.777c-4.038-1.279-6.173-3.06-6.173-5.149V276.39h2.042v8.379c0,2.04,6.7,4.885,17.621,4.885s17.621-2.845,17.621-4.885V276.39H306.6v8.379c0,2.09-2.134,3.87-6.173,5.149a46.509,46.509,0,0,1-13.49,1.777" transform="translate(-195.889 -202.574)" fill="#3d4451"/>
          <path id="Trazado_35882" data-name="Trazado 35882" d="M271.092,261.576c0,3.014,8.346,5.458,18.642,5.458s18.642-2.444,18.642-5.458-8.346-5.458-18.642-5.458-18.642,2.444-18.642,5.458" transform="translate(-198.691 -187.716)" fill="#fdc345"/>
          <path id="Trazado_35883" data-name="Trazado 35883" d="M287.041,265.322c-9.752,0-19.624-2.212-19.624-6.439s9.872-6.44,19.624-6.44,19.623,2.212,19.623,6.44-9.872,6.439-19.623,6.439m0-10.916c-10.781,0-17.661,2.652-17.661,4.477s6.88,4.476,17.661,4.476,17.66-2.651,17.66-4.476-6.88-4.477-17.66-4.477" transform="translate(-195.997 -185.022)" fill="#3d4451"/>
        </g>
      </g>
    </g>
  </g>
</svg>
