<svg xmlns="http://www.w3.org/2000/svg" xmlns:xlink="http://www.w3.org/1999/xlink" width="63" height="63" viewBox="0 0 63 63">
  <defs>
    <clipPath id="clip-path">
      <rect id="Rectángulo_3836" data-name="Rectángulo 3836" width="43.759" height="33.132" fill="none"/>
    </clipPath>
  </defs>
  <g id="Grupo_17477" data-name="Grupo 17477" transform="translate(-546 -6918)">
    <g id="Grupo_17462" data-name="Grupo 17462">
      <g id="Elipse_956" data-name="Elipse 956" transform="translate(546 6918)" fill="#fff" stroke="#472ea6" stroke-width="1">
        <circle cx="31.5" cy="31.5" r="31.5" stroke="none"/>
        <circle cx="31.5" cy="31.5" r="31" fill="none"/>
      </g>
      <g id="Grupo_12405" data-name="Grupo 12405" transform="translate(553.834 6932)">
        <g id="Grupo_12404" data-name="Grupo 12404" clip-path="url(#clip-path)">
          <path id="Trazado_36572" data-name="Trazado 36572" d="M143.224,109.694H119.175a2.829,2.829,0,0,1-2.829-2.829V87.378a2.829,2.829,0,0,1,2.829-2.829h27.289a2.829,2.829,0,0,1,2.829,2.829v16.245a6.07,6.07,0,0,1-6.071,6.07" transform="translate(-106.151 -77.14)" fill="#c7ddeb"/>
          <rect id="Rectángulo_3830" data-name="Rectángulo 3830" width="5.106" height="22.543" transform="translate(34.955 7.409)" fill="#7eb9c7"/>
          <path id="Trazado_36573" data-name="Trazado 36573" d="M109.826,70.366H75.791V43.609h34.035ZM76.947,69.21H108.67V44.765H76.947Z" transform="translate(-69.149 -39.788)" fill="#3d4451"/>
          <path id="Trazado_36574" data-name="Trazado 36574" d="M425.418,46.92h-.776a2.724,2.724,0,0,1-2.716-2.716V21.166a2.724,2.724,0,0,1,2.716-2.716h.776a2.724,2.724,0,0,1,2.716,2.716V44.2a2.724,2.724,0,0,1-2.716,2.716" transform="translate(-384.953 -16.833)" fill="#c7ddeb"/>
          <path id="Trazado_36575" data-name="Trazado 36575" d="M419.4,41.48h-.776a3.3,3.3,0,0,1-3.294-3.294V15.148a3.3,3.3,0,0,1,3.294-3.294h.776a3.3,3.3,0,0,1,3.294,3.294V38.186A3.3,3.3,0,0,1,419.4,41.48m-.776-28.47a2.14,2.14,0,0,0-2.138,2.138V38.186a2.14,2.14,0,0,0,2.138,2.137h.776a2.14,2.14,0,0,0,2.138-2.137V15.148A2.14,2.14,0,0,0,419.4,13.01Z" transform="translate(-378.934 -10.815)" fill="#3d4451"/>
          <path id="Trazado_36576" data-name="Trazado 36576" d="M427.689,279.335a3.132,3.132,0,1,1-3.125-2.933,3.034,3.034,0,0,1,3.125,2.933" transform="translate(-384.507 -252.181)" fill="#c7ddeb"/>
          <path id="Trazado_36577" data-name="Trazado 36577" d="M418.544,276.827a3.516,3.516,0,1,1,3.7-3.511,3.615,3.615,0,0,1-3.7,3.511m0-5.865a2.362,2.362,0,1,0,2.547,2.354,2.459,2.459,0,0,0-2.547-2.354" transform="translate(-378.488 -246.163)" fill="#3d4451"/>
          <path id="Trazado_36578" data-name="Trazado 36578" d="M432.042,284.343h-.032a2.2,2.2,0,1,0,0,4.388h.032Z" transform="translate(-392.02 -259.425)" fill="#7eb9c7"/>
          <path id="Trazado_36579" data-name="Trazado 36579" d="M41.546,189.128a4.02,4.02,0,1,0-3.8-3.807,4.02,4.02,0,0,0,3.8,3.807" transform="translate(-34.431 -165.225)" fill="#f5fafc"/>
          <path id="Trazado_36580" data-name="Trazado 36580" d="M19.022,286.324a1.324,1.324,0,0,0,1.3-1.585c-.693-3.488-3.536-6.61-6.943-6.614s-6.256,3.113-6.956,6.6a1.324,1.324,0,0,0,1.294,1.588Z" transform="translate(-5.834 -253.753)" fill="#f5fafc"/>
          <path id="Trazado_36581" data-name="Trazado 36581" d="M54.6,193.725a3.825,3.825,0,1,0-3.449-3.619,3.737,3.737,0,0,0,3.449,3.619" transform="translate(-46.663 -169.781)" fill="#3d4451"/>
          <path id="Trazado_36582" data-name="Trazado 36582" d="M35.112,291.318a1.294,1.294,0,0,0,1.177-1.585c-.628-3.488-3.206-6.61-6.3-6.613s-5.674,3.114-6.309,6.6a1.294,1.294,0,0,0,1.173,1.588Z" transform="translate(-21.586 -258.309)" fill="#3d4451"/>
          <path id="Trazado_36583" data-name="Trazado 36583" d="M36.355,184.255q-.116,0-.232-.006h0a4.546,4.546,0,1,1,.233.006m-.179-1.042a3.5,3.5,0,1,0-3.312-3.315,3.511,3.511,0,0,0,3.312,3.315Z" transform="translate(-29.034 -159.828)" fill="#3d4451"/>
          <path id="Trazado_36584" data-name="Trazado 36584" d="M13.625,281.444h0l-11.307-.012a1.842,1.842,0,0,1-1.8-2.209,9.578,9.578,0,0,1,2.606-4.875,6.945,6.945,0,0,1,4.852-2.141h.006a6.944,6.944,0,0,1,4.854,2.151,9.578,9.578,0,0,1,2.6,4.88,1.842,1.842,0,0,1-1.8,2.2m0-1.037h0a.8.8,0,0,0,.619-.292.808.808,0,0,0,.168-.673,8.529,8.529,0,0,0-2.311-4.347,5.918,5.918,0,0,0-4.124-1.849H7.973a5.918,5.918,0,0,0-4.122,1.841,8.531,8.531,0,0,0-2.32,4.342.809.809,0,0,0,.167.674.8.8,0,0,0,.619.294Z" transform="translate(-0.436 -248.354)" fill="#3d4451"/>
          <path id="Trazado_36585" data-name="Trazado 36585" d="M35.918,183.862q-.117,0-.235-.006h0a4.591,4.591,0,1,1,.235.006m-.177-1.125a3.459,3.459,0,1,0-3.272-3.276,3.469,3.469,0,0,0,3.272,3.276Z" transform="translate(-28.597 -159.394)" fill="#3d4451"/>
          <path id="Trazado_36586" data-name="Trazado 36586" d="M13.189,281.05h0L1.88,281.038A1.884,1.884,0,0,1,.038,278.78a9.619,9.619,0,0,1,2.618-4.9,6.986,6.986,0,0,1,4.881-2.153h.006a6.986,6.986,0,0,1,4.884,2.164,9.619,9.619,0,0,1,2.608,4.9,1.884,1.884,0,0,1-1.845,2.255m0-1.121h0a.756.756,0,0,0,.586-.277.766.766,0,0,0,.159-.639,8.485,8.485,0,0,0-2.3-4.326,5.876,5.876,0,0,0-4.094-1.837h0a5.877,5.877,0,0,0-4.092,1.829A8.488,8.488,0,0,0,1.136,279a.766.766,0,0,0,.158.639.756.756,0,0,0,.587.278Z" transform="translate(0 -247.918)" fill="#3d4451"/>
          <path id="Trazado_36587" data-name="Trazado 36587" d="M83.466,298.954l1.006-4.525-.922-2.011h2.765l-1.006,2.011,1.173,4.525Z" transform="translate(-76.152 -266.793)" fill="#f04f4c"/>
          <rect id="Rectángulo_3831" data-name="Rectángulo 3831" width="0.576" height="5.879" transform="translate(23.631 16.437)" fill="#3d4451"/>
          <path id="Trazado_36588" data-name="Trazado 36588" d="M282.83,210.47h-.576v-4.06H274.76v-.576h8.07Z" transform="translate(-250.683 -187.796)" fill="#3d4451"/>
          <path id="Trazado_36589" data-name="Trazado 36589" d="M347.218,256.4a1.445,1.445,0,1,1,1.445,1.445,1.445,1.445,0,0,1-1.445-1.445" transform="translate(-316.791 -232.612)" fill="#fdc345"/>
          <path id="Trazado_36590" data-name="Trazado 36590" d="M345.7,255.161a1.73,1.73,0,1,1,1.73-1.73,1.732,1.732,0,0,1-1.73,1.73m0-2.89a1.16,1.16,0,1,0,1.16,1.16,1.161,1.161,0,0,0-1.16-1.16" transform="translate(-313.823 -229.644)" fill="#3d4451"/>
          <path id="Trazado_36591" data-name="Trazado 36591" d="M177.2,241.778h-2.218l-1.109,1.921,1.109,1.921H177.2l1.109-1.921Z" transform="translate(-158.64 -220.591)" fill="#7eb9c7"/>
          <path id="Trazado_36592" data-name="Trazado 36592" d="M173.9,242.908h-2.551l-1.275-2.209,1.275-2.209H173.9l1.275,2.209Zm-2.218-.576h1.885l.943-1.633-.943-1.632h-1.885l-.943,1.632Z" transform="translate(-155.175 -217.591)" fill="#3d4451"/>
          <path id="Trazado_36593" data-name="Trazado 36593" d="M263.933,178.024h-1.27v-.653h.617v-.617h.653Z" transform="translate(-239.646 -161.265)" fill="#1e3033"/>
          <path id="Trazado_36594" data-name="Trazado 36594" d="M174.062,184.444h-1.871v-.653h1.871Zm-2.807,0h-1.871v-.653h1.871Zm-2.807,0h-1.871v-.653h1.871Z" transform="translate(-151.981 -167.685)" fill="#1e3033"/>
          <path id="Trazado_36595" data-name="Trazado 36595" d="M142.683,178.024h-1.27v-1.27h.653v.617h.617Z" transform="translate(-129.021 -161.265)" fill="#1e3033"/>
          <path id="Trazado_36596" data-name="Trazado 36596" d="M142.066,126.609h-.653v-1.58h.653Zm0-2.37h-.653v-1.58h.653Z" transform="translate(-129.021 -111.91)" fill="#1e3033"/>
          <path id="Trazado_36597" data-name="Trazado 36597" d="M142.066,100.423h-.653v-1.27h1.27v.653h-.617Z" transform="translate(-129.021 -90.465)" fill="#1e3033"/>
          <path id="Trazado_36598" data-name="Trazado 36598" d="M174.062,99.807h-1.871v-.653h1.871Zm-2.807,0h-1.871v-.653h1.871Zm-2.807,0h-1.871v-.653h1.871Z" transform="translate(-151.981 -90.465)" fill="#1e3033"/>
          <path id="Trazado_36599" data-name="Trazado 36599" d="M263.933,100.423h-.653v-.617h-.617v-.653h1.27Z" transform="translate(-239.646 -90.465)" fill="#1e3033"/>
          <path id="Trazado_36600" data-name="Trazado 36600" d="M270.354,126.609H269.7v-1.58h.653Zm0-2.37H269.7v-1.58h.653Z" transform="translate(-246.067 -111.91)" fill="#1e3033"/>
          <path id="Trazado_36601" data-name="Trazado 36601" d="M257.715,257.2h-2.146a1.306,1.306,0,1,1,0-2.612h2.146a1.306,1.306,0,1,1,0,2.612" transform="translate(-231.982 -232.279)" fill="#50ce42"/>
          <path id="Trazado_36602" data-name="Trazado 36602" d="M255.241,254.965H253.1a1.544,1.544,0,0,1,0-3.087h2.146a1.544,1.544,0,0,1,0,3.087m-2.146-2.612a1.069,1.069,0,1,0,0,2.137h2.146a1.069,1.069,0,0,0,0-2.137Z" transform="translate(-229.508 -229.806)" fill="#3d4451"/>
          <rect id="Rectángulo_3832" data-name="Rectángulo 3832" width="0.576" height="4.633" transform="translate(17.305 16.554)" fill="#3d4451"/>
          <path id="Trazado_36603" data-name="Trazado 36603" d="M309,104.963l1,2.047,2.254.335-1.637,1.585.378,2.247-2.013-1.067-2.02,1.053.393-2.244-1.626-1.6,2.256-.32Z" transform="translate(-278.942 -95.765)" fill="#f04f4c"/>
          <path id="Trazado_36604" data-name="Trazado 36604" d="M303.864,103.816l-2.463-1.305-2.472,1.289.48-2.746L297.42,99.1l2.76-.392,1.242-2.5,1.225,2.5,2.757.41-2,1.939Zm-2.46-2.072,1.563.829-.293-1.745,1.271-1.231-1.75-.26-.778-1.589-.788,1.584-1.752.249,1.263,1.239-.3,1.743Z" transform="translate(-271.357 -87.783)" fill="#3d4451"/>
          <rect id="Rectángulo_3833" data-name="Rectángulo 3833" width="6.704" height="4.7" transform="translate(14.84 10.425)" fill="#7eb9c7"/>
          <path id="Trazado_36605" data-name="Trazado 36605" d="M327.15,28.073l5.805,1.8-5.805,1.8" transform="translate(-298.482 -25.613)" fill="#f2f2f2"/>
          <path id="Trazado_36606" data-name="Trazado 36606" d="M325.817,27.365l-.283-.915,4.329-1.341-4.329-1.341.283-.915,5.805,1.8a.479.479,0,0,1,0,.915Z" transform="translate(-297.007 -20.851)" fill="#3d4451"/>
          <rect id="Rectángulo_3834" data-name="Rectángulo 3834" width="23.546" height="2.75" transform="translate(5.269 3.449)" fill="#7eb9c7"/>
          <path id="Trazado_36607" data-name="Trazado 36607" d="M79.839,27.565H56.313a.389.389,0,0,1-.389-.389v-3.6a.389.389,0,0,1,.389-.389H79.839a.389.389,0,0,1,.389.389v3.6a.389.389,0,0,1-.389.389M56.7,26.788H79.45V23.969H56.7Z" transform="translate(-51.023 -21.16)" fill="#3d4451"/>
          <path id="Trazado_36608" data-name="Trazado 36608" d="M105.529,2.683V.5c0-.276.332-.5.741-.5h8.974c.409,0,.741.223.741.5V.613c0,.276-.332.5-.741.5h-7.49c-.409,0-.741.223-.741.5V2.683" transform="translate(-96.281)" fill="#3d4451"/>
          <rect id="Rectángulo_3835" data-name="Rectángulo 3835" width="0.782" height="3.9" transform="translate(9.296 2.299)" fill="#3d4451"/>
        </g>
      </g>
    </g>
  </g>
</svg>
