<svg xmlns="http://www.w3.org/2000/svg" width="1076" height="958.5" viewBox="0 0 1076 958.5">
  <g id="Grupo_17469" data-name="Grupo 17469" transform="translate(-422 -3420)">
    <path id="Trazado_36856" data-name="Trazado 36856" d="M0,0H72V152H0Z" transform="translate(503 3757)" fill="#fec02d"/>
    <path id="Trazado_36853" data-name="Trazado 36853" d="M0,0H239V104H0Z" transform="translate(422 3420)" fill="#fd0d1b"/>
    <path id="Trazado_36854" data-name="Trazado 36854" d="M5.862.176A6.136,6.136,0,0,1,2.338-.8,3.9,3.9,0,0,1,.624-3.516L3.349-4.14a2.314,2.314,0,0,0,.839,1.6,2.785,2.785,0,0,0,1.78.558,2.3,2.3,0,0,0,1.389-.391,1.319,1.319,0,0,0,.527-1.156,1.233,1.233,0,0,0-.448-.94,2.929,2.929,0,0,0-.892-.576q-.444-.171-1.428-.47-.132-.044-.193-.062-.5-.158-.809-.264t-.76-.294A5.063,5.063,0,0,1,2.615-6.5,5.405,5.405,0,0,1,2-6.957a2.394,2.394,0,0,1-.51-.584,3.1,3.1,0,0,1-.308-.729,3.219,3.219,0,0,1-.123-.905,3.4,3.4,0,0,1,.593-2,3.633,3.633,0,0,1,1.6-1.274,5.822,5.822,0,0,1,2.29-.426,7.233,7.233,0,0,1,1.657.185,5.8,5.8,0,0,1,1.481.567,3.628,3.628,0,0,1,1.182,1.046,3.933,3.933,0,0,1,.672,1.542L7.989-8.9A2.065,2.065,0,0,0,5.7-10.723a2.5,2.5,0,0,0-1.415.369,1.251,1.251,0,0,0-.554,1.116q0,.694.923,1.125a13.752,13.752,0,0,0,1.767.606q.519.158.844.264t.817.308a5.68,5.68,0,0,1,.8.391,5.918,5.918,0,0,1,.668.488,2.627,2.627,0,0,1,.567.633,3.422,3.422,0,0,1,.347.787,3.288,3.288,0,0,1,.141.98,3.85,3.85,0,0,1-.255,1.433,3.118,3.118,0,0,1-.7,1.081A4.058,4.058,0,0,1,8.6-.4,5.1,5.1,0,0,1,7.313.04,7.431,7.431,0,0,1,5.862.176ZM14-10.389a1.421,1.421,0,0,1-1.037-.426,1.4,1.4,0,0,1-.431-1.033,1.382,1.382,0,0,1,.435-1.024A1.425,1.425,0,0,1,14-13.3a1.4,1.4,0,0,1,1.02.426,1.389,1.389,0,0,1,.431,1.024,1.4,1.4,0,0,1-.431,1.033A1.4,1.4,0,0,1,14-10.389ZM12.709,0V-9.035h2.549V0Zm8.35.176a5.049,5.049,0,0,1-2.637-.633A2.675,2.675,0,0,1,17.13-2.338l2.118-.6a1.7,1.7,0,0,0,1.811,1.345,1.87,1.87,0,0,0,.923-.207.719.719,0,0,0,.36-.7.739.739,0,0,0-.149-.466,1.183,1.183,0,0,0-.461-.334,5.749,5.749,0,0,0-.615-.237q-.3-.1-.8-.233t-.835-.259a5.593,5.593,0,0,1-.8-.338,3.393,3.393,0,0,1-.659-.466,1.878,1.878,0,0,1-.492-.708,2.552,2.552,0,0,1-.171-.967,2.308,2.308,0,0,1,.98-2.021A4.379,4.379,0,0,1,20.9-9.211a4.489,4.489,0,0,1,2.364.58A2.625,2.625,0,0,1,24.478-6.82l-1.96.439a1.535,1.535,0,0,0-1.608-1.143,1.761,1.761,0,0,0-.888.2.649.649,0,0,0-.352.6.685.685,0,0,0,.053.272.539.539,0,0,0,.185.22,2.692,2.692,0,0,0,.255.167,1.923,1.923,0,0,0,.36.145q.237.075.4.114l.461.119.47.123q.483.132.848.264a4.967,4.967,0,0,1,.778.369,2.792,2.792,0,0,1,.681.532,2.372,2.372,0,0,1,.444.747,2.759,2.759,0,0,1,.176,1.006,2.718,2.718,0,0,1-.3,1.31,2.276,2.276,0,0,1-.831.883,4.043,4.043,0,0,1-1.173.475A6.087,6.087,0,0,1,21.059.176ZM29.962,0a2.729,2.729,0,0,1-2.039-.734A2.854,2.854,0,0,1,27.2-2.821V-7.093H25.427V-9.035H26a1.491,1.491,0,0,0,1.125-.378,1.946,1.946,0,0,0,.36-1.345v-1.2h2.285v2.918h1.863v1.942H29.769v4q0,1.169,1.046,1.169h.817V0ZM42.056-4.649l-.026.606h-6.7a2.339,2.339,0,0,0,.721,1.652,2.3,2.3,0,0,0,1.591.571,2.221,2.221,0,0,0,1.191-.312,1.918,1.918,0,0,0,.76-.91l2.32.343A3.945,3.945,0,0,1,40.333-.58a4.7,4.7,0,0,1-2.672.756,4.891,4.891,0,0,1-3.52-1.244,4.538,4.538,0,0,1-1.305-3.45,4.565,4.565,0,0,1,1.31-3.45,4.746,4.746,0,0,1,3.437-1.261,4.536,4.536,0,0,1,3.243,1.151A4.517,4.517,0,0,1,42.056-4.649ZM37.6-7.436A2,2,0,0,0,35.4-5.7h4.148a1.9,1.9,0,0,0-.624-1.292A1.978,1.978,0,0,0,37.6-7.436ZM54.686-9.211a3.452,3.452,0,0,1,2.329.734,2.626,2.626,0,0,1,.853,2.1V0H55.336V-5.651a1.509,1.509,0,0,0-.4-1.143,1.416,1.416,0,0,0-1.02-.387,1.633,1.633,0,0,0-1.23.492A2.235,2.235,0,0,0,52.207-5.1V0H49.649V-5.625a1.549,1.549,0,0,0-.4-1.165A1.441,1.441,0,0,0,48.2-7.181a1.581,1.581,0,0,0-1.222.519,2.476,2.476,0,0,0-.475,1.7V0H43.98V-9.035H46.5v1.063a3.072,3.072,0,0,1,2.619-1.239,3.863,3.863,0,0,1,1.7.347,2.315,2.315,0,0,1,1.068,1.006A3.2,3.2,0,0,1,54.686-9.211ZM67.737-2.452a8.453,8.453,0,0,0,.22,2.206V0H65.593l-.2-.984a2.938,2.938,0,0,1-1.266.87,4.664,4.664,0,0,1-1.635.29A4.3,4.3,0,0,1,61.646.1a2.868,2.868,0,0,1-.76-.268,2.307,2.307,0,0,1-.628-.47,2.062,2.062,0,0,1-.422-.716,2.853,2.853,0,0,1-.158-.98,2.718,2.718,0,0,1,.167-.98,2.3,2.3,0,0,1,.439-.734A2.666,2.666,0,0,1,61-4.588a5.447,5.447,0,0,1,.9-.387,10.712,10.712,0,0,1,1.072-.281L64.45-5.59a1.638,1.638,0,0,0,.672-.286.57.57,0,0,0,.2-.453.932.932,0,0,0-.444-.87A2.072,2.072,0,0,0,63.8-7.462a1.549,1.549,0,0,0-1.767,1.38l-2.241-.4A3.034,3.034,0,0,1,61.1-8.547a5.2,5.2,0,0,1,2.839-.664q3.8,0,3.8,3.261Zm-4.456.914a2.036,2.036,0,0,0,1.564-.655,2.759,2.759,0,0,0,.606-1.938l-2.145.606a2.534,2.534,0,0,0-.9.369.758.758,0,0,0-.312.65.842.842,0,0,0,.334.716A1.382,1.382,0,0,0,63.281-1.538Zm19-.914A8.453,8.453,0,0,0,82.5-.246V0H80.139l-.2-.984a2.938,2.938,0,0,1-1.266.87,4.664,4.664,0,0,1-1.635.29A4.3,4.3,0,0,1,76.192.1a2.868,2.868,0,0,1-.76-.268,2.307,2.307,0,0,1-.628-.47,2.062,2.062,0,0,1-.422-.716,2.853,2.853,0,0,1-.158-.98,2.718,2.718,0,0,1,.167-.98,2.3,2.3,0,0,1,.439-.734,2.666,2.666,0,0,1,.712-.536,5.447,5.447,0,0,1,.9-.387,10.712,10.712,0,0,1,1.072-.281L79-5.59a1.638,1.638,0,0,0,.672-.286.57.57,0,0,0,.2-.453.932.932,0,0,0-.444-.87,2.072,2.072,0,0,0-1.077-.264,1.549,1.549,0,0,0-1.767,1.38l-2.241-.4a3.034,3.034,0,0,1,1.31-2.061,5.2,5.2,0,0,1,2.839-.664q3.8,0,3.8,3.261Zm-4.456.914a2.036,2.036,0,0,0,1.564-.655A2.759,2.759,0,0,0,80-4.131l-2.145.606a2.534,2.534,0,0,0-.9.369.758.758,0,0,0-.312.65.842.842,0,0,0,.334.716A1.382,1.382,0,0,0,77.827-1.538ZM87.17-7.6a2.933,2.933,0,0,1,1.187-1.085,3.62,3.62,0,0,1,1.767-.453v2.259a3.423,3.423,0,0,0-2.162.545A2.379,2.379,0,0,0,87.293-4.4V0H84.744V-9.035H87.17Zm15.144-1.608a3.452,3.452,0,0,1,2.329.734,2.626,2.626,0,0,1,.853,2.1V0h-2.531V-5.651a1.509,1.509,0,0,0-.4-1.143,1.416,1.416,0,0,0-1.02-.387,1.633,1.633,0,0,0-1.23.492A2.235,2.235,0,0,0,99.835-5.1V0H97.277V-5.625a1.549,1.549,0,0,0-.4-1.165,1.441,1.441,0,0,0-1.046-.391,1.581,1.581,0,0,0-1.222.519,2.476,2.476,0,0,0-.475,1.7V0H91.608V-9.035h2.522v1.063A3.072,3.072,0,0,1,96.75-9.211a3.863,3.863,0,0,1,1.7.347,2.315,2.315,0,0,1,1.068,1.006A3.2,3.2,0,0,1,102.313-9.211ZM112.166.176a5.681,5.681,0,0,1-2.558-.554A4.138,4.138,0,0,1,107.855-2a4.846,4.846,0,0,1-.637-2.522,4.42,4.42,0,0,1,1.371-3.428,5.086,5.086,0,0,1,3.577-1.257,5.1,5.1,0,0,1,3.586,1.257,4.42,4.42,0,0,1,1.371,3.428,4.444,4.444,0,0,1-1.371,3.441A5.088,5.088,0,0,1,112.166.176Zm-.026-2.013a2.319,2.319,0,0,0,1.789-.738,2.764,2.764,0,0,0,.681-1.951,2.764,2.764,0,0,0-.681-1.951,2.319,2.319,0,0,0-1.789-.738,2.234,2.234,0,0,0-1.736.743,2.789,2.789,0,0,0-.672,1.947A2.789,2.789,0,0,0,110.4-2.58,2.234,2.234,0,0,0,112.14-1.837Zm12.2-7.374a3.522,3.522,0,0,1,2.5.813,3.014,3.014,0,0,1,.87,2.316V0h-2.54V-5.537a1.574,1.574,0,0,0-.453-1.248,1.705,1.705,0,0,0-1.165-.4,2.379,2.379,0,0,0-.756.114,1.942,1.942,0,0,0-.633.356,1.573,1.573,0,0,0-.453.681,3.15,3.15,0,0,0-.171,1.046V0H119V-9.035h2.531v1A3.481,3.481,0,0,1,124.339-9.211Zm7.11-1.178a1.421,1.421,0,0,1-1.037-.426,1.4,1.4,0,0,1-.431-1.033,1.382,1.382,0,0,1,.435-1.024,1.425,1.425,0,0,1,1.033-.426,1.4,1.4,0,0,1,1.02.426,1.389,1.389,0,0,1,.431,1.024,1.4,1.4,0,0,1-.431,1.033A1.4,1.4,0,0,1,131.449-10.389ZM130.157,0V-9.035h2.549V0Zm11.76-9.035-3.973,7.084h3.85V0H134.35L138.3-7.084h-3.647V-9.035Zm8.833,6.583a8.453,8.453,0,0,0,.22,2.206V0h-2.364l-.2-.984a2.938,2.938,0,0,1-1.266.87,4.664,4.664,0,0,1-1.635.29A4.3,4.3,0,0,1,144.659.1a2.868,2.868,0,0,1-.76-.268,2.307,2.307,0,0,1-.628-.47,2.062,2.062,0,0,1-.422-.716,2.853,2.853,0,0,1-.158-.98,2.718,2.718,0,0,1,.167-.98,2.3,2.3,0,0,1,.439-.734,2.666,2.666,0,0,1,.712-.536,5.447,5.447,0,0,1,.9-.387,10.712,10.712,0,0,1,1.072-.281l1.485-.334a1.638,1.638,0,0,0,.672-.286.57.57,0,0,0,.2-.453.932.932,0,0,0-.444-.87,2.072,2.072,0,0,0-1.077-.264,1.549,1.549,0,0,0-1.767,1.38l-2.241-.4a3.034,3.034,0,0,1,1.31-2.061,5.2,5.2,0,0,1,2.839-.664q3.8,0,3.8,3.261Zm-4.456.914a2.036,2.036,0,0,0,1.564-.655,2.759,2.759,0,0,0,.606-1.938l-2.145.606a2.534,2.534,0,0,0-.9.369.758.758,0,0,0-.312.65.842.842,0,0,0,.334.716A1.382,1.382,0,0,0,146.294-1.538ZM159.416-13.5h2.531V0h-2.4l-.062-1.178a2.58,2.58,0,0,1-1.147,1.024,3.861,3.861,0,0,1-1.692.365,4.394,4.394,0,0,1-1.687-.325,4.189,4.189,0,0,1-1.384-.918,4.187,4.187,0,0,1-.936-1.49A5.5,5.5,0,0,1,152.3-4.5a5.137,5.137,0,0,1,.6-2.518,4.1,4.1,0,0,1,1.578-1.639,4.345,4.345,0,0,1,2.175-.554,3.957,3.957,0,0,1,1.639.33,2.559,2.559,0,0,1,1.129.936ZM157.228-1.89a2.253,2.253,0,0,0,1.709-.721,2.638,2.638,0,0,0,.681-1.89,2.644,2.644,0,0,0-.686-1.894,2.251,2.251,0,0,0-1.705-.725,2.277,2.277,0,0,0-1.718.712,2.644,2.644,0,0,0-.681,1.907,2.631,2.631,0,0,0,.681,1.9A2.277,2.277,0,0,0,157.228-1.89ZM168.776.176a5.681,5.681,0,0,1-2.558-.554A4.138,4.138,0,0,1,164.465-2a4.846,4.846,0,0,1-.637-2.522A4.42,4.42,0,0,1,165.2-7.954a5.086,5.086,0,0,1,3.577-1.257,5.1,5.1,0,0,1,3.586,1.257,4.42,4.42,0,0,1,1.371,3.428,4.444,4.444,0,0,1-1.371,3.441A5.088,5.088,0,0,1,168.776.176Zm-.026-2.013a2.319,2.319,0,0,0,1.789-.738,2.764,2.764,0,0,0,.681-1.951,2.764,2.764,0,0,0-.681-1.951,2.319,2.319,0,0,0-1.789-.738,2.234,2.234,0,0,0-1.736.743,2.789,2.789,0,0,0-.672,1.947,2.789,2.789,0,0,0,.672,1.947A2.234,2.234,0,0,0,168.75-1.837Z" transform="translate(450 3478)" fill="#fff"/>
    <path id="Trazado_36704" data-name="Trazado 36704" d="M6458,2154h164.524v77.406H6757" transform="translate(-5797 1318)" fill="none" stroke="#ff8f00" stroke-width="2"/>
    <path id="Trazado_36857" data-name="Trazado 36857" d="M0,0H217V104H0Z" transform="translate(960 3497)" fill="#4f81bd"/>
    <path id="Trazado_36858" data-name="Trazado 36858" d="M10.318-12.7h2.628V0H9.9L4.271-9.079V0H1.644V-12.7H4.658l5.66,9.026ZM23.256-2.452a8.453,8.453,0,0,0,.22,2.206V0H21.111l-.2-.984a2.938,2.938,0,0,1-1.266.87,4.664,4.664,0,0,1-1.635.29A4.3,4.3,0,0,1,17.165.1a2.868,2.868,0,0,1-.76-.268,2.307,2.307,0,0,1-.628-.47,2.062,2.062,0,0,1-.422-.716,2.853,2.853,0,0,1-.158-.98,2.718,2.718,0,0,1,.167-.98,2.3,2.3,0,0,1,.439-.734,2.666,2.666,0,0,1,.712-.536,5.447,5.447,0,0,1,.9-.387,10.712,10.712,0,0,1,1.072-.281l1.485-.334a1.638,1.638,0,0,0,.672-.286.57.57,0,0,0,.2-.453A.932.932,0,0,0,20.4-7.2a2.072,2.072,0,0,0-1.077-.264,1.549,1.549,0,0,0-1.767,1.38l-2.241-.4a3.034,3.034,0,0,1,1.31-2.061,5.2,5.2,0,0,1,2.839-.664q3.8,0,3.8,3.261ZM18.8-1.538a2.036,2.036,0,0,0,1.564-.655,2.759,2.759,0,0,0,.606-1.938l-2.145.606a2.534,2.534,0,0,0-.9.369.758.758,0,0,0-.312.65.842.842,0,0,0,.334.716A1.382,1.382,0,0,0,18.8-1.538ZM31.052-9.211a3.522,3.522,0,0,1,2.5.813,3.014,3.014,0,0,1,.87,2.316V0h-2.54V-5.537a1.574,1.574,0,0,0-.453-1.248,1.705,1.705,0,0,0-1.165-.4,2.379,2.379,0,0,0-.756.114,1.942,1.942,0,0,0-.633.356,1.573,1.573,0,0,0-.453.681,3.15,3.15,0,0,0-.171,1.046V0H25.717V-9.035h2.531v1A3.481,3.481,0,0,1,31.052-9.211ZM43.277-13.5h2.531V0h-2.4l-.062-1.178A2.58,2.58,0,0,1,42.2-.154a3.861,3.861,0,0,1-1.692.365,4.394,4.394,0,0,1-1.687-.325,4.189,4.189,0,0,1-1.384-.918,4.187,4.187,0,0,1-.936-1.49A5.5,5.5,0,0,1,36.158-4.5a5.137,5.137,0,0,1,.6-2.518,4.1,4.1,0,0,1,1.578-1.639,4.345,4.345,0,0,1,2.175-.554,3.957,3.957,0,0,1,1.639.33,2.559,2.559,0,0,1,1.129.936ZM41.089-1.89A2.253,2.253,0,0,0,42.8-2.61a2.638,2.638,0,0,0,.681-1.89,2.644,2.644,0,0,0-.686-1.894,2.251,2.251,0,0,0-1.705-.725,2.277,2.277,0,0,0-1.718.712A2.644,2.644,0,0,0,38.689-4.5a2.631,2.631,0,0,0,.681,1.9A2.277,2.277,0,0,0,41.089-1.89Zm8.631-8.5a1.421,1.421,0,0,1-1.037-.426,1.4,1.4,0,0,1-.431-1.033,1.382,1.382,0,0,1,.435-1.024A1.425,1.425,0,0,1,49.72-13.3a1.4,1.4,0,0,1,1.02.426,1.389,1.389,0,0,1,.431,1.024,1.4,1.4,0,0,1-.431,1.033A1.4,1.4,0,0,1,49.72-10.389ZM48.428,0V-9.035h2.549V0Zm10.5-9.211a3.522,3.522,0,0,1,2.5.813,3.014,3.014,0,0,1,.87,2.316V0h-2.54V-5.537A1.574,1.574,0,0,0,59.3-6.785a1.705,1.705,0,0,0-1.165-.4,2.379,2.379,0,0,0-.756.114,1.942,1.942,0,0,0-.633.356,1.573,1.573,0,0,0-.453.681,3.15,3.15,0,0,0-.171,1.046V0H53.6V-9.035h2.531v1A3.481,3.481,0,0,1,58.931-9.211ZM72.158-2.452a8.453,8.453,0,0,0,.22,2.206V0H70.014l-.2-.984a2.938,2.938,0,0,1-1.266.87,4.664,4.664,0,0,1-1.635.29A4.3,4.3,0,0,1,66.067.1a2.868,2.868,0,0,1-.76-.268,2.307,2.307,0,0,1-.628-.47,2.062,2.062,0,0,1-.422-.716,2.853,2.853,0,0,1-.158-.98,2.718,2.718,0,0,1,.167-.98,2.3,2.3,0,0,1,.439-.734,2.666,2.666,0,0,1,.712-.536,5.447,5.447,0,0,1,.9-.387,10.712,10.712,0,0,1,1.072-.281l1.485-.334a1.638,1.638,0,0,0,.672-.286.57.57,0,0,0,.2-.453A.932.932,0,0,0,69.3-7.2a2.072,2.072,0,0,0-1.077-.264,1.549,1.549,0,0,0-1.767,1.38l-2.241-.4a3.034,3.034,0,0,1,1.31-2.061,5.2,5.2,0,0,1,2.839-.664q3.8,0,3.8,3.261ZM67.7-1.538a2.036,2.036,0,0,0,1.564-.655,2.759,2.759,0,0,0,.606-1.938l-2.145.606a2.534,2.534,0,0,0-.9.369.758.758,0,0,0-.312.65.842.842,0,0,0,.334.716A1.382,1.382,0,0,0,67.7-1.538Z" transform="translate(1016 3555)" fill="#fff"/>
    <path id="Trazado_36705" data-name="Trazado 36705" d="M6874,2231h54.332v78.276H7000" transform="translate(-5697 1318)" fill="none" stroke="#ff8f00" stroke-width="2"/>
    <path id="Trazado_36877" data-name="Trazado 36877" d="M0,0H195V104H0Z" transform="translate(1303 3575)" fill="#1db0f1"/>
    <path id="Trazado_36879" data-name="Trazado 36879" d="M10.143,0,9.22-2.619H3.885L2.962,0H.264L4.939-12.7H8.165L12.841,0ZM4.658-4.825H8.446l-1.89-5.388ZM16.84-7.6a2.933,2.933,0,0,1,1.187-1.085,3.62,3.62,0,0,1,1.767-.453v2.259a3.423,3.423,0,0,0-2.162.545A2.379,2.379,0,0,0,16.963-4.4V0H14.414V-9.035H16.84Zm11.795,5.15a8.453,8.453,0,0,0,.22,2.206V0H26.49l-.2-.984a2.938,2.938,0,0,1-1.266.87,4.664,4.664,0,0,1-1.635.29A4.3,4.3,0,0,1,22.544.1a2.868,2.868,0,0,1-.76-.268,2.307,2.307,0,0,1-.628-.47,2.062,2.062,0,0,1-.422-.716,2.853,2.853,0,0,1-.158-.98,2.718,2.718,0,0,1,.167-.98,2.3,2.3,0,0,1,.439-.734,2.666,2.666,0,0,1,.712-.536,5.447,5.447,0,0,1,.9-.387,10.712,10.712,0,0,1,1.072-.281l1.485-.334a1.638,1.638,0,0,0,.672-.286.57.57,0,0,0,.2-.453.932.932,0,0,0-.444-.87A2.072,2.072,0,0,0,24.7-7.462a1.549,1.549,0,0,0-1.767,1.38l-2.241-.4A3.034,3.034,0,0,1,22-8.547a5.2,5.2,0,0,1,2.839-.664q3.8,0,3.8,3.261Zm-4.456.914a2.036,2.036,0,0,0,1.564-.655,2.759,2.759,0,0,0,.606-1.938l-2.145.606a2.534,2.534,0,0,0-.9.369.758.758,0,0,0-.312.65.842.842,0,0,0,.334.716A1.382,1.382,0,0,0,24.179-1.538ZM36.431-9.211a3.522,3.522,0,0,1,2.5.813,3.014,3.014,0,0,1,.87,2.316V0h-2.54V-5.537A1.574,1.574,0,0,0,36.8-6.785a1.705,1.705,0,0,0-1.165-.4,2.379,2.379,0,0,0-.756.114,1.942,1.942,0,0,0-.633.356,1.573,1.573,0,0,0-.453.681,3.15,3.15,0,0,0-.171,1.046V0H31.1V-9.035h2.531v1A3.481,3.481,0,0,1,36.431-9.211ZM46.336.167a4.827,4.827,0,0,1-3.489-1.3,4.493,4.493,0,0,1-1.354-3.393,4.483,4.483,0,0,1,1.349-3.393,4.842,4.842,0,0,1,3.494-1.292,4.814,4.814,0,0,1,2.927.87,3.885,3.885,0,0,1,1.512,2.452l-2.338.255a2,2,0,0,0-.756-1.187,2.3,2.3,0,0,0-1.371-.4,2.072,2.072,0,0,0-1.652.738,2.894,2.894,0,0,0-.633,1.951,2.9,2.9,0,0,0,.633,1.947,2.067,2.067,0,0,0,1.652.743,2.278,2.278,0,0,0,1.367-.4,2.05,2.05,0,0,0,.76-1.187l2.338.255A3.9,3.9,0,0,1,49.25-.712,4.8,4.8,0,0,1,46.336.167ZM61.075-4.649l-.026.606h-6.7a2.339,2.339,0,0,0,.721,1.652,2.3,2.3,0,0,0,1.591.571,2.221,2.221,0,0,0,1.191-.312,1.918,1.918,0,0,0,.76-.91l2.32.343A3.945,3.945,0,0,1,59.353-.58a4.7,4.7,0,0,1-2.672.756,4.891,4.891,0,0,1-3.52-1.244,4.538,4.538,0,0,1-1.305-3.45,4.565,4.565,0,0,1,1.31-3.45A4.746,4.746,0,0,1,56.6-9.229a4.536,4.536,0,0,1,3.243,1.151A4.517,4.517,0,0,1,61.075-4.649ZM56.619-7.436a2,2,0,0,0-2.2,1.74H58.57a1.9,1.9,0,0,0-.624-1.292A1.978,1.978,0,0,0,56.619-7.436ZM63,0V-13.5h2.558V0ZM79.26-13.5h2.531V0h-2.4L79.33-1.178A2.58,2.58,0,0,1,78.183-.154a3.861,3.861,0,0,1-1.692.365A4.394,4.394,0,0,1,74.8-.114a4.189,4.189,0,0,1-1.384-.918,4.187,4.187,0,0,1-.936-1.49A5.5,5.5,0,0,1,72.141-4.5a5.137,5.137,0,0,1,.6-2.518,4.1,4.1,0,0,1,1.578-1.639,4.345,4.345,0,0,1,2.175-.554,3.957,3.957,0,0,1,1.639.33,2.559,2.559,0,0,1,1.129.936ZM77.071-1.89a2.253,2.253,0,0,0,1.709-.721,2.638,2.638,0,0,0,.681-1.89,2.644,2.644,0,0,0-.686-1.894,2.251,2.251,0,0,0-1.705-.725,2.277,2.277,0,0,0-1.718.712A2.644,2.644,0,0,0,74.672-4.5a2.631,2.631,0,0,0,.681,1.9A2.277,2.277,0,0,0,77.071-1.89Zm15.838-2.76-.026.606h-6.7a2.339,2.339,0,0,0,.721,1.652,2.3,2.3,0,0,0,1.591.571,2.221,2.221,0,0,0,1.191-.312,1.918,1.918,0,0,0,.76-.91l2.32.343A3.945,3.945,0,0,1,91.187-.58a4.7,4.7,0,0,1-2.672.756,4.891,4.891,0,0,1-3.52-1.244,4.538,4.538,0,0,1-1.305-3.45A4.565,4.565,0,0,1,85-7.967a4.746,4.746,0,0,1,3.437-1.261,4.536,4.536,0,0,1,3.243,1.151A4.517,4.517,0,0,1,92.909-4.649ZM88.453-7.436a2,2,0,0,0-2.2,1.74H90.4a1.9,1.9,0,0,0-.624-1.292A1.978,1.978,0,0,0,88.453-7.436ZM7.269,30.176A7.089,7.089,0,0,1,4.68,29.71a6.087,6.087,0,0,1-2.061-1.3,5.864,5.864,0,0,1-1.354-2.065,7.2,7.2,0,0,1-.492-2.7,6.879,6.879,0,0,1,.844-3.45,5.744,5.744,0,0,1,2.316-2.281,6.935,6.935,0,0,1,3.335-.791A6.739,6.739,0,0,1,11,18.152a5.629,5.629,0,0,1,2.276,2.83l-2.461.9a3.479,3.479,0,0,0-1.362-1.714,3.891,3.891,0,0,0-2.18-.615,3.73,3.73,0,0,0-2.777,1.107A4.075,4.075,0,0,0,3.4,23.646,4.081,4.081,0,0,0,4.5,26.638,3.726,3.726,0,0,0,7.269,27.75a3.876,3.876,0,0,0,2.175-.62,3.5,3.5,0,0,0,1.367-1.718l2.461.9A5.652,5.652,0,0,1,11,29.143,6.718,6.718,0,0,1,7.269,30.176Zm12.041,0a5.681,5.681,0,0,1-2.558-.554A4.138,4.138,0,0,1,15,28a4.846,4.846,0,0,1-.637-2.522,4.42,4.42,0,0,1,1.371-3.428,5.086,5.086,0,0,1,3.577-1.257A5.1,5.1,0,0,1,22.9,22.046a4.42,4.42,0,0,1,1.371,3.428A4.444,4.444,0,0,1,22.9,28.915,5.088,5.088,0,0,1,19.31,30.176Zm-.026-2.013a2.319,2.319,0,0,0,1.789-.738,2.764,2.764,0,0,0,.681-1.951,2.764,2.764,0,0,0-.681-1.951,2.319,2.319,0,0,0-1.789-.738,2.234,2.234,0,0,0-1.736.743,3.155,3.155,0,0,0,0,3.894A2.234,2.234,0,0,0,19.283,28.163ZM26.147,30V16.5h2.558V30Zm9.387.176a5.681,5.681,0,0,1-2.558-.554A4.138,4.138,0,0,1,31.223,28a4.846,4.846,0,0,1-.637-2.522,4.42,4.42,0,0,1,1.371-3.428,5.086,5.086,0,0,1,3.577-1.257,5.1,5.1,0,0,1,3.586,1.257,4.42,4.42,0,0,1,1.371,3.428,4.444,4.444,0,0,1-1.371,3.441A5.088,5.088,0,0,1,35.534,30.176Zm-.026-2.013a2.319,2.319,0,0,0,1.789-.738,2.764,2.764,0,0,0,.681-1.951,2.764,2.764,0,0,0-.681-1.951,2.319,2.319,0,0,0-1.789-.738,2.234,2.234,0,0,0-1.736.743,3.155,3.155,0,0,0,0,3.894A2.234,2.234,0,0,0,35.508,28.163Zm17.569-7.374a3.452,3.452,0,0,1,2.329.734,2.626,2.626,0,0,1,.853,2.1V30H53.728V24.349a1.509,1.509,0,0,0-.4-1.143,1.416,1.416,0,0,0-1.02-.387,1.633,1.633,0,0,0-1.23.492A2.235,2.235,0,0,0,50.6,24.9V30H48.041V24.375a1.549,1.549,0,0,0-.4-1.165,1.441,1.441,0,0,0-1.046-.391,1.581,1.581,0,0,0-1.222.519,2.476,2.476,0,0,0-.475,1.7V30H42.372V20.965h2.522v1.063a3.072,3.072,0,0,1,2.619-1.239,3.863,3.863,0,0,1,1.7.347,2.315,2.315,0,0,1,1.068,1.006A3.2,3.2,0,0,1,53.077,20.789Zm10.951,0a4.372,4.372,0,0,1,1.679.325,4.064,4.064,0,0,1,2.32,2.408,5.876,5.876,0,0,1,0,3.955,4.064,4.064,0,0,1-2.32,2.408,4.372,4.372,0,0,1-1.679.325,3.9,3.9,0,0,1-1.709-.365,2.527,2.527,0,0,1-1.138-1.024L61.119,30h-2.4V16.5h2.531v5.563a2.522,2.522,0,0,1,1.129-.94A3.973,3.973,0,0,1,64.028,20.789Zm-.589,7.321a2.277,2.277,0,0,0,1.718-.712,2.631,2.631,0,0,0,.681-1.9,2.644,2.644,0,0,0-.681-1.907,2.277,2.277,0,0,0-1.718-.712,2.251,2.251,0,0,0-1.705.725,2.96,2.96,0,0,0,0,3.784A2.253,2.253,0,0,0,63.439,28.11Zm8.13-8.5a1.421,1.421,0,0,1-1.037-.426,1.4,1.4,0,0,1-.431-1.033,1.382,1.382,0,0,1,.435-1.024,1.425,1.425,0,0,1,1.033-.426,1.455,1.455,0,0,1,0,2.909ZM70.277,30V20.965h2.549V30Zm12.577-2.452a8.453,8.453,0,0,0,.22,2.206V30H80.71l-.2-.984a2.938,2.938,0,0,1-1.266.87,4.664,4.664,0,0,1-1.635.29,4.3,4.3,0,0,1-.844-.079,2.868,2.868,0,0,1-.76-.268,2.307,2.307,0,0,1-.628-.47,2.062,2.062,0,0,1-.422-.716,2.853,2.853,0,0,1-.158-.98,2.718,2.718,0,0,1,.167-.98,2.3,2.3,0,0,1,.439-.734,2.666,2.666,0,0,1,.712-.536,5.447,5.447,0,0,1,.9-.387,10.712,10.712,0,0,1,1.072-.281l1.485-.334a1.638,1.638,0,0,0,.672-.286.57.57,0,0,0,.2-.453.932.932,0,0,0-.444-.87,2.072,2.072,0,0,0-1.077-.264,1.549,1.549,0,0,0-1.767,1.38l-2.241-.4a3.034,3.034,0,0,1,1.31-2.061,5.2,5.2,0,0,1,2.839-.664q3.8,0,3.8,3.261Zm-4.456.914a2.036,2.036,0,0,0,1.564-.655,2.759,2.759,0,0,0,.606-1.938l-2.145.606a2.534,2.534,0,0,0-.9.369.758.758,0,0,0-.312.65.842.842,0,0,0,.334.716A1.382,1.382,0,0,0,78.4,28.462Z" transform="translate(1360 3618)" fill="#fff"/>
    <path id="Trazado_36855" data-name="Trazado 36855" d="M2.739,0V-21.167H10.4a11.944,11.944,0,0,1,4.417.762,8.135,8.135,0,0,1,3.164,2.161,9.4,9.4,0,0,1,1.875,3.333,13.759,13.759,0,0,1,.637,4.321,13.81,13.81,0,0,1-.637,4.336,9.4,9.4,0,0,1-1.875,3.333A8.135,8.135,0,0,1,14.817-.762,11.944,11.944,0,0,1,10.4,0ZM7.134-3.882h3.047A5.2,5.2,0,0,0,14.458-5.6a7.714,7.714,0,0,0,1.406-4.988,7.714,7.714,0,0,0-1.406-4.988A5.2,5.2,0,0,0,10.181-17.3H7.134ZM24.888-17.124l3.838-5.391,2.08,1.465L27.48-17.124ZM24.053,0V-15.059H28.3V0ZM43.037-15.059h4.014V-1.128a11.265,11.265,0,0,1-.564,3.75,6.185,6.185,0,0,1-1.633,2.571,6.808,6.808,0,0,1-2.5,1.443,10.56,10.56,0,0,1-3.281.469q-5.962,0-7.764-4.673L34.8.938A5.109,5.109,0,0,0,36.431,3.12a4.145,4.145,0,0,0,2.476.7q3.911,0,3.911-4.644V-2.578a4.744,4.744,0,0,1-1.9,1.487,6.307,6.307,0,0,1-2.673.564A6.664,6.664,0,0,1,35.6-1.062a6.716,6.716,0,0,1-2.19-1.494,6.956,6.956,0,0,1-1.487-2.366,8.3,8.3,0,0,1-.549-3.047,8.285,8.285,0,0,1,.549-3.054,6.676,6.676,0,0,1,1.494-2.336,6.875,6.875,0,0,1,2.2-1.465,6.781,6.781,0,0,1,2.659-.527,6.124,6.124,0,0,1,2.791.623,4.45,4.45,0,0,1,1.868,1.663ZM36.563-5.1A3.716,3.716,0,0,0,39.331-3.94,3.693,3.693,0,0,0,42.1-5.112a3.965,3.965,0,0,0,1.128-2.856,4,4,0,0,0-1.121-2.871,3.686,3.686,0,0,0-2.776-1.172,3.691,3.691,0,0,0-2.776,1.15,4.006,4.006,0,0,0-1.106,2.893A3.98,3.98,0,0,0,36.563-5.1ZM53.584-17.314a2.368,2.368,0,0,1-1.729-.71,2.332,2.332,0,0,1-.718-1.721,2.3,2.3,0,0,1,.725-1.707,2.376,2.376,0,0,1,1.721-.71,2.334,2.334,0,0,1,1.7.71A2.315,2.315,0,0,1,56-19.746a2.332,2.332,0,0,1-.718,1.721A2.334,2.334,0,0,1,53.584-17.314ZM51.431,0V-15.059h4.248V0ZM65.654,0a4.548,4.548,0,0,1-3.4-1.223,4.757,4.757,0,0,1-1.2-3.479v-7.119H58.1v-3.237h.952a2.484,2.484,0,0,0,1.875-.63,3.243,3.243,0,0,0,.6-2.241v-1.992h3.809v4.863h3.105v3.237H65.332v6.665q0,1.948,1.743,1.948h1.362V0ZM78.662.293A9.469,9.469,0,0,1,74.4-.63a6.9,6.9,0,0,1-2.922-2.71,8.076,8.076,0,0,1-1.062-4.2A7.366,7.366,0,0,1,72.7-13.257a8.477,8.477,0,0,1,5.962-2.095,8.5,8.5,0,0,1,5.977,2.095,7.366,7.366,0,0,1,2.285,5.713,7.407,7.407,0,0,1-2.285,5.735A8.48,8.48,0,0,1,78.662.293Zm-.044-3.354A3.865,3.865,0,0,0,81.6-4.292a4.606,4.606,0,0,0,1.135-3.252A4.606,4.606,0,0,0,81.6-10.8a3.865,3.865,0,0,0-2.981-1.23,3.724,3.724,0,0,0-2.893,1.238A4.649,4.649,0,0,0,74.6-7.544,4.649,4.649,0,0,0,75.725-4.3,3.724,3.724,0,0,0,78.618-3.062ZM95.361.293A8.416,8.416,0,0,1,90.967-.762,4.458,4.458,0,0,1,88.813-3.9l3.53-1a2.837,2.837,0,0,0,3.018,2.241A3.116,3.116,0,0,0,96.9-3a1.2,1.2,0,0,0,.6-1.165,1.232,1.232,0,0,0-.249-.776,1.972,1.972,0,0,0-.769-.557,9.581,9.581,0,0,0-1.025-.4q-.505-.161-1.34-.388t-1.392-.432A9.322,9.322,0,0,1,91.4-7.273a5.655,5.655,0,0,1-1.1-.776,3.129,3.129,0,0,1-.82-1.179,4.254,4.254,0,0,1-.286-1.611,3.847,3.847,0,0,1,1.633-3.369,7.3,7.3,0,0,1,4.27-1.143,7.482,7.482,0,0,1,3.94.967,4.376,4.376,0,0,1,2.021,3.018l-3.267.732a2.559,2.559,0,0,0-2.681-1.9,2.935,2.935,0,0,0-1.479.337,1.082,1.082,0,0,0-.586,1,1.141,1.141,0,0,0,.088.454.9.9,0,0,0,.308.366,4.486,4.486,0,0,0,.425.278,3.2,3.2,0,0,0,.6.242q.4.125.659.19t.769.2l.784.205q.806.22,1.414.439a8.279,8.279,0,0,1,1.3.615,4.653,4.653,0,0,1,1.135.886,3.953,3.953,0,0,1,.74,1.245,4.6,4.6,0,0,1,.293,1.677,4.53,4.53,0,0,1-.505,2.183A3.793,3.793,0,0,1,99.668-.754a6.738,6.738,0,0,1-1.956.791A10.144,10.144,0,0,1,95.361.293Zm27.7-22.793h4.219V0h-4l-.1-1.963a4.3,4.3,0,0,1-1.912,1.707,6.435,6.435,0,0,1-2.82.608,7.324,7.324,0,0,1-2.812-.542,6.982,6.982,0,0,1-2.307-1.531,6.978,6.978,0,0,1-1.56-2.483,9.159,9.159,0,0,1-.571-3.3,8.561,8.561,0,0,1,1-4.2,6.825,6.825,0,0,1,2.629-2.732,7.241,7.241,0,0,1,3.625-.923,6.6,6.6,0,0,1,2.732.549,4.265,4.265,0,0,1,1.882,1.56ZM119.414-3.149a3.756,3.756,0,0,0,2.849-1.2A4.4,4.4,0,0,0,123.4-7.5a4.407,4.407,0,0,0-1.143-3.157,3.751,3.751,0,0,0-2.842-1.208,3.8,3.8,0,0,0-2.864,1.187A4.406,4.406,0,0,0,115.415-7.5a4.386,4.386,0,0,0,1.135,3.164A3.8,3.8,0,0,0,119.414-3.149Zm26.4-4.6-.044,1.011H134.6a3.9,3.9,0,0,0,1.2,2.754,3.842,3.842,0,0,0,2.651.952,3.7,3.7,0,0,0,1.985-.52,3.2,3.2,0,0,0,1.267-1.516l3.867.571a6.574,6.574,0,0,1-2.637,3.53,7.84,7.84,0,0,1-4.453,1.26A8.152,8.152,0,0,1,132.62-1.78a7.563,7.563,0,0,1-2.175-5.75,7.608,7.608,0,0,1,2.183-5.75,7.91,7.91,0,0,1,5.728-2.1,7.559,7.559,0,0,1,5.405,1.919A7.528,7.528,0,0,1,145.811-7.749Zm-7.427-4.644a3.334,3.334,0,0,0-3.662,2.9h6.914a3.171,3.171,0,0,0-1.04-2.153A3.3,3.3,0,0,0,138.384-12.393ZM163.623.278a8.046,8.046,0,0,1-5.815-2.168,7.488,7.488,0,0,1-2.256-5.654A7.471,7.471,0,0,1,157.8-13.2a8.071,8.071,0,0,1,5.823-2.153A8.024,8.024,0,0,1,168.5-13.9a6.474,6.474,0,0,1,2.52,4.087l-3.9.425a3.338,3.338,0,0,0-1.26-1.978,3.831,3.831,0,0,0-2.285-.659,3.454,3.454,0,0,0-2.754,1.23,4.824,4.824,0,0,0-1.055,3.252A4.83,4.83,0,0,0,160.825-4.3a3.445,3.445,0,0,0,2.754,1.238,3.8,3.8,0,0,0,2.278-.659A3.416,3.416,0,0,0,167.124-5.7l3.9.425a6.492,6.492,0,0,1-2.542,4.087A7.991,7.991,0,0,1,163.623.278Zm22.749-4.365a14.088,14.088,0,0,0,.366,3.677V0H182.8l-.337-1.641a4.9,4.9,0,0,1-2.109,1.45,7.774,7.774,0,0,1-2.725.483,7.164,7.164,0,0,1-1.406-.132,4.781,4.781,0,0,1-1.267-.447,3.845,3.845,0,0,1-1.047-.784,3.437,3.437,0,0,1-.7-1.194,4.756,4.756,0,0,1-.264-1.633,4.529,4.529,0,0,1,.278-1.633,3.828,3.828,0,0,1,.732-1.223,4.443,4.443,0,0,1,1.187-.894,9.079,9.079,0,0,1,1.494-.645,17.853,17.853,0,0,1,1.787-.469l2.476-.557a2.73,2.73,0,0,0,1.121-.476.949.949,0,0,0,.33-.754A1.554,1.554,0,0,0,181.6-12a3.454,3.454,0,0,0-1.794-.439q-2.593,0-2.944,2.3l-3.735-.674a5.056,5.056,0,0,1,2.183-3.435,8.675,8.675,0,0,1,4.731-1.106q6.328,0,6.328,5.435Zm-7.427,1.523a3.393,3.393,0,0,0,2.607-1.091,4.6,4.6,0,0,0,1.011-3.23l-3.574,1.011a4.224,4.224,0,0,0-1.5.615,1.263,1.263,0,0,0-.52,1.084,1.4,1.4,0,0,0,.557,1.194A2.3,2.3,0,0,0,178.945-2.563ZM200.815-22.5h4.219V0h-4l-.1-1.963a4.3,4.3,0,0,1-1.912,1.707,6.435,6.435,0,0,1-2.82.608,7.324,7.324,0,0,1-2.812-.542,6.982,6.982,0,0,1-2.307-1.531,6.978,6.978,0,0,1-1.56-2.483,9.159,9.159,0,0,1-.571-3.3,8.561,8.561,0,0,1,1-4.2,6.825,6.825,0,0,1,2.629-2.732,7.241,7.241,0,0,1,3.625-.923,6.6,6.6,0,0,1,2.732.549,4.265,4.265,0,0,1,1.882,1.56ZM197.168-3.149a3.756,3.756,0,0,0,2.849-1.2A4.4,4.4,0,0,0,201.152-7.5a4.407,4.407,0,0,0-1.143-3.157,3.751,3.751,0,0,0-2.842-1.208,3.8,3.8,0,0,0-2.864,1.187A4.406,4.406,0,0,0,193.169-7.5,4.386,4.386,0,0,0,194.3-4.336,3.8,3.8,0,0,0,197.168-3.149Zm24.58-.937a14.088,14.088,0,0,0,.366,3.677V0h-3.94l-.337-1.641a4.9,4.9,0,0,1-2.109,1.45A7.774,7.774,0,0,1,213,.293,7.164,7.164,0,0,1,211.6.161a4.781,4.781,0,0,1-1.267-.447,3.845,3.845,0,0,1-1.047-.784,3.437,3.437,0,0,1-.7-1.194,4.756,4.756,0,0,1-.264-1.633,4.529,4.529,0,0,1,.278-1.633,3.828,3.828,0,0,1,.732-1.223,4.443,4.443,0,0,1,1.187-.894,9.079,9.079,0,0,1,1.494-.645,17.853,17.853,0,0,1,1.787-.469l2.476-.557a2.73,2.73,0,0,0,1.121-.476.949.949,0,0,0,.33-.754,1.554,1.554,0,0,0-.74-1.45,3.454,3.454,0,0,0-1.794-.439q-2.593,0-2.944,2.3l-3.735-.674a5.056,5.056,0,0,1,2.183-3.435,8.675,8.675,0,0,1,4.731-1.106q6.328,0,6.328,5.435Zm-7.427,1.523a3.393,3.393,0,0,0,2.607-1.091,4.6,4.6,0,0,0,1.011-3.23l-3.574,1.011a4.224,4.224,0,0,0-1.5.615,1.263,1.263,0,0,0-.52,1.084,1.4,1.4,0,0,0,.557,1.194A2.3,2.3,0,0,0,214.321-2.563Zm28.154-12.788a7.324,7.324,0,0,1,2.813.542,7.038,7.038,0,0,1,2.307,1.523,6.892,6.892,0,0,1,1.56,2.483,9.218,9.218,0,0,1,.571,3.3,9.218,9.218,0,0,1-.571,3.3,6.892,6.892,0,0,1-1.56,2.483A7.038,7.038,0,0,1,245.288-.19a7.324,7.324,0,0,1-2.812.542,6.535,6.535,0,0,1-2.725-.557,4.27,4.27,0,0,1-1.89-1.582V7.324h-4.219V-15.059h4l.117,2.021a4.124,4.124,0,0,1,1.882-1.707A6.469,6.469,0,0,1,242.476-15.352Zm-.952,12.2a3.79,3.79,0,0,0,2.849-1.179A4.38,4.38,0,0,0,245.508-7.5a4.38,4.38,0,0,0-1.135-3.171,3.79,3.79,0,0,0-2.849-1.179,3.8,3.8,0,0,0-2.871,1.2A4.381,4.381,0,0,0,237.51-7.5a4.381,4.381,0,0,0,1.143,3.149A3.8,3.8,0,0,0,241.523-3.149Zm23.73-.937A14.088,14.088,0,0,0,265.62-.41V0h-3.94l-.337-1.641a4.9,4.9,0,0,1-2.109,1.45,7.774,7.774,0,0,1-2.725.483A7.164,7.164,0,0,1,255.1.161a4.781,4.781,0,0,1-1.267-.447,3.845,3.845,0,0,1-1.047-.784,3.437,3.437,0,0,1-.7-1.194,4.756,4.756,0,0,1-.264-1.633A4.529,4.529,0,0,1,252.1-5.53a3.828,3.828,0,0,1,.732-1.223,4.443,4.443,0,0,1,1.187-.894,9.079,9.079,0,0,1,1.494-.645A17.853,17.853,0,0,1,257.3-8.76l2.476-.557a2.73,2.73,0,0,0,1.121-.476.949.949,0,0,0,.33-.754,1.554,1.554,0,0,0-.74-1.45,3.454,3.454,0,0,0-1.794-.439q-2.593,0-2.944,2.3l-3.735-.674a5.056,5.056,0,0,1,2.183-3.435,8.675,8.675,0,0,1,4.731-1.106q6.328,0,6.328,5.435Zm-7.427,1.523a3.393,3.393,0,0,0,2.607-1.091,4.6,4.6,0,0,0,1.011-3.23l-3.574,1.011a4.224,4.224,0,0,0-1.5.615,1.263,1.263,0,0,0-.52,1.084,1.4,1.4,0,0,0,.557,1.194A2.3,2.3,0,0,0,257.827-2.563ZM273.4-12.671a4.888,4.888,0,0,1,1.978-1.809,6.034,6.034,0,0,1,2.944-.754v3.765a5.7,5.7,0,0,0-3.6.908A3.965,3.965,0,0,0,273.6-7.339V0h-4.248V-15.059H273.4ZM287.271,0a4.548,4.548,0,0,1-3.4-1.223,4.757,4.757,0,0,1-1.2-3.479v-7.119h-2.959v-3.237h.952a2.484,2.484,0,0,0,1.875-.63,3.243,3.243,0,0,0,.6-2.241v-1.992h3.809v4.863h3.105v3.237h-3.105v6.665q0,1.948,1.743,1.948h1.362V0Zm8.2-17.314a2.368,2.368,0,0,1-1.729-.71,2.332,2.332,0,0,1-.718-1.721,2.3,2.3,0,0,1,.725-1.707,2.376,2.376,0,0,1,1.721-.71,2.334,2.334,0,0,1,1.7.71,2.315,2.315,0,0,1,.718,1.707,2.332,2.332,0,0,1-.718,1.721A2.334,2.334,0,0,1,295.474-17.314ZM293.32,0V-15.059h4.248V0Zm19.292-22.5h4.219V0h-4l-.1-1.963a4.3,4.3,0,0,1-1.912,1.707A6.435,6.435,0,0,1,308,.352a7.324,7.324,0,0,1-2.812-.542,6.982,6.982,0,0,1-2.307-1.531,6.978,6.978,0,0,1-1.56-2.483,9.159,9.159,0,0,1-.571-3.3,8.561,8.561,0,0,1,1-4.2,6.825,6.825,0,0,1,2.629-2.732A7.241,7.241,0,0,1,308-15.352a6.6,6.6,0,0,1,2.732.549,4.265,4.265,0,0,1,1.882,1.56ZM308.965-3.149a3.756,3.756,0,0,0,2.849-1.2A4.4,4.4,0,0,0,312.949-7.5a4.407,4.407,0,0,0-1.143-3.157,3.751,3.751,0,0,0-2.842-1.208,3.8,3.8,0,0,0-2.864,1.187A4.406,4.406,0,0,0,304.966-7.5,4.386,4.386,0,0,0,306.1-4.336,3.8,3.8,0,0,0,308.965-3.149Zm24.58-.937a14.088,14.088,0,0,0,.366,3.677V0h-3.94l-.337-1.641a4.9,4.9,0,0,1-2.109,1.45A7.774,7.774,0,0,1,324.8.293a7.164,7.164,0,0,1-1.406-.132,4.781,4.781,0,0,1-1.267-.447,3.845,3.845,0,0,1-1.047-.784,3.437,3.437,0,0,1-.7-1.194,4.756,4.756,0,0,1-.264-1.633,4.529,4.529,0,0,1,.278-1.633,3.828,3.828,0,0,1,.732-1.223,4.443,4.443,0,0,1,1.187-.894,9.079,9.079,0,0,1,1.494-.645,17.853,17.853,0,0,1,1.787-.469l2.476-.557a2.73,2.73,0,0,0,1.121-.476.949.949,0,0,0,.33-.754,1.554,1.554,0,0,0-.74-1.45,3.454,3.454,0,0,0-1.794-.439q-2.593,0-2.944,2.3l-3.735-.674a5.056,5.056,0,0,1,2.183-3.435,8.675,8.675,0,0,1,4.731-1.106q6.328,0,6.328,5.435Zm-7.427,1.523a3.393,3.393,0,0,0,2.607-1.091,4.6,4.6,0,0,0,1.011-3.23l-3.574,1.011a4.224,4.224,0,0,0-1.5.615,1.263,1.263,0,0,0-.52,1.084,1.4,1.4,0,0,0,.557,1.194A2.3,2.3,0,0,0,326.118-2.563Z" transform="translate(422 3670)" fill="#ff8f00"/>
    <path id="Trazado_36859" data-name="Trazado 36859" d="M0,0H72V152H0Z" transform="translate(422 3757)" fill="#fec02d"/>
    <path id="Trazado_36860" data-name="Trazado 36860" d="M6.982-17.639h3.345V0h-3.5V-14.026L2.771-10.254v-3.613Z" transform="translate(451 3842)" fill="#00223d"/>
    <path id="Trazado_36861" data-name="Trazado 36861" d="M6.14-3.137h7.52V0H1.221V-2.649L8.24-9.814a4.417,4.417,0,0,0,1.526-3.04,2.15,2.15,0,0,0-.629-1.636,2.475,2.475,0,0,0-1.776-.6q-2.5,0-2.5,2.844v1.306l-3.5-.354v-.879a5.5,5.5,0,0,1,1.611-4.242,6.171,6.171,0,0,1,4.37-1.5,6.465,6.465,0,0,1,4.254,1.355,4.567,4.567,0,0,1,1.642,3.723,5.28,5.28,0,0,1-.555,2.417,10.1,10.1,0,0,1-1.764,2.356Z" transform="translate(532 3842)" fill="#00223d"/>
    <path id="Trazado_36862" data-name="Trazado 36862" d="M0,0H72V152H0Z" transform="translate(651 3757)" fill="#7030a0"/>
    <path id="Trazado_36863" data-name="Trazado 36863" d="M0,0H72V152H0Z" transform="translate(730 3757)" fill="#7030a0"/>
    <path id="Trazado_36864" data-name="Trazado 36864" d="M7.434.244q-3.3,0-4.81-1.611A6.988,6.988,0,0,1,1.111-6.3l3.6-.159a12.752,12.752,0,0,0,.055,1.294,4.473,4.473,0,0,0,.22,1,1.791,1.791,0,0,0,.464.751,2.108,2.108,0,0,0,.793.433,3.921,3.921,0,0,0,1.19.159,2.86,2.86,0,0,0,2.081-.708,2.475,2.475,0,0,0,.726-1.855,2.5,2.5,0,0,0-.7-1.91,2.619,2.619,0,0,0-1.868-.653H6.995v-2.734h.635A1.909,1.909,0,0,0,9.088-11.3a2.22,2.22,0,0,0,.58-1.575,1.774,1.774,0,0,0-.635-1.465,2.58,2.58,0,0,0-1.672-.513,2.506,2.506,0,0,0-.952.165,1.776,1.776,0,0,0-.641.421,1.862,1.862,0,0,0-.378.647,3.4,3.4,0,0,0-.183.769A7.679,7.679,0,0,0,5.164-12L1.611-12.17a5.647,5.647,0,0,1,1.514-4.242,5.772,5.772,0,0,1,4.2-1.471,6,6,0,0,1,4.028,1.349,4.224,4.224,0,0,1,1.587,3.351,3.814,3.814,0,0,1-.677,2.271A3.879,3.879,0,0,1,10.718-9.57a4.347,4.347,0,0,1,1.123.5,4.6,4.6,0,0,1,.983.842,3.758,3.758,0,0,1,.726,1.282,5.157,5.157,0,0,1,.269,1.709,4.985,4.985,0,0,1-1.746,3.986A6.885,6.885,0,0,1,7.434.244Z" transform="translate(678 3842)" fill="#fff"/>
    <path id="Trazado_36865" data-name="Trazado 36865" d="M14.294-6.482v3.137H12.17V0H8.655V-3.345H.537V-6.494l6.25-11.145H12.17V-6.482Zm-10.5,0H8.655v-9.045Z" transform="translate(761 3842)" fill="#fff"/>
    <path id="Trazado_36866" data-name="Trazado 36866" d="M0,0H72V152H0Z" transform="translate(871 3757)" fill="#fabf8f"/>
    <path id="Trazado_36867" data-name="Trazado 36867" d="M0,0H72V152H0Z" transform="translate(952 3757)" fill="#fabf8f"/>
    <path id="Trazado_36868" data-name="Trazado 36868" d="M7.117-11.438q6.775,0,6.775,5.566A5.946,5.946,0,0,1,12.183-1.41,6.177,6.177,0,0,1,7.678.256,7.472,7.472,0,0,1,4.523-.4,5.445,5.445,0,0,1,2.234-2.338,5.2,5.2,0,0,1,1.367-5.31a5.488,5.488,0,0,1,.073-.879l3.491-.159a5.16,5.16,0,0,0-.085.781A2.375,2.375,0,0,0,5.64-3.619,2.99,2.99,0,0,0,7.6-2.966a2.709,2.709,0,0,0,2.051-.751,2.8,2.8,0,0,0,.72-2.02A2.515,2.515,0,0,0,9.5-7.8a4.707,4.707,0,0,0-2.954-.72H1.917l.732-9.119H13.062V-14.5H5.811l-.232,3.064Z" transform="translate(900 3842)" fill="#00223d"/>
    <path id="Trazado_36869" data-name="Trazado 36869" d="M13.953-5.92a5.75,5.75,0,0,1-.519,2.478,5.847,5.847,0,0,1-1.428,1.959A6.725,6.725,0,0,1,9.912-.226a6.943,6.943,0,0,1-2.5.458,6.929,6.929,0,0,1-2.545-.47A6.268,6.268,0,0,1,2.8-1.526,5.984,5.984,0,0,1,1.44-3.485a5.968,5.968,0,0,1-.5-2.423A7.331,7.331,0,0,1,2.5-10.217L8-17.639h3.992L7.41-11.67a5.947,5.947,0,0,1,.806-.049,5.75,5.75,0,0,1,2.167.415,5.867,5.867,0,0,1,1.825,1.154A5.338,5.338,0,0,1,13.47-8.313,6.17,6.17,0,0,1,13.953-5.92ZM10.51-6.006a3.013,3.013,0,0,0-.854-2.277,3.108,3.108,0,0,0-2.307-.885,2.979,2.979,0,0,0-2.234.891,3.148,3.148,0,0,0-.891,2.222A3.019,3.019,0,0,0,5.042-3.79a3.032,3.032,0,0,0,2.271.861,3.179,3.179,0,0,0,2.295-.854A2.979,2.979,0,0,0,10.51-6.006Z" transform="translate(981 3842)" fill="#00223d"/>
    <path id="Trazado_36870" data-name="Trazado 36870" d="M0,0H72V152H0Z" transform="translate(1086 3757)" fill="#76923d"/>
    <path id="Trazado_36873" data-name="Trazado 36873" d="M0,0H72V152H0Z" transform="translate(1168 3757)" fill="#76923d"/>
    <path id="Trazado_36874" data-name="Trazado 36874" d="M1.355-17.639H13.77v2.71L5.8,0H1.819l8-14.514H1.355Z" transform="translate(1117 3842)" fill="#00223d"/>
    <path id="Trazado_36875" data-name="Trazado 36875" d="M7.5.244A7.058,7.058,0,0,1,2.887-1.233,4.853,4.853,0,0,1,1.074-5.2a4.944,4.944,0,0,1,.739-2.7A5.062,5.062,0,0,1,3.857-9.729,4.468,4.468,0,0,1,2.4-11.23a3.877,3.877,0,0,1-.531-2A4.137,4.137,0,0,1,3.442-16.6,6.194,6.194,0,0,1,7.5-17.883a6.093,6.093,0,0,1,4,1.288,4.144,4.144,0,0,1,1.569,3.363,3.951,3.951,0,0,1-.513,2,4.505,4.505,0,0,1-1.416,1.508A5.036,5.036,0,0,1,13.159-7.9a4.975,4.975,0,0,1,.732,2.7,5.068,5.068,0,0,1-.842,2.9A5.3,5.3,0,0,1,10.76-.4,7.915,7.915,0,0,1,7.5.244Zm0-11a2.345,2.345,0,0,0,1.672-.659,2.135,2.135,0,0,0,.7-1.611,2.083,2.083,0,0,0-.7-1.587A2.369,2.369,0,0,0,7.5-15.259a2.379,2.379,0,0,0-1.691.647,2.091,2.091,0,0,0-.69,1.587,2.138,2.138,0,0,0,.69,1.617A2.367,2.367,0,0,0,7.5-10.754Zm0,7.849A2.947,2.947,0,0,0,9.558-3.65a2.574,2.574,0,0,0,.818-2,2.5,2.5,0,0,0-.824-1.959A2.968,2.968,0,0,0,7.5-8.35a3,3,0,0,0-2.081.739A2.5,2.5,0,0,0,4.59-5.652a2.565,2.565,0,0,0,.824,2A2.987,2.987,0,0,0,7.5-2.905Z" transform="translate(1197 3842)" fill="#00223d"/>
    <path id="Trazado_36880" data-name="Trazado 36880" d="M0,0H72V152H0Z" transform="translate(1344 3757)" fill="#b6dde7"/>
    <path id="Trazado_36884" data-name="Trazado 36884" d="M0,0H72V152H0Z" transform="translate(1426 3757)" fill="#b6dde7"/>
    <path id="Trazado_36881" data-name="Trazado 36881" d="M7.5-17.871a6.82,6.82,0,0,1,3.29.8,6.019,6.019,0,0,1,2.338,2.209,5.924,5.924,0,0,1,.854,3.131,7.207,7.207,0,0,1-1.575,4.3L6.909,0h-4L7.471-5.969a5.844,5.844,0,0,1-.793.049,5.771,5.771,0,0,1-2.8-.7A5.511,5.511,0,0,1,1.776-8.667a5.782,5.782,0,0,1-.812-3.052,5.656,5.656,0,0,1,1.917-4.4A6.627,6.627,0,0,1,7.5-17.871ZM10.669-11.6a3.014,3.014,0,0,0-.812-2.252,3.011,3.011,0,0,0-2.264-.861,3.172,3.172,0,0,0-2.289.861,2.974,2.974,0,0,0-.909,2.216,3.017,3.017,0,0,0,.854,2.271,3.1,3.1,0,0,0,2.307.891A2.954,2.954,0,0,0,9.79-9.363,3.188,3.188,0,0,0,10.669-11.6Z" transform="translate(1371 3842)" fill="#00223d"/>
    <path id="Trazado_36885" data-name="Trazado 36885" d="M6.982-17.639h3.345V0h-3.5V-14.026L2.771-10.254v-3.613ZM22.412.244A5.5,5.5,0,0,1,17.67-2.039q-1.654-2.283-1.654-6.787t1.648-6.787a5.508,5.508,0,0,1,4.749-2.271,5.5,5.5,0,0,1,4.736,2.271Q28.8-13.342,28.8-8.826T27.142-2.039A5.489,5.489,0,0,1,22.412.244Zm0-3.174A2.319,2.319,0,0,0,24.53-4.376a10.071,10.071,0,0,0,.751-4.449,10,10,0,0,0-.757-4.449,2.324,2.324,0,0,0-2.112-1.447q-2.881,0-2.881,5.9T22.412-2.93Z" transform="translate(1449 3842)" fill="#00223d"/>
    <path id="Trazado_36871" data-name="Trazado 36871" d="M11.465-14.111h2.92V0H11L4.746-10.088V0H1.826V-14.111h3.35L11.465-4.082ZM22.285.2A6.313,6.313,0,0,1,19.443-.42,4.6,4.6,0,0,1,17.5-2.227a5.384,5.384,0,0,1-.708-2.8,4.911,4.911,0,0,1,1.523-3.809,5.652,5.652,0,0,1,3.975-1.4,5.665,5.665,0,0,1,3.984,1.4,4.911,4.911,0,0,1,1.523,3.809A4.938,4.938,0,0,1,26.27-1.206,5.654,5.654,0,0,1,22.285.2Zm-.029-2.236a2.577,2.577,0,0,0,1.987-.82A3.071,3.071,0,0,0,25-5.029,3.071,3.071,0,0,0,24.243-7.2a2.577,2.577,0,0,0-1.987-.82,2.483,2.483,0,0,0-1.929.825,3.1,3.1,0,0,0-.747,2.163,3.1,3.1,0,0,0,.747,2.163A2.483,2.483,0,0,0,22.256-2.041ZM42.2-15H45.01V0H42.344l-.068-1.309A2.867,2.867,0,0,1,41-.171a4.29,4.29,0,0,1-1.88.405,4.883,4.883,0,0,1-1.875-.361,4.654,4.654,0,0,1-1.538-1.021A4.652,4.652,0,0,1,34.668-2.8,6.106,6.106,0,0,1,34.287-5a5.707,5.707,0,0,1,.664-2.8A4.55,4.55,0,0,1,36.7-9.619a4.827,4.827,0,0,1,2.417-.615,4.4,4.4,0,0,1,1.821.366A2.843,2.843,0,0,1,42.2-8.828ZM39.766-2.1a2.5,2.5,0,0,0,1.9-.8A2.932,2.932,0,0,0,42.422-5a2.938,2.938,0,0,0-.762-2.1,2.5,2.5,0,0,0-1.895-.806,2.53,2.53,0,0,0-1.909.791A2.937,2.937,0,0,0,37.1-5a2.924,2.924,0,0,0,.757,2.109A2.53,2.53,0,0,0,39.766-2.1Zm17.6-3.066-.029.674H49.893a2.6,2.6,0,0,0,.8,1.836,2.561,2.561,0,0,0,1.768.635,2.468,2.468,0,0,0,1.323-.347,2.131,2.131,0,0,0,.845-1.011L57.207-3A4.383,4.383,0,0,1,55.449-.645,5.226,5.226,0,0,1,52.48.2a5.435,5.435,0,0,1-3.911-1.382,5.042,5.042,0,0,1-1.45-3.833,5.072,5.072,0,0,1,1.455-3.833,5.273,5.273,0,0,1,3.818-1.4A5.04,5.04,0,0,1,56-8.975,5.019,5.019,0,0,1,57.363-5.166Zm-4.951-3.1a2.222,2.222,0,0,0-2.441,1.934H54.58a2.114,2.114,0,0,0-.693-1.436A2.2,2.2,0,0,0,52.412-8.262ZM59.5,0V-15h2.842V0ZM6,30.186A5.364,5.364,0,0,1,2.119,28.74a4.992,4.992,0,0,1-1.5-3.77,4.981,4.981,0,0,1,1.5-3.77A5.38,5.38,0,0,1,6,19.766a5.349,5.349,0,0,1,3.252.967,4.316,4.316,0,0,1,1.68,2.725l-2.6.283a2.225,2.225,0,0,0-.84-1.318,2.554,2.554,0,0,0-1.523-.439,2.3,2.3,0,0,0-1.836.82,3.216,3.216,0,0,0-.7,2.168,3.22,3.22,0,0,0,.7,2.163,2.3,2.3,0,0,0,1.836.825,2.532,2.532,0,0,0,1.519-.439A2.277,2.277,0,0,0,8.33,26.2l2.6.283a4.328,4.328,0,0,1-1.694,2.725A5.327,5.327,0,0,1,6,30.186Zm15.166-2.91a9.392,9.392,0,0,0,.244,2.451V30H18.779l-.225-1.094a3.264,3.264,0,0,1-1.406.967,5.183,5.183,0,0,1-1.816.322,4.776,4.776,0,0,1-.937-.088,3.187,3.187,0,0,1-.845-.3,2.564,2.564,0,0,1-.7-.522,2.291,2.291,0,0,1-.469-.8,3.17,3.17,0,0,1-.176-1.089,3.02,3.02,0,0,1,.186-1.089,2.552,2.552,0,0,1,.488-.815,2.962,2.962,0,0,1,.791-.6,6.053,6.053,0,0,1,1-.43,11.9,11.9,0,0,1,1.191-.312l1.65-.371a1.82,1.82,0,0,0,.747-.317.633.633,0,0,0,.22-.5A1.036,1.036,0,0,0,17.983,22a2.3,2.3,0,0,0-1.2-.293,1.721,1.721,0,0,0-1.963,1.533l-2.49-.449a3.371,3.371,0,0,1,1.455-2.29,5.783,5.783,0,0,1,3.154-.737q4.219,0,4.219,3.623Zm-4.951,1.016a2.262,2.262,0,0,0,1.738-.728,3.066,3.066,0,0,0,.674-2.153l-2.383.674a2.816,2.816,0,0,0-1,.41.842.842,0,0,0-.347.723.935.935,0,0,0,.371.8A1.536,1.536,0,0,0,16.211,28.291Zm13.574-8.525a4.883,4.883,0,0,1,1.875.361A4.692,4.692,0,0,1,33.2,21.143a4.6,4.6,0,0,1,1.04,1.655,6.557,6.557,0,0,1,0,4.4,4.6,4.6,0,0,1-1.04,1.655,4.692,4.692,0,0,1-1.538,1.016,4.883,4.883,0,0,1-1.875.361,4.356,4.356,0,0,1-1.816-.371,2.846,2.846,0,0,1-1.26-1.055v6.074H23.9V19.961h2.666l.078,1.348A2.75,2.75,0,0,1,27.9,20.171,4.313,4.313,0,0,1,29.785,19.766ZM29.15,27.9a2.527,2.527,0,0,0,1.9-.786A2.92,2.92,0,0,0,31.807,25a2.92,2.92,0,0,0-.757-2.114,2.688,2.688,0,0,0-3.813.015,2.921,2.921,0,0,0-.762,2.1,2.921,2.921,0,0,0,.762,2.1A2.531,2.531,0,0,0,29.15,27.9Zm8.145-9.316,2.559-3.594,1.387.977-2.217,2.617ZM36.738,30V19.961H39.57V30Zm9.482,0a3.032,3.032,0,0,1-2.266-.815,3.172,3.172,0,0,1-.8-2.319V22.119H41.182V19.961h.635a1.656,1.656,0,0,0,1.25-.42,2.162,2.162,0,0,0,.4-1.494V16.719h2.539v3.242h2.07v2.158h-2.07v4.443q0,1.3,1.162,1.3h.908V30ZM56.9,19.961h2.813V30H57.051l-.068-1.211A3.834,3.834,0,0,1,53.789,30.2a3.914,3.914,0,0,1-2.773-.9,3.349,3.349,0,0,1-.967-2.573V19.961h2.822v6.152a1.735,1.735,0,0,0,.5,1.377,1.909,1.909,0,0,0,1.3.439,2.264,2.264,0,0,0,1.6-.571,2.454,2.454,0,0,0,.63-1.86ZM62.627,30V15h2.842V30Zm10.43.2a6.313,6.313,0,0,1-2.842-.615,4.6,4.6,0,0,1-1.948-1.807,5.384,5.384,0,0,1-.708-2.8,4.911,4.911,0,0,1,1.523-3.809,6.368,6.368,0,0,1,7.959,0,4.911,4.911,0,0,1,1.523,3.809,4.938,4.938,0,0,1-1.523,3.823A5.654,5.654,0,0,1,73.057,30.2Zm-.029-2.236a2.577,2.577,0,0,0,1.987-.82,3.071,3.071,0,0,0,.757-2.168,3.071,3.071,0,0,0-.757-2.168,2.577,2.577,0,0,0-1.987-.82,2.483,2.483,0,0,0-1.929.825,3.1,3.1,0,0,0-.747,2.163,3.1,3.1,0,0,0,.747,2.163A2.483,2.483,0,0,0,73.027,27.959Z" transform="translate(459 3982)" fill="#4f81bd"/>
    <path id="Trazado_36872" data-name="Trazado 36872" d="M7.051,19.2a7.3,7.3,0,0,1-2.173-.308,5.114,5.114,0,0,1-1.743-.923,4.13,4.13,0,0,1-1.177-1.611,5.807,5.807,0,0,1-.425-2.295V4.889h2.93v8.77a3.067,3.067,0,0,0,.708,2.236,2.531,2.531,0,0,0,1.88.713,2.555,2.555,0,0,0,1.89-.718,3.043,3.043,0,0,0,.718-2.231V4.889h2.93v9.17a5.807,5.807,0,0,1-.425,2.295,4.108,4.108,0,0,1-1.182,1.611,5.168,5.168,0,0,1-1.748.923A7.338,7.338,0,0,1,7.051,19.2ZM21.475,8.766a4.857,4.857,0,0,1,1.865.361A4.516,4.516,0,0,1,25.918,11.8,6.106,6.106,0,0,1,26.3,14a6.106,6.106,0,0,1-.381,2.2,4.516,4.516,0,0,1-2.578,2.676,4.857,4.857,0,0,1-1.865.361,4.336,4.336,0,0,1-1.9-.405,2.808,2.808,0,0,1-1.265-1.138L18.242,19H15.576V4h2.813v6.182a2.8,2.8,0,0,1,1.255-1.045A4.414,4.414,0,0,1,21.475,8.766ZM20.82,16.9a2.53,2.53,0,0,0,1.909-.791A2.924,2.924,0,0,0,23.486,14a2.937,2.937,0,0,0-.757-2.119,2.53,2.53,0,0,0-1.909-.791,2.5,2.5,0,0,0-1.895.806,2.938,2.938,0,0,0-.762,2.1,2.932,2.932,0,0,0,.757,2.1A2.5,2.5,0,0,0,20.82,16.9Zm9.033-9.443A1.579,1.579,0,0,1,28.7,6.983a1.555,1.555,0,0,1-.479-1.147A1.536,1.536,0,0,1,28.706,4.7a1.584,1.584,0,0,1,1.147-.474,1.626,1.626,0,0,1,1.611,1.611,1.626,1.626,0,0,1-1.611,1.621ZM28.418,19V8.961H31.25V19Zm10.283.186a5.364,5.364,0,0,1-3.877-1.445,4.992,4.992,0,0,1-1.5-3.77,4.981,4.981,0,0,1,1.5-3.77A5.38,5.38,0,0,1,38.7,8.766a5.349,5.349,0,0,1,3.252.967,4.316,4.316,0,0,1,1.68,2.725l-2.6.283a2.225,2.225,0,0,0-.84-1.318,2.554,2.554,0,0,0-1.523-.439,2.3,2.3,0,0,0-1.836.82,3.216,3.216,0,0,0-.7,2.168,3.22,3.22,0,0,0,.7,2.163,2.3,2.3,0,0,0,1.836.825,2.532,2.532,0,0,0,1.519-.439,2.277,2.277,0,0,0,.845-1.318l2.6.283a4.328,4.328,0,0,1-1.694,2.725A5.327,5.327,0,0,1,38.7,19.186Zm15.166-2.91a9.392,9.392,0,0,0,.244,2.451V19H51.484l-.225-1.094a3.264,3.264,0,0,1-1.406.967,5.183,5.183,0,0,1-1.816.322,4.776,4.776,0,0,1-.937-.088,3.187,3.187,0,0,1-.845-.3,2.563,2.563,0,0,1-.7-.522,2.291,2.291,0,0,1-.469-.8,3.17,3.17,0,0,1-.176-1.089,3.02,3.02,0,0,1,.186-1.089,2.552,2.552,0,0,1,.488-.815,2.962,2.962,0,0,1,.791-.6,6.052,6.052,0,0,1,1-.43,11.9,11.9,0,0,1,1.191-.312l1.65-.371a1.82,1.82,0,0,0,.747-.317.633.633,0,0,0,.22-.5A1.036,1.036,0,0,0,50.688,11a2.3,2.3,0,0,0-1.2-.293,1.721,1.721,0,0,0-1.963,1.533l-2.49-.449A3.371,3.371,0,0,1,46.494,9.5a5.783,5.783,0,0,1,3.154-.737q4.219,0,4.219,3.623Zm-4.951,1.016a2.262,2.262,0,0,0,1.738-.728,3.066,3.066,0,0,0,.674-2.153l-2.383.674a2.816,2.816,0,0,0-1,.41.842.842,0,0,0-.347.723.935.935,0,0,0,.371.8A1.536,1.536,0,0,0,48.916,17.291Zm12,1.895a5.364,5.364,0,0,1-3.877-1.445,4.992,4.992,0,0,1-1.5-3.77,4.981,4.981,0,0,1,1.5-3.77,5.96,5.96,0,0,1,7.134-.469,4.316,4.316,0,0,1,1.68,2.725l-2.6.283a2.225,2.225,0,0,0-.84-1.318,2.554,2.554,0,0,0-1.523-.439,2.3,2.3,0,0,0-1.836.82,3.216,3.216,0,0,0-.7,2.168,3.22,3.22,0,0,0,.7,2.163,2.3,2.3,0,0,0,1.836.825,2.532,2.532,0,0,0,1.519-.439,2.277,2.277,0,0,0,.845-1.318l2.6.283a4.328,4.328,0,0,1-1.694,2.725A5.327,5.327,0,0,1,60.918,19.186ZM69.287,7.457a1.579,1.579,0,0,1-1.152-.474,1.555,1.555,0,0,1-.479-1.147A1.536,1.536,0,0,1,68.14,4.7a1.584,1.584,0,0,1,1.147-.474A1.626,1.626,0,0,1,70.9,5.836a1.626,1.626,0,0,1-1.611,1.621ZM67.852,19V8.961h2.832V19ZM77.4,7.594,79.961,4l1.387.977L79.131,7.594Zm.869,11.6a6.313,6.313,0,0,1-2.842-.615,4.6,4.6,0,0,1-1.948-1.807,5.384,5.384,0,0,1-.708-2.8A4.911,4.911,0,0,1,74.3,10.162a6.368,6.368,0,0,1,7.959,0,4.911,4.911,0,0,1,1.523,3.809,4.938,4.938,0,0,1-1.523,3.823A5.654,5.654,0,0,1,78.271,19.2Zm-.029-2.236a2.577,2.577,0,0,0,1.987-.82,3.071,3.071,0,0,0,.757-2.168,3.071,3.071,0,0,0-.757-2.168,2.577,2.577,0,0,0-1.987-.82,2.483,2.483,0,0,0-1.929.825,3.1,3.1,0,0,0-.747,2.163,3.1,3.1,0,0,0,.747,2.163A2.483,2.483,0,0,0,78.242,16.959ZM91.8,8.766a3.914,3.914,0,0,1,2.773.9,3.349,3.349,0,0,1,.967,2.573V19H92.715V12.848a1.749,1.749,0,0,0-.5-1.387,1.9,1.9,0,0,0-1.294-.439,2.643,2.643,0,0,0-.84.127,2.158,2.158,0,0,0-.7.4,1.748,1.748,0,0,0-.5.757,3.5,3.5,0,0,0-.19,1.162V19H85.869V8.961h2.813v1.113A3.868,3.868,0,0,1,91.8,8.766ZM110.576,4h2.813V19h-2.666l-.068-1.309a2.867,2.867,0,0,1-1.274,1.138,4.29,4.29,0,0,1-1.88.405,4.883,4.883,0,0,1-1.875-.361,4.516,4.516,0,0,1-2.578-2.676,6.106,6.106,0,0,1-.381-2.2,5.707,5.707,0,0,1,.664-2.8,4.55,4.55,0,0,1,1.753-1.821,4.827,4.827,0,0,1,2.417-.615,4.4,4.4,0,0,1,1.821.366,2.843,2.843,0,0,1,1.255,1.04Zm-2.432,12.9a2.5,2.5,0,0,0,1.9-.8A2.932,2.932,0,0,0,110.8,14a2.938,2.938,0,0,0-.762-2.1,2.5,2.5,0,0,0-1.895-.806,2.53,2.53,0,0,0-1.909.791A2.937,2.937,0,0,0,105.479,14a2.924,2.924,0,0,0,.757,2.109A2.53,2.53,0,0,0,108.145,16.9Zm17.6-3.066-.029.674h-7.441a2.6,2.6,0,0,0,.8,1.836,2.561,2.561,0,0,0,1.768.635,2.468,2.468,0,0,0,1.323-.347,2.131,2.131,0,0,0,.845-1.011l2.578.381a4.383,4.383,0,0,1-1.758,2.354,5.226,5.226,0,0,1-2.969.84,5.435,5.435,0,0,1-3.911-1.382,5.042,5.042,0,0,1-1.45-3.833,5.072,5.072,0,0,1,1.455-3.833,5.273,5.273,0,0,1,3.818-1.4,5.04,5.04,0,0,1,3.6,1.279A5.019,5.019,0,0,1,125.742,13.834Zm-4.951-3.1a2.222,2.222,0,0,0-2.441,1.934h4.609a2.114,2.114,0,0,0-.693-1.436A2.2,2.2,0,0,0,120.791,10.738ZM133.076,19V4h2.842V19Zm13.984-2.725a9.391,9.391,0,0,0,.244,2.451V19h-2.627l-.225-1.094a3.264,3.264,0,0,1-1.406.967,5.183,5.183,0,0,1-1.816.322,4.776,4.776,0,0,1-.937-.088,3.187,3.187,0,0,1-.845-.3,2.563,2.563,0,0,1-.7-.522,2.291,2.291,0,0,1-.469-.8,3.17,3.17,0,0,1-.176-1.089,3.019,3.019,0,0,1,.186-1.089,2.552,2.552,0,0,1,.488-.815,2.962,2.962,0,0,1,.791-.6,6.052,6.052,0,0,1,1-.43,11.9,11.9,0,0,1,1.191-.312l1.65-.371a1.82,1.82,0,0,0,.747-.317.633.633,0,0,0,.22-.5,1.036,1.036,0,0,0-.493-.967,2.3,2.3,0,0,0-1.2-.293,1.721,1.721,0,0,0-1.963,1.533l-2.49-.449a3.371,3.371,0,0,1,1.455-2.29,5.783,5.783,0,0,1,3.154-.737q4.219,0,4.219,3.623Zm-4.951,1.016a2.262,2.262,0,0,0,1.738-.728,3.066,3.066,0,0,0,.674-2.153l-2.383.674a2.816,2.816,0,0,0-1,.41.842.842,0,0,0-.347.723.935.935,0,0,0,.371.8A1.536,1.536,0,0,0,142.109,17.291ZM7.344,38.766a4.882,4.882,0,0,1,1.875.361,4.692,4.692,0,0,1,1.538,1.016A4.6,4.6,0,0,1,11.8,41.8a6.557,6.557,0,0,1,0,4.4,4.6,4.6,0,0,1-1.04,1.655,4.692,4.692,0,0,1-1.538,1.016,4.882,4.882,0,0,1-1.875.361,4.356,4.356,0,0,1-1.816-.371,2.846,2.846,0,0,1-1.26-1.055v6.074H1.455V38.961H4.121L4.2,40.309a2.75,2.75,0,0,1,1.255-1.138A4.313,4.313,0,0,1,7.344,38.766ZM6.709,46.9a2.527,2.527,0,0,0,1.9-.786,3.332,3.332,0,0,0,0-4.229,2.527,2.527,0,0,0-1.9-.786,2.531,2.531,0,0,0-1.914.8,3.275,3.275,0,0,0,0,4.2A2.531,2.531,0,0,0,6.709,46.9Zm15.82-.625a9.392,9.392,0,0,0,.244,2.451V49H20.146l-.225-1.094a3.264,3.264,0,0,1-1.406.967A5.183,5.183,0,0,1,16.7,49.2a4.776,4.776,0,0,1-.937-.088,3.187,3.187,0,0,1-.845-.3,2.564,2.564,0,0,1-.7-.522,2.291,2.291,0,0,1-.469-.8,3.17,3.17,0,0,1-.176-1.089,3.02,3.02,0,0,1,.186-1.089,2.552,2.552,0,0,1,.488-.815,2.962,2.962,0,0,1,.791-.6,6.052,6.052,0,0,1,1-.43,11.9,11.9,0,0,1,1.191-.312l1.65-.371a1.82,1.82,0,0,0,.747-.317.633.633,0,0,0,.22-.5A1.036,1.036,0,0,0,19.351,41a2.3,2.3,0,0,0-1.2-.293,1.721,1.721,0,0,0-1.963,1.533l-2.49-.449a3.371,3.371,0,0,1,1.455-2.29,5.783,5.783,0,0,1,3.154-.737q4.219,0,4.219,3.623Zm-4.951,1.016a2.262,2.262,0,0,0,1.738-.728,3.066,3.066,0,0,0,.674-2.153l-2.383.674a2.816,2.816,0,0,0-1,.41.842.842,0,0,0-.347.723.935.935,0,0,0,.371.8A1.536,1.536,0,0,0,17.578,47.291Zm10.381-6.738a3.259,3.259,0,0,1,1.318-1.206,4.023,4.023,0,0,1,1.963-.5v2.51a3.8,3.8,0,0,0-2.4.605,2.643,2.643,0,0,0-.742,2.148V49H25.264V38.961h2.7ZM37.207,49a3.032,3.032,0,0,1-2.266-.815,3.172,3.172,0,0,1-.8-2.319V41.119H32.168V38.961H32.8a1.656,1.656,0,0,0,1.25-.42,2.162,2.162,0,0,0,.4-1.494V35.719h2.539v3.242h2.07v2.158h-2.07v4.443q0,1.3,1.162,1.3h.908V49Zm5.469-11.543a1.579,1.579,0,0,1-1.152-.474,1.555,1.555,0,0,1-.479-1.147,1.536,1.536,0,0,1,.483-1.138,1.584,1.584,0,0,1,1.147-.474,1.616,1.616,0,0,1,0,3.232ZM41.24,49V38.961h2.832V49ZM54.1,34h2.813V49H54.248l-.068-1.309a2.867,2.867,0,0,1-1.274,1.138,4.29,4.29,0,0,1-1.88.405,4.882,4.882,0,0,1-1.875-.361A4.516,4.516,0,0,1,46.572,46.2a6.106,6.106,0,0,1-.381-2.2,5.707,5.707,0,0,1,.664-2.8,4.55,4.55,0,0,1,1.753-1.821,4.827,4.827,0,0,1,2.417-.615,4.4,4.4,0,0,1,1.821.366,2.843,2.843,0,0,1,1.255,1.04ZM51.67,46.9a2.5,2.5,0,0,0,1.9-.8,3.289,3.289,0,0,0,0-4.2,2.5,2.5,0,0,0-1.895-.806,2.53,2.53,0,0,0-1.909.791,3.332,3.332,0,0,0,0,4.229A2.53,2.53,0,0,0,51.67,46.9Zm16.387-.625a9.392,9.392,0,0,0,.244,2.451V49H65.674l-.225-1.094a3.264,3.264,0,0,1-1.406.967,5.183,5.183,0,0,1-1.816.322,4.776,4.776,0,0,1-.937-.088,3.187,3.187,0,0,1-.845-.3,2.563,2.563,0,0,1-.7-.522,2.291,2.291,0,0,1-.469-.8A3.17,3.17,0,0,1,59.1,46.4a3.02,3.02,0,0,1,.186-1.089,2.552,2.552,0,0,1,.488-.815,2.962,2.962,0,0,1,.791-.6,6.052,6.052,0,0,1,1-.43,11.9,11.9,0,0,1,1.191-.312l1.65-.371a1.82,1.82,0,0,0,.747-.317.633.633,0,0,0,.22-.5A1.036,1.036,0,0,0,64.878,41a2.3,2.3,0,0,0-1.2-.293,1.721,1.721,0,0,0-1.963,1.533l-2.49-.449a3.371,3.371,0,0,1,1.455-2.29,5.783,5.783,0,0,1,3.154-.737q4.219,0,4.219,3.623Zm-4.951,1.016a2.262,2.262,0,0,0,1.738-.728,3.066,3.066,0,0,0,.674-2.153l-2.383.674a2.816,2.816,0,0,0-1,.41.842.842,0,0,0-.347.723.935.935,0,0,0,.371.8A1.536,1.536,0,0,0,63.105,47.291ZM85.43,43.834l-.029.674H77.959a2.6,2.6,0,0,0,.8,1.836,2.561,2.561,0,0,0,1.768.635,2.468,2.468,0,0,0,1.323-.347,2.131,2.131,0,0,0,.845-1.011L85.273,46a4.383,4.383,0,0,1-1.758,2.354,5.226,5.226,0,0,1-2.969.84,5.435,5.435,0,0,1-3.911-1.382,5.042,5.042,0,0,1-1.45-3.833,5.072,5.072,0,0,1,1.455-3.833,5.273,5.273,0,0,1,3.818-1.4,4.6,4.6,0,0,1,4.971,5.088Zm-4.951-3.1a2.222,2.222,0,0,0-2.441,1.934h4.609a2.114,2.114,0,0,0-.693-1.436A2.2,2.2,0,0,0,80.479,40.738ZM93.5,38.766a3.914,3.914,0,0,1,2.773.9,3.349,3.349,0,0,1,.967,2.573V49H94.414V42.848a1.749,1.749,0,0,0-.5-1.387,1.9,1.9,0,0,0-1.294-.439,2.643,2.643,0,0,0-.84.127,2.158,2.158,0,0,0-.7.4,1.748,1.748,0,0,0-.5.757,3.5,3.5,0,0,0-.19,1.162V49H87.568V38.961h2.813v1.113A3.868,3.868,0,0,1,93.5,38.766Zm21.1,5.068-.029.674h-7.441a2.6,2.6,0,0,0,.8,1.836,2.561,2.561,0,0,0,1.768.635,2.468,2.468,0,0,0,1.323-.347,2.131,2.131,0,0,0,.845-1.011l2.578.381a4.383,4.383,0,0,1-1.758,2.354,5.226,5.226,0,0,1-2.969.84,5.435,5.435,0,0,1-3.911-1.382,5.042,5.042,0,0,1-1.45-3.833,5.072,5.072,0,0,1,1.455-3.833,5.273,5.273,0,0,1,3.818-1.4,4.6,4.6,0,0,1,4.971,5.088Zm-4.951-3.1a2.222,2.222,0,0,0-2.441,1.934h4.609a2.114,2.114,0,0,0-.693-1.436A2.2,2.2,0,0,0,109.648,40.738ZM116.738,49V34h2.842V49ZM6,79.186A5.364,5.364,0,0,1,2.119,77.74a5.483,5.483,0,0,1,0-7.539A5.38,5.38,0,0,1,6,68.766a5.349,5.349,0,0,1,3.252.967,4.316,4.316,0,0,1,1.68,2.725l-2.6.283a2.225,2.225,0,0,0-.84-1.318,2.554,2.554,0,0,0-1.523-.439,2.3,2.3,0,0,0-1.836.82,3.686,3.686,0,0,0,0,4.331,2.3,2.3,0,0,0,1.836.825,2.532,2.532,0,0,0,1.519-.439A2.277,2.277,0,0,0,8.33,75.2l2.6.283a4.328,4.328,0,0,1-1.694,2.725A5.327,5.327,0,0,1,6,79.186Zm15.166-2.91a9.392,9.392,0,0,0,.244,2.451V79H18.779l-.225-1.094a3.264,3.264,0,0,1-1.406.967,5.183,5.183,0,0,1-1.816.322,4.776,4.776,0,0,1-.937-.088,3.187,3.187,0,0,1-.845-.3,2.564,2.564,0,0,1-.7-.522,2.291,2.291,0,0,1-.469-.8,3.17,3.17,0,0,1-.176-1.089,3.02,3.02,0,0,1,.186-1.089,2.552,2.552,0,0,1,.488-.815,2.962,2.962,0,0,1,.791-.6,6.053,6.053,0,0,1,1-.43,11.9,11.9,0,0,1,1.191-.312l1.65-.371a1.82,1.82,0,0,0,.747-.317.633.633,0,0,0,.22-.5A1.036,1.036,0,0,0,17.983,71a2.3,2.3,0,0,0-1.2-.293,1.721,1.721,0,0,0-1.963,1.533l-2.49-.449a3.371,3.371,0,0,1,1.455-2.29,5.783,5.783,0,0,1,3.154-.737q4.219,0,4.219,3.623Zm-4.951,1.016a2.262,2.262,0,0,0,1.738-.728,3.066,3.066,0,0,0,.674-2.153l-2.383.674a2.816,2.816,0,0,0-1,.41.842.842,0,0,0-.347.723.935.935,0,0,0,.371.8A1.536,1.536,0,0,0,16.211,77.291Zm13.574-8.525a4.883,4.883,0,0,1,1.875.361A4.692,4.692,0,0,1,33.2,70.143a4.6,4.6,0,0,1,1.04,1.655,6.557,6.557,0,0,1,0,4.4,4.6,4.6,0,0,1-1.04,1.655,4.692,4.692,0,0,1-1.538,1.016,4.883,4.883,0,0,1-1.875.361,4.356,4.356,0,0,1-1.816-.371,2.847,2.847,0,0,1-1.26-1.055v6.074H23.9V68.961h2.666l.078,1.348A2.75,2.75,0,0,1,27.9,69.171,4.313,4.313,0,0,1,29.785,68.766ZM29.15,76.9a2.527,2.527,0,0,0,1.9-.786,3.332,3.332,0,0,0,0-4.229,2.688,2.688,0,0,0-3.813.015,3.275,3.275,0,0,0,0,4.2A2.531,2.531,0,0,0,29.15,76.9Zm8.145-9.316,2.559-3.594,1.387.977-2.217,2.617ZM36.738,79V68.961H39.57V79Zm9.482,0a3.032,3.032,0,0,1-2.266-.815,3.172,3.172,0,0,1-.8-2.319V71.119H41.182V68.961h.635a1.656,1.656,0,0,0,1.25-.42,2.162,2.162,0,0,0,.4-1.494V65.719h2.539v3.242h2.07v2.158h-2.07v4.443q0,1.3,1.162,1.3h.908V79ZM56.9,68.961h2.813V79H57.051l-.068-1.211A3.834,3.834,0,0,1,53.789,79.2a3.914,3.914,0,0,1-2.773-.9,3.349,3.349,0,0,1-.967-2.573V68.961h2.822v6.152a1.735,1.735,0,0,0,.5,1.377,1.909,1.909,0,0,0,1.3.439,2.264,2.264,0,0,0,1.6-.571,2.454,2.454,0,0,0,.63-1.86ZM62.627,79V64h2.842V79Zm10.43.2a6.313,6.313,0,0,1-2.842-.615,4.6,4.6,0,0,1-1.948-1.807,5.384,5.384,0,0,1-.708-2.8,4.911,4.911,0,0,1,1.523-3.809,6.368,6.368,0,0,1,7.959,0,5.541,5.541,0,0,1,0,7.632A5.654,5.654,0,0,1,73.057,79.2Zm-.029-2.236a2.577,2.577,0,0,0,1.987-.82,3.484,3.484,0,0,0,0-4.336,2.577,2.577,0,0,0-1.987-.82,2.483,2.483,0,0,0-1.929.825,3.505,3.505,0,0,0,0,4.326A2.483,2.483,0,0,0,73.027,76.959Z" transform="translate(653 3963)" fill="#fd0d1b"/>
    <g id="Grupo_17430" data-name="Grupo 17430" transform="translate(-16.5)">
      <path id="Trazado_36706" data-name="Trazado 36706" d="M6248,2751.188h118.151" transform="translate(-5797 1296)" fill="none" stroke="#272727" stroke-width="2"/>
      <path id="Polgono_9" data-name="Polgono 9" d="M6.5,0,13,12H0Z" transform="translate(581.5 4040.5) rotate(90)" fill="#0a0a0a"/>
      <path id="Polgono_10" data-name="Polgono 10" d="M6.5,0,13,12H0Z" transform="translate(438.5 4053.5) rotate(-90)" fill="#0a0a0a"/>
    </g>
    <path id="Trazado_36876" data-name="Trazado 36876" d="M7.7-14.111A4.247,4.247,0,0,1,10.947-12.8a4.569,4.569,0,0,1,1.23,3.247,4.456,4.456,0,0,1-1.221,3.228A4.324,4.324,0,0,1,7.7-5.059H4.756V0H1.826V-14.111Zm-.488,6.6a2.153,2.153,0,0,0,1.611-.552A2.1,2.1,0,0,0,9.355-9.59,2.081,2.081,0,0,0,8.813-11.1a2.134,2.134,0,0,0-1.606-.562H4.756v4.15ZM22.666,0,21.641-2.91H15.713L14.688,0h-3l5.2-14.111h3.584L25.664,0ZM16.572-5.361h4.209l-2.1-5.986ZM35.234,0,31.563-6.211h-.85V0h-2.93V-14.111H32.9a5.919,5.919,0,0,1,2.051.327,3.546,3.546,0,0,1,1.421.908,3.889,3.889,0,0,1,.8,1.333,4.876,4.876,0,0,1,.269,1.65,3.446,3.446,0,0,1-.771,2.319,3.888,3.888,0,0,1-2.217,1.216L38.7,0ZM30.713-11.68v3.369h1.729q2.2,0,2.2-1.68a1.53,1.53,0,0,0-.537-1.24,2.554,2.554,0,0,0-1.66-.449Zm18.32-2.432v2.578h-3.35V0h-2.9V-11.533H39.414v-2.578ZM51.25,0V-14.111h2.93V0Zm6.572,0V-14.111H62.93a7.962,7.962,0,0,1,2.944.508,5.423,5.423,0,0,1,2.109,1.44,6.266,6.266,0,0,1,1.25,2.222,9.172,9.172,0,0,1,.425,2.881,9.206,9.206,0,0,1-.425,2.891,6.266,6.266,0,0,1-1.25,2.222,5.423,5.423,0,0,1-2.109,1.44A7.962,7.962,0,0,1,62.93,0Zm2.93-2.588h2.031a3.466,3.466,0,0,0,2.852-1.147,5.143,5.143,0,0,0,.938-3.325,5.143,5.143,0,0,0-.937-3.325,3.466,3.466,0,0,0-2.852-1.147H60.752ZM81.143,0,80.117-2.91H74.189L73.164,0h-3l5.2-14.111h3.584L84.141,0ZM75.049-5.361h4.209l-2.1-5.986Z" transform="translate(575 4144)" fill="#fec02d"/>
    <g id="Grupo_17431" data-name="Grupo 17431" transform="translate(-16.5 91)">
      <path id="Trazado_36706-2" data-name="Trazado 36706" d="M6248,2751.188h118.151" transform="translate(-5797 1296)" fill="none" stroke="#272727" stroke-width="2"/>
      <path id="Polgono_10-2" data-name="Polgono 10" d="M6.5,0,13,12H0Z" transform="translate(438.5 4053.5) rotate(-90)" fill="#0a0a0a"/>
    </g>
    <g id="Grupo_17432" data-name="Grupo 17432" transform="translate(230.5 91)">
      <path id="Trazado_36706-3" data-name="Trazado 36706" d="M6248,2751.188h118.151" transform="translate(-5797 1296)" fill="none" stroke="#272727" stroke-width="2"/>
      <path id="Polgono_9-2" data-name="Polgono 9" d="M6.5,0,13,12H0Z" transform="translate(581.5 4040.5) rotate(90)" fill="#0a0a0a"/>
    </g>
    <path id="Trazado_36878" data-name="Trazado 36878" d="M6.514.2A6.818,6.818,0,0,1,2.6-.884a4.328,4.328,0,0,1-1.9-3.022L3.721-4.6a2.571,2.571,0,0,0,.933,1.782,3.1,3.1,0,0,0,1.978.62,2.554,2.554,0,0,0,1.543-.435A1.466,1.466,0,0,0,8.76-3.916a1.37,1.37,0,0,0-.5-1.045,3.254,3.254,0,0,0-.991-.64q-.493-.19-1.587-.522-.146-.049-.215-.068-.557-.176-.9-.293t-.845-.327a5.625,5.625,0,0,1-.82-.41,6.006,6.006,0,0,1-.679-.508,2.66,2.66,0,0,1-.566-.649,3.45,3.45,0,0,1-.342-.811A3.577,3.577,0,0,1,1.182-10.2a3.778,3.778,0,0,1,.659-2.222,4.037,4.037,0,0,1,1.777-1.416,6.469,6.469,0,0,1,2.544-.474A8.036,8.036,0,0,1,8-14.1a6.448,6.448,0,0,1,1.646.63,4.031,4.031,0,0,1,1.313,1.162,4.37,4.37,0,0,1,.747,1.714l-2.832.7a2.294,2.294,0,0,0-2.539-2.021,2.78,2.78,0,0,0-1.572.41,1.39,1.39,0,0,0-.615,1.24q0,.771,1.025,1.25a15.28,15.28,0,0,0,1.963.674q.576.176.938.293t.908.342a6.311,6.311,0,0,1,.889.435,6.576,6.576,0,0,1,.742.542,2.919,2.919,0,0,1,.63.7,3.8,3.8,0,0,1,.386.874,3.653,3.653,0,0,1,.156,1.089A4.278,4.278,0,0,1,11.5-2.471a3.464,3.464,0,0,1-.776,1.2,4.508,4.508,0,0,1-1.167.825A5.661,5.661,0,0,1,8.125.044,8.256,8.256,0,0,1,6.514.2Zm13.2,0a7.3,7.3,0,0,1-2.173-.308A5.114,5.114,0,0,1,15.8-1.035a4.13,4.13,0,0,1-1.177-1.611A5.807,5.807,0,0,1,14.2-4.941v-9.17h2.93v8.77a3.067,3.067,0,0,0,.708,2.236,2.531,2.531,0,0,0,1.88.713,2.555,2.555,0,0,0,1.89-.718,3.043,3.043,0,0,0,.718-2.231v-8.77h2.93v9.17a5.807,5.807,0,0,1-.425,2.295,4.108,4.108,0,0,1-1.182,1.611A5.168,5.168,0,0,1,21.9-.112,7.338,7.338,0,0,1,19.717.2ZM36.191-7.451a3.3,3.3,0,0,1,2.656,3.5,3.789,3.789,0,0,1-1.123,2.9A4.64,4.64,0,0,1,34.424,0H28.613V-14.111h4.57a5.177,5.177,0,0,1,3.452,1.021,3.54,3.54,0,0,1,1.2,2.847,3.32,3.32,0,0,1-.415,1.675A2.733,2.733,0,0,1,36.191-7.451ZM33.213-11.68H31.436v3.32h1.9a1.784,1.784,0,0,0,1.348-.469,1.7,1.7,0,0,0,.449-1.23,1.515,1.515,0,0,0-.488-1.177A2.066,2.066,0,0,0,33.213-11.68Zm.664,9.17a2.25,2.25,0,0,0,1.616-.5,1.694,1.694,0,0,0,.513-1.27,1.774,1.774,0,0,0-.518-1.309,2.29,2.29,0,0,0-1.67-.518H31.436V-2.51Zm13.447-11.6A4.247,4.247,0,0,1,50.576-12.8a4.569,4.569,0,0,1,1.23,3.247,4.456,4.456,0,0,1-1.221,3.228,4.324,4.324,0,0,1-3.262,1.265H44.385V0h-2.93V-14.111Zm-.488,6.6a2.153,2.153,0,0,0,1.611-.552,2.1,2.1,0,0,0,.537-1.528,2.081,2.081,0,0,0-.542-1.509,2.134,2.134,0,0,0-1.606-.562H44.385v4.15ZM62.295,0,61.27-2.91H55.342L54.316,0h-3l5.2-14.111H60.1L65.293,0ZM56.2-5.361H60.41l-2.1-5.986ZM74.863,0,71.191-6.211h-.85V0h-2.93V-14.111h5.117a5.919,5.919,0,0,1,2.051.327A3.546,3.546,0,0,1,76-12.876a3.889,3.889,0,0,1,.8,1.333,4.876,4.876,0,0,1,.269,1.65A3.446,3.446,0,0,1,76.3-7.573a3.888,3.888,0,0,1-2.217,1.216L78.33,0ZM70.342-11.68v3.369H72.07q2.2,0,2.2-1.68a1.53,1.53,0,0,0-.537-1.24,2.554,2.554,0,0,0-1.66-.449Zm18.32-2.432v2.578h-3.35V0h-2.9V-11.533H79.043v-2.578ZM90.879,0V-14.111h2.93V0Zm6.572,0V-14.111h5.107a7.962,7.962,0,0,1,2.944.508,5.423,5.423,0,0,1,2.109,1.44,6.266,6.266,0,0,1,1.25,2.222,9.172,9.172,0,0,1,.425,2.881,9.206,9.206,0,0,1-.425,2.891,6.266,6.266,0,0,1-1.25,2.222A5.423,5.423,0,0,1,105.5-.508,7.962,7.962,0,0,1,102.559,0Zm2.93-2.588h2.031a3.466,3.466,0,0,0,2.852-1.147,5.143,5.143,0,0,0,.938-3.325,5.143,5.143,0,0,0-.937-3.325,3.466,3.466,0,0,0-2.852-1.147h-2.031ZM120.771,0l-1.025-2.91h-5.928L112.793,0h-3l5.2-14.111h3.584L123.77,0Zm-6.094-5.361h4.209l-2.1-5.986Z" transform="translate(669 4198)" fill="#fec02d"/>
    <g id="Grupo_17433" data-name="Grupo 17433" transform="translate(-16.5 145)">
      <path id="Trazado_36706-4" data-name="Trazado 36706" d="M6248,2751.188h214.552" transform="translate(-5797 1296)" fill="none" stroke="#272727" stroke-width="2"/>
      <path id="Polgono_10-3" data-name="Polgono 10" d="M6.5,0,13,12H0Z" transform="translate(438.5 4053.5) rotate(-90)" fill="#0a0a0a"/>
    </g>
    <g id="Grupo_17434" data-name="Grupo 17434" transform="translate(808 4185.5)">
      <path id="Trazado_36706-5" data-name="Trazado 36706" d="M6462.552,2751.188H6248" transform="translate(-6248 -2744.5)" fill="none" stroke="#272727" stroke-width="2"/>
      <path id="Polgono_10-4" data-name="Polgono 10" d="M6.5,0,13,12H0Z" transform="translate(227.052) rotate(90)" fill="#0a0a0a"/>
    </g>
    <path id="Trazado_36882" data-name="Trazado 36882" d="M6.514.2A6.818,6.818,0,0,1,2.6-.884a4.328,4.328,0,0,1-1.9-3.022L3.721-4.6a2.571,2.571,0,0,0,.933,1.782,3.1,3.1,0,0,0,1.978.62,2.554,2.554,0,0,0,1.543-.435A1.466,1.466,0,0,0,8.76-3.916a1.37,1.37,0,0,0-.5-1.045,3.254,3.254,0,0,0-.991-.64q-.493-.19-1.587-.522-.146-.049-.215-.068-.557-.176-.9-.293t-.845-.327a5.625,5.625,0,0,1-.82-.41,6.006,6.006,0,0,1-.679-.508,2.66,2.66,0,0,1-.566-.649,3.45,3.45,0,0,1-.342-.811A3.577,3.577,0,0,1,1.182-10.2a3.778,3.778,0,0,1,.659-2.222,4.037,4.037,0,0,1,1.777-1.416,6.469,6.469,0,0,1,2.544-.474A8.036,8.036,0,0,1,8-14.1a6.448,6.448,0,0,1,1.646.63,4.031,4.031,0,0,1,1.313,1.162,4.37,4.37,0,0,1,.747,1.714l-2.832.7a2.294,2.294,0,0,0-2.539-2.021,2.78,2.78,0,0,0-1.572.41,1.39,1.39,0,0,0-.615,1.24q0,.771,1.025,1.25a15.28,15.28,0,0,0,1.963.674q.576.176.938.293t.908.342a6.311,6.311,0,0,1,.889.435,6.576,6.576,0,0,1,.742.542,2.919,2.919,0,0,1,.63.7,3.8,3.8,0,0,1,.386.874,3.653,3.653,0,0,1,.156,1.089A4.278,4.278,0,0,1,11.5-2.471a3.464,3.464,0,0,1-.776,1.2,4.508,4.508,0,0,1-1.167.825A5.661,5.661,0,0,1,8.125.044,8.256,8.256,0,0,1,6.514.2ZM14.492,0V-14.111h2.93V0Zm11.26.2A6.818,6.818,0,0,1,21.836-.884a4.328,4.328,0,0,1-1.9-3.022L22.959-4.6a2.571,2.571,0,0,0,.933,1.782,3.1,3.1,0,0,0,1.978.62,2.554,2.554,0,0,0,1.543-.435A1.466,1.466,0,0,0,28-3.916a1.37,1.37,0,0,0-.5-1.045,3.254,3.254,0,0,0-.991-.64q-.493-.19-1.587-.522-.146-.049-.215-.068-.557-.176-.9-.293t-.845-.327a5.625,5.625,0,0,1-.82-.41,6.006,6.006,0,0,1-.679-.508,2.66,2.66,0,0,1-.566-.649,3.45,3.45,0,0,1-.342-.811A3.577,3.577,0,0,1,20.42-10.2a3.778,3.778,0,0,1,.659-2.222,4.037,4.037,0,0,1,1.777-1.416,6.469,6.469,0,0,1,2.544-.474,8.036,8.036,0,0,1,1.841.205,6.448,6.448,0,0,1,1.646.63A4.031,4.031,0,0,1,30.2-12.31a4.37,4.37,0,0,1,.747,1.714l-2.832.7a2.294,2.294,0,0,0-2.539-2.021A2.78,2.78,0,0,0,24-11.5a1.39,1.39,0,0,0-.615,1.24q0,.771,1.025,1.25a15.28,15.28,0,0,0,1.963.674q.576.176.938.293t.908.342a6.311,6.311,0,0,1,.889.435,6.576,6.576,0,0,1,.742.542,2.919,2.919,0,0,1,.63.7,3.8,3.8,0,0,1,.386.874,3.653,3.653,0,0,1,.156,1.089,4.278,4.278,0,0,1-.283,1.592,3.464,3.464,0,0,1-.776,1.2A4.508,4.508,0,0,1,28.8-.444a5.661,5.661,0,0,1-1.436.488A8.256,8.256,0,0,1,25.752.2Zm16.1-14.307v2.578h-3.35V0h-2.9V-11.533H32.236v-2.578Zm10.4,2.578H47.021v3.2H51.66v2.549H47.021v3.193h5.234V0H44.072V-14.111h8.184ZM71.445,0h-2.92L67.6-10.635,64.023,0H62.129L58.555-10.635,57.617,0h-2.93l1.182-14.111h4.18l3.008,8.857L66.1-14.111h4.18Zm12.51,0L82.93-2.91H77L75.977,0h-3l5.2-14.111h3.584L86.953,0ZM77.861-5.361H82.07l-2.1-5.986ZM103.711,0l-1.025-2.91H96.758L95.732,0h-3l5.2-14.111h3.584L106.709,0ZM97.617-5.361h4.209l-2.1-5.986ZM116.279,0l-3.672-6.211h-.85V0h-2.93V-14.111h5.117a5.919,5.919,0,0,1,2.051.327,3.546,3.546,0,0,1,1.421.908,3.889,3.889,0,0,1,.8,1.333,4.876,4.876,0,0,1,.269,1.65,3.446,3.446,0,0,1-.771,2.319A3.888,3.888,0,0,1,115.5-6.357L119.746,0Zm-4.521-11.68v3.369h1.729q2.2,0,2.2-1.68a1.53,1.53,0,0,0-.537-1.24,2.554,2.554,0,0,0-1.66-.449ZM138.066,0h-2.92l-.928-10.635L130.645,0H128.75l-3.574-10.635L124.238,0h-2.93l1.182-14.111h4.18l3.008,8.857,3.047-8.857h4.18Zm9.316.2a7.671,7.671,0,0,1-3.706-.884A6.407,6.407,0,0,1,141.1-3.232a7.651,7.651,0,0,1-.937-3.828,7.644,7.644,0,0,1,.938-3.833,6.382,6.382,0,0,1,2.573-2.534,7.705,7.705,0,0,1,3.706-.879,7.677,7.677,0,0,1,3.7.879,6.391,6.391,0,0,1,2.568,2.534,7.644,7.644,0,0,1,.938,3.833,7.651,7.651,0,0,1-.937,3.828,6.407,6.407,0,0,1-2.573,2.544A7.65,7.65,0,0,1,147.383.2ZM144.3-3.721a4.145,4.145,0,0,0,3.086,1.23,4.136,4.136,0,0,0,3.086-1.235,4.558,4.558,0,0,0,1.211-3.335,4.528,4.528,0,0,0-1.211-3.32,4.145,4.145,0,0,0-3.086-1.23,4.145,4.145,0,0,0-3.086,1.23,4.528,4.528,0,0,0-1.211,3.32A4.575,4.575,0,0,0,144.3-3.721Zm22.627-10.391h2.92V0h-3.389l-6.25-10.088V0h-2.92V-14.111h3.35l6.289,10.029ZM173.5,0V-14.111h2.93V0Zm9.141-2.588h6.777V0H179.131V-2.314l6.689-9.219h-6.68v-2.578h10.146V-11.8ZM201.543,0l-1.025-2.91H194.59L193.564,0h-3l5.2-14.111h3.584L204.541,0Zm-6.094-5.361h4.209l-2.1-5.986ZM206.66,0V-14.111h5.107a7.962,7.962,0,0,1,2.944.508,5.423,5.423,0,0,1,2.109,1.44,6.266,6.266,0,0,1,1.25,2.222,9.172,9.172,0,0,1,.425,2.881,9.206,9.206,0,0,1-.425,2.891,6.266,6.266,0,0,1-1.25,2.222,5.423,5.423,0,0,1-2.109,1.44A7.962,7.962,0,0,1,211.768,0Zm2.93-2.588h2.031a3.466,3.466,0,0,0,2.852-1.147,5.143,5.143,0,0,0,.938-3.325,5.143,5.143,0,0,0-.937-3.325,3.466,3.466,0,0,0-2.852-1.147H209.59ZM227.49.2a7.671,7.671,0,0,1-3.706-.884,6.407,6.407,0,0,1-2.573-2.544,7.651,7.651,0,0,1-.937-3.828,7.644,7.644,0,0,1,.938-3.833,6.382,6.382,0,0,1,2.573-2.534,7.705,7.705,0,0,1,3.706-.879,7.677,7.677,0,0,1,3.7.879,6.391,6.391,0,0,1,2.568,2.534,7.644,7.644,0,0,1,.938,3.833,7.651,7.651,0,0,1-.937,3.828,6.407,6.407,0,0,1-2.573,2.544A7.65,7.65,0,0,1,227.49.2ZM224.4-3.721a4.145,4.145,0,0,0,3.086,1.23,4.136,4.136,0,0,0,3.086-1.235,4.558,4.558,0,0,0,1.211-3.335,4.528,4.528,0,0,0-1.211-3.32,4.145,4.145,0,0,0-3.086-1.23,4.145,4.145,0,0,0-3.086,1.23,4.528,4.528,0,0,0-1.211,3.32A4.575,4.575,0,0,0,224.4-3.721Z" transform="translate(634 4258)" fill="#4f81bd"/>
    <g id="Grupo_17435" data-name="Grupo 17435" transform="translate(-16.5 205)">
      <path id="Trazado_36706-6" data-name="Trazado 36706" d="M6248,2751.188h179.927" transform="translate(-5797 1296)" fill="none" stroke="#272727" stroke-width="2"/>
      <path id="Polgono_10-5" data-name="Polgono 10" d="M6.5,0,13,12H0Z" transform="translate(438.5 4053.5) rotate(-90)" fill="#0a0a0a"/>
    </g>
    <g id="Grupo_17436" data-name="Grupo 17436" transform="translate(837 4245.5)">
      <path id="Trazado_36706-7" data-name="Trazado 36706" d="M6375.329,2751.188H6248" transform="translate(-6195.401 -2744.5)" fill="none" stroke="#272727" stroke-width="2"/>
      <path id="Polgono_10-6" data-name="Polgono 10" d="M6.5,0,13,12H0Z" transform="translate(192.427) rotate(90)" fill="#0a0a0a"/>
    </g>
    <path id="Trazado_36883" data-name="Trazado 36883" d="M11.465-14.111h2.92V0H11L4.746-10.088V0H1.826V-14.111h3.35L11.465-4.082ZM27.48,0,26.455-2.91H20.527L19.5,0h-3l5.2-14.111h3.584L30.479,0ZM21.387-5.361H25.6l-2.1-5.986Zm20.85-8.75h2.92V0H41.768l-6.25-10.088V0H32.6V-14.111h3.35L42.236-4.082ZM48.809,0V-14.111h5.107a7.962,7.962,0,0,1,2.944.508,5.423,5.423,0,0,1,2.109,1.44,6.266,6.266,0,0,1,1.25,2.222,9.172,9.172,0,0,1,.425,2.881A9.206,9.206,0,0,1,60.22-4.17a6.266,6.266,0,0,1-1.25,2.222A5.423,5.423,0,0,1,56.86-.508,7.962,7.962,0,0,1,53.916,0Zm2.93-2.588H53.77a3.466,3.466,0,0,0,2.852-1.147,5.143,5.143,0,0,0,.938-3.325,5.143,5.143,0,0,0-.937-3.325,3.466,3.466,0,0,0-2.852-1.147H51.738ZM63.389,0V-14.111h2.93V0ZM79.6-14.111h2.92V0H79.131l-6.25-10.088V0h-2.92V-14.111h3.35L79.6-4.082ZM95.615,0,94.59-2.91H88.662L87.637,0h-3l5.2-14.111h3.584L98.613,0ZM89.521-5.361H93.73l-2.1-5.986Z" transform="translate(669 4318)" fill="#fec02d"/>
    <g id="Grupo_17437" data-name="Grupo 17437" transform="translate(-16.5 265)">
      <path id="Trazado_36706-8" data-name="Trazado 36706" d="M6248,2751.188h214.552" transform="translate(-5797 1296)" fill="none" stroke="#272727" stroke-width="2"/>
      <path id="Polgono_10-7" data-name="Polgono 10" d="M6.5,0,13,12H0Z" transform="translate(438.5 4053.5) rotate(-90)" fill="#0a0a0a"/>
    </g>
    <g id="Grupo_17438" data-name="Grupo 17438" transform="translate(900 4305.5)">
      <path id="Trazado_36706-9" data-name="Trazado 36706" d="M6726.886,2751.188H6248" transform="translate(-6365.459 -2744.5)" fill="none" stroke="#272727" stroke-width="2"/>
      <path id="Polgono_10-8" data-name="Polgono 10" d="M6.5,0,13,12H0Z" transform="translate(373.427) rotate(90)" fill="#0a0a0a"/>
    </g>
    <path id="Trazado_36886" data-name="Trazado 36886" d="M11.27,0,10.244-2.91H4.316L3.291,0h-3l5.2-14.111H9.072L14.268,0ZM5.176-5.361H9.385l-2.1-5.986ZM23.838,0,20.166-6.211h-.85V0h-2.93V-14.111H21.5a5.919,5.919,0,0,1,2.051.327,3.546,3.546,0,0,1,1.421.908,3.889,3.889,0,0,1,.8,1.333,4.876,4.876,0,0,1,.269,1.65,3.446,3.446,0,0,1-.771,2.319,3.888,3.888,0,0,1-2.217,1.216L27.3,0ZM19.316-11.68v3.369h1.729q2.2,0,2.2-1.68a1.53,1.53,0,0,0-.537-1.24,2.554,2.554,0,0,0-1.66-.449ZM39.014,0,37.988-2.91H32.061L31.035,0h-3l5.2-14.111h3.584L42.012,0ZM32.92-5.361h4.209l-2.1-5.986Zm20.85-8.75h2.92V0H53.3l-6.25-10.088V0h-2.92V-14.111h3.35L53.77-4.082ZM66.592.2a7.877,7.877,0,0,1-2.876-.518,6.763,6.763,0,0,1-2.29-1.445,6.515,6.515,0,0,1-1.5-2.295,8,8,0,0,1-.547-3,7.644,7.644,0,0,1,.938-3.833,6.382,6.382,0,0,1,2.573-2.534,7.705,7.705,0,0,1,3.706-.879,7.488,7.488,0,0,1,4.141,1.143,6.255,6.255,0,0,1,2.529,3.145l-2.734,1a3.865,3.865,0,0,0-1.514-1.9,4.323,4.323,0,0,0-2.422-.684,4.145,4.145,0,0,0-3.086,1.23,4.528,4.528,0,0,0-1.211,3.32,4.534,4.534,0,0,0,1.216,3.325A4.14,4.14,0,0,0,66.592-2.5a4.307,4.307,0,0,0,2.417-.688A3.883,3.883,0,0,0,70.527-5.1l2.734,1A6.28,6.28,0,0,1,70.732-.952,7.464,7.464,0,0,1,66.592.2ZM83.848-11.533H78.613v3.2h4.639v2.549H78.613v3.193h5.234V0H75.664V-14.111h8.184Zm5.947,8.945h4.424V0H86.865V-14.111h2.93ZM107.9.2a7.877,7.877,0,0,1-2.876-.518,6.763,6.763,0,0,1-2.29-1.445,6.515,6.515,0,0,1-1.5-2.295,8,8,0,0,1-.547-3,7.644,7.644,0,0,1,.938-3.833,6.383,6.383,0,0,1,2.573-2.534,7.705,7.705,0,0,1,3.706-.879,7.488,7.488,0,0,1,4.141,1.143,6.255,6.255,0,0,1,2.529,3.145l-2.734,1a3.865,3.865,0,0,0-1.514-1.9,4.323,4.323,0,0,0-2.422-.684,4.145,4.145,0,0,0-3.086,1.23,4.528,4.528,0,0,0-1.211,3.32,4.534,4.534,0,0,0,1.216,3.325A4.14,4.14,0,0,0,107.9-2.5a4.307,4.307,0,0,0,2.417-.688A3.883,3.883,0,0,0,111.836-5.1l2.734,1a6.28,6.28,0,0,1-2.529,3.149A7.464,7.464,0,0,1,107.9.2Zm15.322,0a7.671,7.671,0,0,1-3.706-.884,6.407,6.407,0,0,1-2.573-2.544,7.651,7.651,0,0,1-.937-3.828,7.644,7.644,0,0,1,.938-3.833,6.383,6.383,0,0,1,2.573-2.534,7.705,7.705,0,0,1,3.706-.879,7.677,7.677,0,0,1,3.7.879,6.391,6.391,0,0,1,2.568,2.534,7.644,7.644,0,0,1,.938,3.833,7.651,7.651,0,0,1-.937,3.828,6.407,6.407,0,0,1-2.573,2.544A7.65,7.65,0,0,1,123.223.2Zm-3.086-3.916a4.145,4.145,0,0,0,3.086,1.23,4.136,4.136,0,0,0,3.086-1.235,4.558,4.558,0,0,0,1.211-3.335,4.528,4.528,0,0,0-1.211-3.32,4.145,4.145,0,0,0-3.086-1.23,4.145,4.145,0,0,0-3.086,1.23,4.528,4.528,0,0,0-1.211,3.32A4.575,4.575,0,0,0,120.137-3.721Zm15.918,1.133h4.424V0h-7.354V-14.111h2.93ZM148.682.2a7.671,7.671,0,0,1-3.706-.884A6.407,6.407,0,0,1,142.4-3.232a7.651,7.651,0,0,1-.937-3.828,7.644,7.644,0,0,1,.938-3.833,6.382,6.382,0,0,1,2.573-2.534,7.705,7.705,0,0,1,3.706-.879,7.677,7.677,0,0,1,3.7.879,6.391,6.391,0,0,1,2.568,2.534,7.644,7.644,0,0,1,.938,3.833,7.651,7.651,0,0,1-.937,3.828,6.407,6.407,0,0,1-2.573,2.544A7.65,7.65,0,0,1,148.682.2ZM145.6-3.721a4.145,4.145,0,0,0,3.086,1.23,4.136,4.136,0,0,0,3.086-1.235,4.558,4.558,0,0,0,1.211-3.335,4.528,4.528,0,0,0-1.211-3.32,4.145,4.145,0,0,0-3.086-1.23,4.145,4.145,0,0,0-3.086,1.23,4.528,4.528,0,0,0-1.211,3.32A4.575,4.575,0,0,0,145.6-3.721ZM174.756,0h-2.92l-.928-10.635L167.334,0h-1.895l-3.574-10.635L160.928,0H158l1.182-14.111h4.18l3.008,8.857,3.047-8.857h4.18ZM185.4-7.451a3.3,3.3,0,0,1,2.656,3.5,3.789,3.789,0,0,1-1.123,2.9,4.64,4.64,0,0,1-3.3,1.06h-5.811V-14.111h4.57a5.177,5.177,0,0,1,3.452,1.021,3.54,3.54,0,0,1,1.2,2.847,3.32,3.32,0,0,1-.415,1.675A2.733,2.733,0,0,1,185.4-7.451Zm-2.979-4.229h-1.777v3.32h1.9a1.784,1.784,0,0,0,1.348-.469,1.7,1.7,0,0,0,.449-1.23,1.515,1.515,0,0,0-.488-1.177A2.066,2.066,0,0,0,182.422-11.68Zm.664,9.17a2.25,2.25,0,0,0,1.616-.5,1.694,1.694,0,0,0,.513-1.27,1.774,1.774,0,0,0-.518-1.309,2.29,2.29,0,0,0-1.67-.518h-2.383V-2.51ZM190.664,0V-14.111h2.93V0ZM206.68,0l-1.025-2.91h-5.928L198.7,0h-3l5.2-14.111h3.584L209.678,0Zm-6.094-5.361h4.209l-2.1-5.986Zm20.85-8.75h2.92V0h-3.389l-6.25-10.088V0H211.8V-14.111h3.35l6.289,10.029ZM234.258.2a7.671,7.671,0,0,1-3.706-.884,6.407,6.407,0,0,1-2.573-2.544,7.651,7.651,0,0,1-.937-3.828,7.644,7.644,0,0,1,.938-3.833,6.382,6.382,0,0,1,2.573-2.534,7.705,7.705,0,0,1,3.706-.879,7.677,7.677,0,0,1,3.7.879,6.391,6.391,0,0,1,2.568,2.534,7.644,7.644,0,0,1,.938,3.833,7.651,7.651,0,0,1-.937,3.828,6.407,6.407,0,0,1-2.573,2.544A7.65,7.65,0,0,1,234.258.2Zm-3.086-3.916a4.145,4.145,0,0,0,3.086,1.23,4.136,4.136,0,0,0,3.086-1.235,4.558,4.558,0,0,0,1.211-3.335,4.528,4.528,0,0,0-1.211-3.32,4.145,4.145,0,0,0-3.086-1.23,4.145,4.145,0,0,0-3.086,1.23,4.528,4.528,0,0,0-1.211,3.32A4.575,4.575,0,0,0,231.172-3.721Z" transform="translate(669 4378)" fill="#fd0d1b"/>
    <g id="Grupo_17439" data-name="Grupo 17439" transform="translate(-16.5 325)">
      <path id="Trazado_36706-10" data-name="Trazado 36706" d="M6248,2751.188h214.552" transform="translate(-5797 1296)" fill="none" stroke="#272727" stroke-width="2"/>
      <path id="Polgono_10-9" data-name="Polgono 10" d="M6.5,0,13,12H0Z" transform="translate(438.5 4053.5) rotate(-90)" fill="#0a0a0a"/>
    </g>
    <g id="Grupo_17440" data-name="Grupo 17440" transform="translate(1060 4365.5)">
      <path id="Trazado_36706-11" data-name="Trazado 36706" d="M6791.46,2751.188H6248" transform="translate(-6365.459 -2744.5)" fill="none" stroke="#272727" stroke-width="2"/>
      <path id="Polgono_10-10" data-name="Polgono 10" d="M6.5,0,13,12H0Z" transform="translate(438) rotate(90)" fill="#0a0a0a"/>
    </g>
  </g>
</svg>
