<svg xmlns="http://www.w3.org/2000/svg" xmlns:xlink="http://www.w3.org/1999/xlink" width="63" height="63" viewBox="0 0 63 63">
  <defs>
    <clipPath id="clip-path">
      <rect id="Rectángulo_3828" data-name="Rectángulo 3828" width="40.74" height="42.192" fill="none"/>
    </clipPath>
  </defs>
  <g id="Grupo_17476" data-name="Grupo 17476" transform="translate(-546 -6844)">
    <g id="Grupo_17461" data-name="Grupo 17461">
      <g id="Elipse_957" data-name="Elipse 957" transform="translate(546 6844)" fill="#fff" stroke="#472ea6" stroke-width="1">
        <circle cx="31.5" cy="31.5" r="31.5" stroke="none"/>
        <circle cx="31.5" cy="31.5" r="31" fill="none"/>
      </g>
      <g id="Grupo_12403" data-name="Grupo 12403" transform="translate(557.972 6853.808)">
        <g id="Grupo_12402" data-name="Grupo 12402" clip-path="url(#clip-path)">
          <path id="Trazado_36540" data-name="Trazado 36540" d="M99.9,222.189c0,.871-3.55,1.577-7.929,1.577s-7.929-.706-7.929-1.577,3.55-1.577,7.929-1.577,7.929.706,7.929,1.577" transform="translate(-75.714 -198.742)" fill="#7eb9c7"/>
          <path id="Trazado_36541" data-name="Trazado 36541" d="M88.137,94.645v0c0-1.556,1.712-2.659,3.3-2.946h8.751v.015a3.129,3.129,0,0,1,2.868,2.931v4.225h-2.868v7.171H91.005V98.866H88.09Z" transform="translate(-79.357 -82.605)" fill="#f04f4c"/>
          <path id="Trazado_36542" data-name="Trazado 36542" d="M97.748,103.631H87.975V96.46H85.056l.05-4.522a2.8,2.8,0,0,1,1.164-2.18A5.422,5.422,0,0,1,88.646,88.7l.053,0h9.048v.048a3.57,3.57,0,0,1,1.882.972,3.114,3.114,0,0,1,.986,2.223V96.46H97.748Zm-9.178-.595h8.584V95.866h2.868V91.944a2.837,2.837,0,0,0-2.592-2.64l-.2-.014H88.727c-1.472.275-3.025,1.292-3.025,2.648v.008l-.044,3.92h2.912Z" transform="translate(-76.624 -79.902)" fill="#3d4451"/>
          <path id="Trazado_36543" data-name="Trazado 36543" d="M139.271,93.7h-5.726a2.99,2.99,0,0,0,5.969,0Zm-2.741,2.333a2.319,2.319,0,0,1-2.359-1.759h4.718a2.319,2.319,0,0,1-2.358,1.759" transform="translate(-120.306 -84.407)" fill="#fdc345"/>
          <path id="Trazado_36544" data-name="Trazado 36544" d="M129.111,142.612h.5a1.282,1.282,0,0,1,.222.014.3.3,0,0,1,.131.059.351.351,0,0,1,.1.119.355.355,0,0,1,.038.166.364.364,0,0,1-.047.183.308.308,0,0,1-.128.125.328.328,0,0,1,.176.129.373.373,0,0,1,.062.214.469.469,0,0,1-.04.188.372.372,0,0,1-.108.146.331.331,0,0,1-.169.067q-.063.008-.3.01h-.426Zm.253.236v.328h.166q.148,0,.183,0a.159.159,0,0,0,.1-.051.162.162,0,0,0,.037-.111.17.17,0,0,0-.032-.107.139.139,0,0,0-.1-.05q-.038,0-.216,0Zm0,.564v.38h.234a1.007,1.007,0,0,0,.173-.009.152.152,0,0,0,.092-.057.19.19,0,0,0,.035-.121.2.2,0,0,0-.027-.108.157.157,0,0,0-.079-.065.76.76,0,0,0-.224-.02Z" transform="translate(-116.312 -128.475)" fill="#3d4451"/>
          <path id="Trazado_36545" data-name="Trazado 36545" d="M143.61,144.031v-1.419h.532a.809.809,0,0,1,.291.038.3.3,0,0,1,.146.136.451.451,0,0,1,.055.224.411.411,0,0,1-.083.264.38.38,0,0,1-.248.131.606.606,0,0,1,.135.119,1.62,1.62,0,0,1,.144.23l.153.277h-.3l-.183-.309a2.009,2.009,0,0,0-.133-.209.2.2,0,0,0-.076-.059.371.371,0,0,0-.127-.016h-.051v.593Zm.253-.819h.187a.854.854,0,0,0,.227-.017.139.139,0,0,0,.071-.06.2.2,0,0,0,.026-.107.186.186,0,0,0-.034-.116.149.149,0,0,0-.1-.056,1.839,1.839,0,0,0-.184,0h-.2Z" transform="translate(-129.374 -128.475)" fill="#3d4451"/>
          <path id="Trazado_36546" data-name="Trazado 36546" d="M158.072,144.031H157.8l-.109-.322h-.5l-.1.322h-.268l.487-1.419h.267Zm-.465-.562-.172-.527-.169.527Z" transform="translate(-141.27 -128.475)" fill="#3d4451"/>
          <path id="Trazado_36547" data-name="Trazado 36547" d="M172.625,144.032v-1.419h.246l.512.948v-.948h.235v1.419h-.253l-.5-.926v.926Z" transform="translate(-155.512 -128.475)" fill="#3d4451"/>
          <path id="Trazado_36548" data-name="Trazado 36548" d="M187.089,142.612h.462a.8.8,0,0,1,.238.027.413.413,0,0,1,.189.131.642.642,0,0,1,.119.23,1.176,1.176,0,0,1,.041.336,1.047,1.047,0,0,1-.038.3.643.643,0,0,1-.134.251.435.435,0,0,1-.178.113.679.679,0,0,1-.224.03h-.475Zm.253.24v.94h.189a.616.616,0,0,0,.153-.013.226.226,0,0,0,.1-.059.313.313,0,0,0,.066-.137,1.046,1.046,0,0,0,.026-.26.959.959,0,0,0-.026-.253.337.337,0,0,0-.072-.137.231.231,0,0,0-.117-.067,1.013,1.013,0,0,0-.207-.014Z" transform="translate(-168.542 -128.475)" fill="#3d4451"/>
          <path id="Trazado_36549" data-name="Trazado 36549" d="M38.592,35.2a15.192,15.192,0,1,0,0,21.485,15.192,15.192,0,0,0,0-21.485M36.83,54.922a12.7,12.7,0,1,1,0-17.961,12.7,12.7,0,0,1,0,17.961" transform="translate(-11.403 -27.702)" fill="#c7ddeb"/>
          <path id="Trazado_36550" data-name="Trazado 36550" d="M309.95,330.3a1.551,1.551,0,0,1,.159,2.155l-1.462,1.462a1.551,1.551,0,0,1-2.155-.159l-5.56-5.56a1.511,1.511,0,0,1-.13-2.125l1.462-1.462a1.511,1.511,0,0,1,2.125.13Z" transform="translate(-270.643 -292.091)" fill="#c7ddeb"/>
          <path id="Trazado_36551" data-name="Trazado 36551" d="M15.813,44.231a15.8,15.8,0,1,1,11.181-4.624,15.763,15.763,0,0,1-11.181,4.624m0-30.377a14.572,14.572,0,1,0,10.3,4.268,14.476,14.476,0,0,0-10.3-4.268" transform="translate(0 -11.362)" fill="#3d4451"/>
          <path id="Trazado_36552" data-name="Trazado 36552" d="M40.505,66.263a13.089,13.089,0,1,1,9.26-3.829,13.054,13.054,0,0,1-9.26,3.829m0-25.434a12.345,12.345,0,1,0,8.733,3.612,12.311,12.311,0,0,0-8.733-3.612" transform="translate(-24.693 -36.111)" fill="#3d4451"/>
          <path id="Trazado_36553" data-name="Trazado 36553" d="M262.945,267.893l-4.511-4.51,2.893-2.893,4.51,4.511Zm-3.614-4.51L262.945,267l2-2-3.614-3.614Z" transform="translate(-232.815 -234.667)" fill="#3d4451"/>
          <path id="Trazado_36554" data-name="Trazado 36554" d="M307.258,313.514l-.084,0a1.965,1.965,0,0,1-1.307-.578l-5.56-5.56a1.9,1.9,0,0,1-.564-1.3,1.737,1.737,0,0,1,.507-1.287l1.569-1.569a1.734,1.734,0,0,1,1.288-.507,1.9,1.9,0,0,1,1.3.563l5.56,5.56a1.966,1.966,0,0,1,.578,1.307,1.716,1.716,0,0,1-.492,1.307l-1.569,1.569a1.707,1.707,0,0,1-1.223.494m-4.2-10.256a1.2,1.2,0,0,0-.855.348l-1.569,1.569a1.2,1.2,0,0,0-.347.888,1.356,1.356,0,0,0,.4.925l5.56,5.56a1.442,1.442,0,0,0,.945.419,1.183,1.183,0,0,0,.9-.333l1.569-1.569a1.177,1.177,0,0,0,.333-.9,1.442,1.442,0,0,0-.419-.945l-5.56-5.56a1.356,1.356,0,0,0-.925-.4h-.034" transform="translate(-270.029 -272.704)" fill="#3d4451"/>
          <path id="Trazado_36555" data-name="Trazado 36555" d="M305.22,311.7l-.094,0a2.189,2.189,0,0,1-1.456-.644l-5.56-5.56a2.122,2.122,0,0,1-.629-1.45,1.959,1.959,0,0,1,.573-1.452l1.569-1.569a1.963,1.963,0,0,1,1.452-.573,2.122,2.122,0,0,1,1.45.629l5.56,5.56a2.19,2.19,0,0,1,.643,1.456,1.937,1.937,0,0,1-.558,1.475L306.6,311.14a1.928,1.928,0,0,1-1.381.559m-4.2-10.256a.973.973,0,0,0-.7.282l-1.569,1.569a.975.975,0,0,0-.282.724,1.133,1.133,0,0,0,.339.773l5.56,5.56a1.214,1.214,0,0,0,.8.354.954.954,0,0,0,.73-.267l1.569-1.569a.956.956,0,0,0,.268-.73,1.215,1.215,0,0,0-.353-.8l-5.56-5.56a1.132,1.132,0,0,0-.773-.338h-.028" transform="translate(-267.991 -270.666)" fill="#3d4451"/>
          <path id="Trazado_36556" data-name="Trazado 36556" d="M322.713,341.862a.271.271,0,0,1-.193-.08l-5.215-5.215a.272.272,0,0,1,.385-.385l5.215,5.215a.272.272,0,0,1-.193.465" transform="translate(-285.778 -302.784)" fill="#3d4451"/>
          <rect id="Rectángulo_3822" data-name="Rectángulo 3822" width="11.215" height="11.157" transform="translate(21.873 0.35)" fill="#f5fafc"/>
          <rect id="Rectángulo_3823" data-name="Rectángulo 3823" width="8.645" height="7.068" transform="translate(23.158 1.519)" fill="#f5fafc"/>
          <path id="Trazado_36557" data-name="Trazado 36557" d="M233.517,41.567l3.456-2.973,5.183,4.624" transform="translate(-210.368 -34.769)" fill="#f5fafc"/>
          <path id="Trazado_36558" data-name="Trazado 36558" d="M282.453,39.839l1.171-1.245L286.24,40.8" transform="translate(-254.452 -34.768)" fill="#f5fafc"/>
          <rect id="Rectángulo_3824" data-name="Rectángulo 3824" width="9.413" height="6.857" transform="translate(22.75 2.388)" fill="#c7ddeb"/>
          <path id="Trazado_36559" data-name="Trazado 36559" d="M286.241,43.009v-2.2l-2.617-2.211-1.171,1.245Z" transform="translate(-254.453 -34.769)" fill="#6b968b"/>
          <path id="Trazado_36560" data-name="Trazado 36560" d="M241.56,43.219l-5.183-4.624-3.456,2.973v1.678" transform="translate(-209.831 -34.769)" fill="#6b968b"/>
          <path id="Trazado_36561" data-name="Trazado 36561" d="M229.028,11.857H217.112V0h11.916Zm-11.215-.7h10.514V.7H217.813Z" transform="translate(-195.589)" fill="#3d4451"/>
          <path id="Trazado_36562" data-name="Trazado 36562" d="M240.365,20.5h-9.112V12.962h9.112Zm-8.645-.467H239.9v-6.6H231.72Z" transform="translate(-208.328 -11.677)" fill="#3d4451"/>
          <path id="Trazado_36563" data-name="Trazado 36563" d="M239.58,40.077a.282.282,0,0,1-.189-.072l-5-4.459-3.267,2.811a.283.283,0,1,1-.37-.43l3.644-3.135,5.369,4.79a.283.283,0,0,1-.189.495" transform="translate(-207.792 -31.343)" fill="#3d4451"/>
          <path id="Trazado_36564" data-name="Trazado 36564" d="M284.394,37.822l-2.433-2.055-1.006,1.069-.37-.348,1.336-1.42,2.8,2.366Z" transform="translate(-252.77 -31.592)" fill="#3d4451"/>
          <rect id="Rectángulo_3825" data-name="Rectángulo 3825" width="8.823" height="1.289" transform="translate(11.799 20.878)" fill="#fdc345"/>
          <path id="Trazado_36565" data-name="Trazado 36565" d="M126.3,210.357h-9.2v-1.671h9.2Zm-8.823-.382h8.441v-.907h-8.441Z" transform="translate(-105.485 -187.998)" fill="#3d4451"/>
          <path id="Trazado_36566" data-name="Trazado 36566" d="M130.125,268.292a3.619,3.619,0,1,0-3.428-3.424,3.619,3.619,0,0,0,3.428,3.424" transform="translate(-114.133 -235.18)" fill="#f5fafc"/>
          <path id="Trazado_36567" data-name="Trazado 36567" d="M113.226,345.66a1.192,1.192,0,0,0,1.166-1.429c-.627-3.14-3.19-5.949-6.257-5.949s-5.629,2.809-6.256,5.949a1.192,1.192,0,0,0,1.166,1.429Z" transform="translate(-91.758 -304.748)" fill="#f5fafc"/>
          <path id="Trazado_36568" data-name="Trazado 36568" d="M148.118,277.313a2.77,2.77,0,1,0-2.37-2.609,2.639,2.639,0,0,0,2.37,2.609" transform="translate(-131.297 -244.857)" fill="#7eb9c7"/>
          <path id="Trazado_36569" data-name="Trazado 36569" d="M140.943,353a1.019,1.019,0,0,0,.863-1.265c-.464-2.78-2.36-5.266-4.629-5.266s-4.165,2.487-4.628,5.266a1.019,1.019,0,0,0,.863,1.265Z" transform="translate(-119.393 -312.121)" fill="#7eb9c7"/>
          <path id="Trazado_36570" data-name="Trazado 36570" d="M126.255,264.69q-.1,0-.2-.005h0a4.075,4.075,0,1,1,.2.005m-.159-.9a3.173,3.173,0,1,0-3-3A3.188,3.188,0,0,0,126.1,263.793Z" transform="translate(-110.082 -231.126)" fill="#3d4451"/>
          <path id="Trazado_36571" data-name="Trazado 36571" d="M109.174,342.052H98.993a1.638,1.638,0,0,1-1.6-1.962c.718-3.6,3.6-6.307,6.694-6.307s5.976,2.712,6.694,6.307a1.638,1.638,0,0,1-1.6,1.962m-5.091-7.377a5.348,5.348,0,0,0-3.729,1.667,7.7,7.7,0,0,0-2.09,3.923.749.749,0,0,0,.155.624.739.739,0,0,0,.574.271h10.181a.739.739,0,0,0,.574-.271.749.749,0,0,0,.155-.624,7.7,7.7,0,0,0-2.09-3.922,5.35,5.35,0,0,0-3.729-1.667" transform="translate(-87.706 -300.694)" fill="#3d4451"/>
          <rect id="Rectángulo_3826" data-name="Rectángulo 3826" width="0.595" height="2.875" transform="translate(11.303 13.642)" fill="#3d4451"/>
          <rect id="Rectángulo_3827" data-name="Rectángulo 3827" width="0.595" height="3.172" transform="translate(20.522 13.741)" fill="#3d4451"/>
        </g>
      </g>
    </g>
  </g>
</svg>
