<svg xmlns="http://www.w3.org/2000/svg" xmlns:xlink="http://www.w3.org/1999/xlink" width="63" height="63" viewBox="0 0 63 63">
  <defs>
    <clipPath id="clip-path">
      <rect id="Rectángulo_3848" data-name="Rectángulo 3848" width="37.425" height="43.263" fill="none"/>
    </clipPath>
  </defs>
  <g id="Grupo_17480" data-name="Grupo 17480" transform="translate(-546 -7161)">
    <g id="Grupo_17465" data-name="Grupo 17465">
      <g id="Elipse_960" data-name="Elipse 960" transform="translate(546 7161)" fill="#fff" stroke="#472ea6" stroke-width="1">
        <circle cx="31.5" cy="31.5" r="31.5" stroke="none"/>
        <circle cx="31.5" cy="31.5" r="31" fill="none"/>
      </g>
      <g id="Grupo_12412" data-name="Grupo 12412" transform="translate(559.018 7172)">
        <rect id="Rectángulo_3845" data-name="Rectángulo 3845" width="18.226" height="14.339" transform="translate(9.793 4.16)" fill="#f5fafc"/>
        <path id="Trazado_36627" data-name="Trazado 36627" d="M117.533,24.176l2.977-2.723h11.366l2.436,2.723" transform="translate(-106.292 -19.402)" fill="#fdc345"/>
        <rect id="Rectángulo_3846" data-name="Rectángulo 3846" width="15.123" height="11.794" transform="translate(12.896 6.706)" fill="#fdc345"/>
        <path id="Trazado_36628" data-name="Trazado 36628" d="M101.951,0l-.388.175L98.338,3.831l.776.684,3.071-3.481H114l2.484,3.442.839-.605L114.685.214,114.265,0Z" transform="translate(-88.933)" fill="#3d4451"/>
        <path id="Trazado_36629" data-name="Trazado 36629" d="M116.921,53.391H99.036l-.517-.517V38.747l.517-.517h17.885l.517.517V52.874ZM99.553,52.357H116.4V39.264H99.553Z" transform="translate(-89.096 -34.574)" fill="#3d4451"/>
        <rect id="Rectángulo_3847" data-name="Rectángulo 3847" width="1.09" height="2.896" transform="translate(18.337 1.018)" fill="#3d4451"/>
        <g id="Grupo_12411" data-name="Grupo 12411" transform="translate(0 0)">
          <g id="Grupo_12410" data-name="Grupo 12410" clip-path="url(#clip-path)">
            <path id="Trazado_36630" data-name="Trazado 36630" d="M104.96,237.444h0a1.956,1.956,0,0,0-2.828,0L94.812,245a2.072,2.072,0,0,0,.134-.735,1.991,1.991,0,0,0-1.959-2.021H82.065a1.816,1.816,0,0,0-1.243.5l-5.5,5.17,5.64,5.818,2.215-2.347a1.135,1.135,0,0,1,.814-.348h9.864a1.807,1.807,0,0,0,1.3-.554l9.8-10.114a2.109,2.109,0,0,0,0-2.917" transform="translate(-68.121 -214.188)" fill="#c7ddeb"/>
            <path id="Trazado_36631" data-name="Trazado 36631" d="M35.553,346.861l6.936,7.155a.325.325,0,0,1,0,.449l-2.236,2.307a.3.3,0,0,1-.435,0l-7.035-7.258a.324.324,0,0,1,.01-.459l2.336-2.2a.3.3,0,0,1,.425.01" transform="translate(-29.565 -313.602)" fill="#7eb9c7"/>
            <path id="Trazado_36632" data-name="Trazado 36632" d="M43.49,225.407l-6.877-7.1,6.328-5.951a2.515,2.515,0,0,1,1.725-.687H56.4a2.693,2.693,0,0,1,2.592,2.062l6.827-7.043a2.672,2.672,0,0,1,3.857,0,2.843,2.843,0,0,1,0,3.928L59.144,221.488a2.529,2.529,0,0,1-1.8.769h-10.6a.645.645,0,0,0-.466.2Zm-5.254-7.058,5.243,5.409,1.972-2.089a1.8,1.8,0,0,1,1.289-.553h10.6a1.365,1.365,0,0,0,.985-.423L68.86,209.827a1.7,1.7,0,0,0,0-2.341,1.532,1.532,0,0,0-2.22,0l-7.789,8.036a2.677,2.677,0,0,1-2.447,1.635H49.832a.57.57,0,1,1,0-1.139H56.4a1.54,1.54,0,0,0,1.422-1l.012-.031a1.656,1.656,0,0,0,.1-.572,1.572,1.572,0,0,0-1.535-1.6H44.667a1.379,1.379,0,0,0-.945.378Z" transform="translate(-33.111 -186.18)" fill="#3d4451"/>
            <path id="Trazado_36633" data-name="Trazado 36633" d="M8.46,333.9h0a.889.889,0,0,1-.643-.273l-7.559-7.8a.918.918,0,0,1,.029-1.3L2.8,322.156a.888.888,0,0,1,1.257.028l7.453,7.688a.924.924,0,0,1,0,1.276l-2.4,2.479a.889.889,0,0,1-.643.273m-7.227-8.7,7.227,7.456,2.077-2.143L3.4,323.15Zm9.455,5.468h0Zm-7.453-7.688h0" transform="translate(0 -291.121)" fill="#3d4451"/>
            <path id="Trazado_36634" data-name="Trazado 36634" d="M143.37,74.908a.813.813,0,0,1-.6-.314l-2.842-3.35a.938.938,0,0,1,.038-1.24.755.755,0,0,1,1.13.042l2.132,1.651,7.019-5.625a.756.756,0,0,1,1.119-.173.925.925,0,0,1,.162,1.22l-7.534,7.408a.8.8,0,0,1-.6.383h-.025" transform="translate(-126.347 -59.437)" fill="#4ece46"/>
            <path id="Trazado_36635" data-name="Trazado 36635" d="M137.77,69.89a1.4,1.4,0,0,1-1.043-.522l-2.844-3.352a1.538,1.538,0,0,1,.068-2.041,1.346,1.346,0,0,1,1.957.022l1.721,1.332,6.6-5.285a1.38,1.38,0,0,1,.881-.512,1.335,1.335,0,0,1,1.044.3,1.512,1.512,0,0,1,.275,2.015l-.032.047L138.855,69.3a1.343,1.343,0,0,1-1.036.589h-.049m-2.85-5.139a.175.175,0,0,0-.124.058.348.348,0,0,0-.01.438L137.63,68.6a.321.321,0,0,0,.142.105h.012a.373.373,0,0,0,.129-.125l.033-.048,7.523-7.4a.33.33,0,0,0-.071-.389.158.158,0,0,0-.124-.039.2.2,0,0,0-.13.089l-.05.072-7.452,5.972-2.55-1.974-.039-.046a.177.177,0,0,0-.128-.069h-.005" transform="translate(-120.758 -53.826)" fill="#3d4451"/>
          </g>
        </g>
      </g>
    </g>
  </g>
</svg>
