<svg xmlns="http://www.w3.org/2000/svg" xmlns:xlink="http://www.w3.org/1999/xlink" width="63" height="63" viewBox="0 0 63 63">
  <defs>
    <clipPath id="clip-path">
      <rect id="Rectángulo_3856" data-name="Rectángulo 3856" width="40.121" height="42.961" fill="none"/>
    </clipPath>
  </defs>
  <g id="Grupo_17483" data-name="Grupo 17483" transform="translate(-546 -7342)">
    <g id="Grupo_17467" data-name="Grupo 17467">
      <g id="Elipse_962" data-name="Elipse 962" transform="translate(546 7342)" fill="#fff" stroke="#472ea6" stroke-width="1">
        <circle cx="31.5" cy="31.5" r="31.5" stroke="none"/>
        <circle cx="31.5" cy="31.5" r="31" fill="none"/>
      </g>
      <g id="Grupo_12416" data-name="Grupo 12416" transform="translate(556.65 7351.039)">
        <g id="Grupo_12415" data-name="Grupo 12415" clip-path="url(#clip-path)">
          <path id="Trazado_36661" data-name="Trazado 36661" d="M120.8,135.786l27.015.01a.78.78,0,0,0,.78-.779l.011-30.368a.779.779,0,0,0-.779-.78l-27.015-.01a.779.779,0,0,0-.78.779l-.011,30.368a.78.78,0,0,0,.779.78" transform="translate(-108.481 -93.876)" fill="#c7ddeb"/>
          <path id="Trazado_36662" data-name="Trazado 36662" d="M111.327,85.125h0l-27.345-.01a1.328,1.328,0,0,1-1.328-1.329l.012-32.669a1.328,1.328,0,0,1,1.329-1.328h0l27.345.01a1.328,1.328,0,0,1,1.328,1.329L112.655,83.8a1.329,1.329,0,0,1-1.329,1.328M83.994,50.818a.3.3,0,0,0-.3.3l-.012,32.669a.3.3,0,0,0,.3.3h0l27.345.01h0a.3.3,0,0,0,.3-.3l.012-32.669a.3.3,0,0,0-.3-.3l-27.345-.01Z" transform="translate(-74.709 -45.003)" fill="#3d4451"/>
          <path id="Trazado_36663" data-name="Trazado 36663" d="M267.157,116.079a.769.769,0,0,1-.534-.264l-2.591-2.847a.659.659,0,0,1,.077-.964.754.754,0,0,1,1.017.069l2.029,2.217,4.4-5.09a.753.753,0,0,1,1.015-.1.651.651,0,0,1,.1.954l-4.949,5.746a.745.745,0,0,1-.55.279h-.023" transform="translate(-238.498 -98.477)" fill="#4ece46"/>
          <path id="Trazado_36664" data-name="Trazado 36664" d="M263.61,112.9h-.039a1.141,1.141,0,0,1-.808-.388l-2.591-2.848a1.029,1.029,0,0,1-.271-.779,1.041,1.041,0,0,1,.39-.737,1.141,1.141,0,0,1,1.537.108l1.74,1.9,4.124-4.767a1.139,1.139,0,0,1,1.534-.152,1.041,1.041,0,0,1,.41.725,1.022,1.022,0,0,1-.249.78l-4.948,5.746a1.112,1.112,0,0,1-.83.411m-.025-.762h.026a.391.391,0,0,0,.253-.147l4.948-5.746a.265.265,0,0,0,.068-.205.288.288,0,0,0-.116-.2.372.372,0,0,0-.5.046l-4.683,5.414-2.317-2.532a.374.374,0,0,0-.5-.03.287.287,0,0,0-.109.2.275.275,0,0,0,.074.208L263.326,112a.394.394,0,0,0,.259.14" transform="translate(-234.918 -94.918)" fill="#3d4451"/>
          <path id="Trazado_36665" data-name="Trazado 36665" d="M266.963,217.692a.769.769,0,0,1-.534-.264l-2.591-2.847a.658.658,0,0,1,.077-.964.754.754,0,0,1,1.017.069l2.029,2.217,4.4-5.09a.753.753,0,0,1,1.015-.1.651.651,0,0,1,.1.954l-4.949,5.746a.745.745,0,0,1-.55.279h-.023" transform="translate(-238.322 -190.323)" fill="#4ece46"/>
          <path id="Trazado_36666" data-name="Trazado 36666" d="M263.416,214.516h-.038a1.141,1.141,0,0,1-.808-.387l-2.591-2.848a1.028,1.028,0,0,1-.271-.778,1.041,1.041,0,0,1,.39-.737,1.141,1.141,0,0,1,1.537.108l1.74,1.9,4.124-4.767a1.14,1.14,0,0,1,1.534-.152,1.042,1.042,0,0,1,.41.725,1.023,1.023,0,0,1-.249.78l-4.948,5.746a1.112,1.112,0,0,1-.829.411m-.026-.762h.025a.384.384,0,0,0,.253-.147l4.948-5.746a.265.265,0,0,0,.068-.205.287.287,0,0,0-.116-.2.373.373,0,0,0-.5.046l-4.683,5.414-2.317-2.532a.375.375,0,0,0-.5-.03.287.287,0,0,0-.109.2.276.276,0,0,0,.074.208l2.591,2.848a.393.393,0,0,0,.259.139" transform="translate(-234.743 -186.766)" fill="#3d4451"/>
          <path id="Trazado_36667" data-name="Trazado 36667" d="M266.773,316.956a.769.769,0,0,1-.534-.264l-2.591-2.847a.658.658,0,0,1,.077-.964.754.754,0,0,1,1.017.069l2.029,2.216,4.4-5.09a.753.753,0,0,1,1.015-.1.651.651,0,0,1,.1.954l-4.949,5.746a.745.745,0,0,1-.55.279h-.023" transform="translate(-238.151 -280.047)" fill="#4ece46"/>
          <path id="Trazado_36668" data-name="Trazado 36668" d="M263.226,313.779h-.038a1.141,1.141,0,0,1-.808-.387l-2.591-2.848a1.029,1.029,0,0,1-.27-.779,1.04,1.04,0,0,1,.39-.737,1.141,1.141,0,0,1,1.537.108l1.74,1.9,4.124-4.767a1.139,1.139,0,0,1,1.534-.153,1.042,1.042,0,0,1,.41.726,1.023,1.023,0,0,1-.249.78l-4.948,5.746a1.112,1.112,0,0,1-.83.411m-2.606-4.24a.373.373,0,0,0-.234.081.287.287,0,0,0-.109.2.276.276,0,0,0,.074.208l2.591,2.848a.393.393,0,0,0,.258.139h.026a.365.365,0,0,0,.253-.147l4.948-5.746a.266.266,0,0,0,.068-.205.288.288,0,0,0-.116-.2.373.373,0,0,0-.5.046l-4.683,5.414-2.317-2.532a.356.356,0,0,0-.263-.11" transform="translate(-234.571 -276.488)" fill="#3d4451"/>
          <rect id="Rectángulo_3854" data-name="Rectángulo 3854" width="2.3" height="5.474" transform="translate(13.682 11.39)" fill="#f5fafc"/>
          <rect id="Rectángulo_3855" data-name="Rectángulo 3855" width="2.3" height="5.474" transform="translate(13.682 21.207)" fill="#f5fafc"/>
          <path id="Trazado_36669" data-name="Trazado 36669" d="M143.916,118.261H136.5v-7.036h7.412Zm-6.53-.882h5.648v-5.272h-5.648Z" transform="translate(-123.384 -100.534)" fill="#3d4451"/>
          <path id="Trazado_36670" data-name="Trazado 36670" d="M143.916,219.818H136.5v-7.036h7.412Zm-6.53-.882h5.648v-5.272h-5.648Z" transform="translate(-123.384 -192.33)" fill="#3d4451"/>
          <path id="Trazado_36671" data-name="Trazado 36671" d="M39.733,268.475a3.977,3.977,0,1,0-3.887-3.76,4.041,4.041,0,0,0,3.887,3.76" transform="translate(-32.395 -235.49)" fill="#3d4451"/>
          <path id="Trazado_36672" data-name="Trazado 36672" d="M.762,332.622a7.8,7.8,0,0,1,1.959-3.977A5.557,5.557,0,0,1,6.5,326.977c.61,0,3.072-.008,4.456.076,0,0,6.254-1.677,6.682-1.746a1.883,1.883,0,0,1,1.259.191,1.093,1.093,0,0,1,.513.671,1.433,1.433,0,0,1-.374,1.3,6.379,6.379,0,0,1-2.575,1.27c-.985.354-1.965.723-2.956,1.063-.858.294-1.328,1.449-1.54,2.223a37.76,37.76,0,0,0,.006,4.026v.832c-2.9,0-5.8.024-8.694,0,.046-1.222,0-2.459,0-3.685L2.667,336.9a17.127,17.127,0,0,1-2.1.055c-.512-.052-.62-.117-.539-.577.078-.443.173-.884.259-1.326.151-.773.288-1.6.48-2.426" transform="translate(0.001 -294.012)" fill="#3d4451"/>
          <path id="Trazado_36673" data-name="Trazado 36673" d="M184.417,279.167l7.178-6.6-.535-.44-7.736,6.019" transform="translate(-165.704 -245.968)" fill="#3d4451"/>
          <path id="Trazado_36674" data-name="Trazado 36674" d="M69.107,355.444l.716-3.085-.656-1.371h1.969l-.716,1.371.835,3.085Z" transform="translate(-62.465 -317.252)" fill="#f04f4c"/>
          <path id="Trazado_36675" data-name="Trazado 36675" d="M170.756,6.929h-4.019a2.506,2.506,0,0,0,.017-.291,2.738,2.738,0,0,0-5.47,0,2.532,2.532,0,0,0,.017.291H157.79a1.538,1.538,0,0,0-1.57,1.5v2.231a1.538,1.538,0,0,0,1.57,1.5h12.966a1.538,1.538,0,0,0,1.57-1.5V8.432a1.538,1.538,0,0,0-1.57-1.5m-6.736.988a1.085,1.085,0,1,1,1.132-1.084,1.109,1.109,0,0,1-1.132,1.084" transform="translate(-141.205 -3.633)" fill="#fdc345"/>
          <path id="Trazado_36676" data-name="Trazado 36676" d="M154.158,8.923a1.926,1.926,0,0,1-1.956-1.89V4.8a1.846,1.846,0,0,1,.579-1.342,1.98,1.98,0,0,1,1.377-.548h3.11a2.932,2.932,0,0,1,.918-2.036,3.164,3.164,0,0,1,2.2-.875h0a3.164,3.164,0,0,1,2.2.874,2.932,2.932,0,0,1,.919,2.036h3.616A1.926,1.926,0,0,1,169.08,4.8V7.031a1.846,1.846,0,0,1-.579,1.342,1.98,1.98,0,0,1-1.377.548H154.158ZM160.387.773h0a2.4,2.4,0,0,0-1.667.66,2.146,2.146,0,0,0-.667,1.82l.05.431h-3.945a1.211,1.211,0,0,0-.843.333,1.08,1.08,0,0,0-.341.784V7.033a1.153,1.153,0,0,0,1.184,1.117h12.966a1.211,1.211,0,0,0,.843-.333,1.079,1.079,0,0,0,.341-.784V4.8a1.153,1.153,0,0,0-1.184-1.117h-4.452l.05-.431a2.146,2.146,0,0,0-.668-1.819,2.394,2.394,0,0,0-1.666-.66m0,3.9a1.534,1.534,0,0,1-1.067-.425,1.438,1.438,0,0,1,0-2.091,1.534,1.534,0,0,1,1.068-.425A1.5,1.5,0,0,1,161.9,3.2a1.5,1.5,0,0,1-1.518,1.47Zm0-2.168a.766.766,0,0,0-.533.21.666.666,0,0,0,0,.975.766.766,0,0,0,.533.21.724.724,0,0,0,.745-.7.724.724,0,0,0-.746-.7" transform="translate(-137.572 -0.001)" fill="#3d4451"/>
        </g>
      </g>
    </g>
  </g>
</svg>
