<svg xmlns="http://www.w3.org/2000/svg" xmlns:xlink="http://www.w3.org/1999/xlink" width="63" height="63" viewBox="0 0 63 63">
  <defs>
    <clipPath id="clip-path">
      <rect id="Rectángulo_3842" data-name="Rectángulo 3842" width="42.297" height="38.946" fill="none"/>
    </clipPath>
  </defs>
  <g id="Grupo_17478" data-name="Grupo 17478" transform="translate(-546 -6989)">
    <g id="Grupo_17463" data-name="Grupo 17463">
      <g id="Elipse_958" data-name="Elipse 958" transform="translate(546 6989)" fill="#fff" stroke="#472ea6" stroke-width="1">
        <circle cx="31.5" cy="31.5" r="31.5" stroke="none"/>
        <circle cx="31.5" cy="31.5" r="31" fill="none"/>
      </g>
      <g id="Grupo_12408" data-name="Grupo 12408" transform="translate(558.953 6999.054)">
        <path id="Trazado_36609" data-name="Trazado 36609" d="M42.45,109.061l-.861-.478,4.262-7.673,2.17,2.269,3.794-6.689,2.242,3.12L58.51,90.9l2.226,3.441,2.733-4.014.814.554-3.568,5.24L58.61,92.871,54.2,101.494l-2.287-3.181-3.688,6.5-2.162-2.26Z" transform="translate(-38.019 -82.576)" fill="#3d4451"/>
        <g id="Grupo_12407" data-name="Grupo 12407">
          <g id="Grupo_12406" data-name="Grupo 12406" clip-path="url(#clip-path)">
            <path id="Trazado_36610" data-name="Trazado 36610" d="M26.842,404.756c0,.866-6.009,1.569-13.421,1.569S0,405.623,0,404.756s6.009-1.568,13.421-1.568,13.421.7,13.421,1.568" transform="translate(0 -368.574)" fill="#7eb9c7"/>
            <rect id="Rectángulo_3838" data-name="Rectángulo 3838" width="4.627" height="20.183" transform="translate(20.147 15.022)" fill="#fdc345"/>
            <path id="Trazado_36611" data-name="Trazado 36611" d="M235.16,191.02h-5.486V169.979h5.486Zm-4.627-.859H234.3V170.838h-3.769Z" transform="translate(-209.956 -155.386)" fill="#3d4451"/>
            <rect id="Rectángulo_3839" data-name="Rectángulo 3839" width="4.165" height="15.063" transform="translate(13.991 20.142)" fill="#f04f4c"/>
            <path id="Trazado_36612" data-name="Trazado 36612" d="M162.986,245.533h-5.024V229.611h5.024Zm-4.165-.858h3.306v-14.2h-3.306Z" transform="translate(-144.401 -209.899)" fill="#3d4451"/>
            <rect id="Rectángulo_3840" data-name="Rectángulo 3840" width="3.384" height="6.203" transform="translate(3.016 29.003)" fill="#c7ddeb"/>
            <path id="Trazado_36613" data-name="Trazado 36613" d="M35.2,340.71h-4.07v-6.889H35.2Zm-3.384-.687h2.7v-5.516h-2.7Z" transform="translate(-28.461 -305.162)" fill="#3d4451"/>
            <rect id="Rectángulo_3841" data-name="Rectángulo 3841" width="3.794" height="10.932" transform="translate(8.383 24.273)" fill="#7eb9c7"/>
            <path id="Trazado_36614" data-name="Trazado 36614" d="M98.123,290.352H93.642V278.733h4.481Zm-3.794-.687h3.108V279.42H94.329Z" transform="translate(-85.603 -254.803)" fill="#3d4451"/>
            <path id="Trazado_36615" data-name="Trazado 36615" d="M74.155,9.865a14.819,14.819,0,1,0,0,20.957,14.819,14.819,0,0,0,0-20.957M72.436,29.1a12.388,12.388,0,1,1,0-17.519,12.388,12.388,0,0,1,0,17.519" transform="translate(-44.663 -5.05)" fill="#c7ddeb"/>
            <path id="Trazado_36616" data-name="Trazado 36616" d="M383.883,351.411a1.429,1.429,0,0,1,.147,1.985l-1.346,1.346a1.429,1.429,0,0,1-1.985-.147l-5.121-5.121a1.392,1.392,0,0,1-.12-1.958l1.346-1.346a1.392,1.392,0,0,1,1.958.12Z" transform="translate(-342.906 -316.132)" fill="#c7ddeb"/>
            <path id="Trazado_36617" data-name="Trazado 36617" d="M55.834,30.593a15.288,15.288,0,1,1,10.819-4.474,15.253,15.253,0,0,1-10.819,4.474m0-29.63a14.337,14.337,0,1,0,10.138,4.2A14.244,14.244,0,0,0,55.834.963" transform="translate(-37.054)" fill="#3d4451"/>
            <path id="Trazado_36618" data-name="Trazado 36618" d="M82.8,55.032A12.768,12.768,0,1,1,91.831,51.3,12.734,12.734,0,0,1,82.8,55.032m0-24.809a12.041,12.041,0,1,0,8.519,3.523A12.009,12.009,0,0,0,82.8,30.223" transform="translate(-64.018 -26.964)" fill="#3d4451"/>
            <path id="Trazado_36619" data-name="Trazado 36619" d="M334.6,284.846l-4.155-4.155,2.664-2.664,4.155,4.155Zm-3.329-4.155,3.329,3.329,1.839-1.839-3.329-3.329Z" transform="translate(-302.08 -254.158)" fill="#3d4451"/>
            <path id="Trazado_36620" data-name="Trazado 36620" d="M381.306,332.884l-.077,0a1.81,1.81,0,0,1-1.2-.533l-5.121-5.121a1.75,1.75,0,0,1-.519-1.195,1.6,1.6,0,0,1,.467-1.186L376.3,323.4a1.61,1.61,0,0,1,1.186-.467,1.749,1.749,0,0,1,1.195.519l5.121,5.121a1.811,1.811,0,0,1,.532,1.2,1.58,1.58,0,0,1-.453,1.2l-1.445,1.446a1.572,1.572,0,0,1-1.127.455m-3.867-9.447a1.1,1.1,0,0,0-.787.32l-1.446,1.446a1.1,1.1,0,0,0-.32.818,1.248,1.248,0,0,0,.372.853L380.38,332a1.328,1.328,0,0,0,.87.386,1.088,1.088,0,0,0,.827-.307l1.445-1.446a1.085,1.085,0,0,0,.307-.827,1.328,1.328,0,0,0-.386-.871l-5.121-5.121a1.249,1.249,0,0,0-.852-.372h-.031" transform="translate(-342.243 -295.211)" fill="#3d4451"/>
            <path id="Trazado_36621" data-name="Trazado 36621" d="M379.108,330.891l-.087,0a2.016,2.016,0,0,1-1.341-.593l-5.121-5.121a1.955,1.955,0,0,1-.58-1.335,1.805,1.805,0,0,1,.527-1.337l1.446-1.445a1.814,1.814,0,0,1,1.337-.527,1.955,1.955,0,0,1,1.335.579l5.121,5.121a2.016,2.016,0,0,1,.593,1.341,1.785,1.785,0,0,1-.514,1.359l-1.445,1.445a1.776,1.776,0,0,1-1.272.515m-3.867-9.447a.9.9,0,0,0-.641.26l-1.446,1.446a.9.9,0,0,0-.26.667,1.044,1.044,0,0,0,.312.712l5.121,5.121a1.118,1.118,0,0,0,.733.326.881.881,0,0,0,.672-.246l1.445-1.445a.88.88,0,0,0,.247-.672,1.12,1.12,0,0,0-.326-.734l-5.121-5.121a1.043,1.043,0,0,0-.712-.312h-.025" transform="translate(-340.044 -293.012)" fill="#3d4451"/>
            <path id="Trazado_36622" data-name="Trazado 36622" d="M398.033,363.753a.25.25,0,0,1-.177-.073l-4.8-4.8a.251.251,0,1,1,.355-.355l4.8,4.8a.251.251,0,0,1-.177.428" transform="translate(-359.24 -327.674)" fill="#3d4451"/>
            <path id="Trazado_36623" data-name="Trazado 36623" d="M286.151,91.2a1.083,1.083,0,1,1-1.083-1.083,1.083,1.083,0,0,1,1.083,1.083" transform="translate(-259.604 -82.38)" fill="#f04f4c"/>
            <path id="Trazado_36624" data-name="Trazado 36624" d="M280.35,88.009a1.526,1.526,0,1,1,1.526-1.526,1.528,1.528,0,0,1-1.526,1.526m0-2.166a.64.64,0,1,0,.64.64.641.641,0,0,0-.64-.64" transform="translate(-254.886 -77.663)" fill="#3d4451"/>
            <path id="Trazado_36625" data-name="Trazado 36625" d="M39.02,293.606a1.083,1.083,0,1,1-1.083-1.083,1.083,1.083,0,0,1,1.083,1.083" transform="translate(-33.69 -267.409)" fill="#f04f4c"/>
            <path id="Trazado_36626" data-name="Trazado 36626" d="M33.219,290.415a1.526,1.526,0,1,1,1.526-1.526,1.528,1.528,0,0,1-1.526,1.526m0-2.166a.64.64,0,1,0,.64.64.641.641,0,0,0-.64-.64" transform="translate(-28.972 -262.692)" fill="#3d4451"/>
          </g>
        </g>
      </g>
    </g>
  </g>
</svg>
