<svg id="Grupo_17446" data-name="Grupo 17446" xmlns="http://www.w3.org/2000/svg" xmlns:xlink="http://www.w3.org/1999/xlink" width="87.922" height="101.315" viewBox="0 0 87.922 101.315">
  <defs>
    <clipPath id="clip-path">
      <rect id="Rectángulo_3933" data-name="Rectángulo 3933" width="87.922" height="101.315" fill="none"/>
    </clipPath>
  </defs>
  <g id="Grupo_17445" data-name="Grupo 17445" clip-path="url(#clip-path)">
    <path id="Trazado_36709" data-name="Trazado 36709" d="M41.129,169.735H99.957a1.714,1.714,0,0,0,1.715-1.714V100.574a1.714,1.714,0,0,0-1.715-1.714H41.129a1.714,1.714,0,0,0-1.714,1.714V168.02a1.714,1.714,0,0,0,1.714,1.714" transform="translate(-31.256 -78.396)" fill="#c7ddeb"/>
    <path id="Trazado_36710" data-name="Trazado 36710" d="M62.3,128.382H3.02A3.023,3.023,0,0,1,0,125.362V57.122A3.023,3.023,0,0,1,3.02,54.1H62.3a3.023,3.023,0,0,1,3.02,3.02v68.24a3.023,3.023,0,0,1-3.02,3.02M3.02,56.68a.443.443,0,0,0-.442.442v68.24a.443.443,0,0,0,.442.442H62.3a.443.443,0,0,0,.442-.442V57.122a.443.443,0,0,0-.442-.442Z" transform="translate(0 -42.903)" fill="#3d4451"/>
    <rect id="Rectángulo_3926" data-name="Rectángulo 3926" width="30.766" height="1.98" transform="translate(24.413 64.01)" fill="#3d4451"/>
    <rect id="Rectángulo_3927" data-name="Rectángulo 3927" width="30.766" height="1.98" transform="translate(24.413 70.509)" fill="#3d4451"/>
    <path id="Trazado_36711" data-name="Trazado 36711" d="M216.229,295.84a14.659,14.659,0,1,1,14.653,14.237,14.449,14.449,0,0,1-14.653-14.237" transform="translate(-171.47 -223.311)" fill="#7eb9c7"/>
    <path id="Trazado_36712" data-name="Trazado 36712" d="M232.5,313.843c0-6.715,5.76-12.159,12.865-12.159s12.865,5.444,12.865,12.159S252.468,326,245.363,326,232.5,320.558,232.5,313.843" transform="translate(-184.371 -239.235)" fill="#f5fafc"/>
    <path id="Trazado_36713" data-name="Trazado 36713" d="M228.687,267.481a18.573,18.573,0,1,0,0,26.267,18.573,18.573,0,0,0,0-26.267m-2.843,23.424a14.553,14.553,0,1,1,0-20.582,14.554,14.554,0,0,1,0,20.582" transform="translate(-156.205 -207.798)" fill="#f04f4c"/>
    <path id="Trazado_36714" data-name="Trazado 36714" d="M213.263,297.486a19.156,19.156,0,1,1,13.556-5.606,19.11,19.11,0,0,1-13.556,5.606m0-37.138a17.976,17.976,0,1,0,12.711,5.265,17.857,17.857,0,0,0-12.711-5.265m0,33.12a15.139,15.139,0,1,1,10.714-4.431,15.1,15.1,0,0,1-10.714,4.431m0-29.1a13.956,13.956,0,1,0,9.868,4.088,13.865,13.865,0,0,0-9.868-4.088" transform="translate(-153.915 -205.508)" fill="#3d4451"/>
    <path id="Trazado_36715" data-name="Trazado 36715" d="M377.2,443.32a1.684,1.684,0,0,1,.173,2.34l-1.587,1.587a1.685,1.685,0,0,1-2.34-.173l-6.036-6.037a1.641,1.641,0,0,1-.141-2.308l1.587-1.587a1.641,1.641,0,0,1,2.308.141Z" transform="translate(-290.921 -346.328)" fill="#7eb9c7"/>
    <path id="Trazado_36716" data-name="Trazado 36716" d="M212.788,296.826a19.332,19.332,0,1,1,13.67-5.662,19.206,19.206,0,0,1-13.67,5.662m0-37.147a17.814,17.814,0,1,0,12.6,5.218,17.7,17.7,0,0,0-12.6-5.218" transform="translate(-153.417 -204.722)" fill="#3d4451"/>
    <rect id="Rectángulo_3928" data-name="Rectángulo 3928" width="3.753" height="6.238" transform="translate(71.907 86.683) rotate(-45)" fill="#f5fafc"/>
    <path id="Trazado_36717" data-name="Trazado 36717" d="M348.412,410.508l-5.293-5.292,3.536-3.536,5.292,5.292Zm-3.529-5.292,3.529,3.529,1.772-1.772-3.529-3.529Z" transform="translate(-272.093 -318.532)" fill="#3d4451"/>
    <path id="Trazado_36718" data-name="Trazado 36718" d="M374.666,437.27l-.091,0a2.134,2.134,0,0,1-1.419-.628l-6.037-6.037a2.064,2.064,0,0,1-.612-1.408,1.887,1.887,0,0,1,.55-1.4l1.7-1.7a1.883,1.883,0,0,1,1.4-.55,2.06,2.06,0,0,1,1.408.612l6.037,6.036a2.134,2.134,0,0,1,.627,1.419,1.863,1.863,0,0,1-.535,1.419l-1.7,1.7a1.853,1.853,0,0,1-1.328.536m-4.558-11.135a1.3,1.3,0,0,0-.928.378l-1.7,1.7a1.3,1.3,0,0,0-.377.964,1.472,1.472,0,0,0,.439,1.005l6.037,6.036a1.563,1.563,0,0,0,1.026.455,1.265,1.265,0,0,0,.975-.361l1.7-1.7a1.279,1.279,0,0,0,.362-.975,1.564,1.564,0,0,0-.455-1.026l-6.037-6.037a1.471,1.471,0,0,0-1-.439h-.037" transform="translate(-290.64 -337.456)" fill="#3d4451"/>
    <path id="Trazado_36719" data-name="Trazado 36719" d="M373.411,436.342l-.106,0a2.46,2.46,0,0,1-1.636-.723l-6.037-6.036a2.39,2.39,0,0,1-.708-1.631,2.211,2.211,0,0,1,.646-1.638l1.7-1.7a2.222,2.222,0,0,1,1.638-.646,2.388,2.388,0,0,1,1.632.708l6.037,6.037a2.461,2.461,0,0,1,.723,1.637,2.188,2.188,0,0,1-.631,1.665l-1.7,1.7a2.177,2.177,0,0,1-1.559.632m-4.558-11.136a.973.973,0,0,0-.7.282l-1.7,1.7a.976.976,0,0,0-.281.724,1.147,1.147,0,0,0,.343.782l6.037,6.037a1.235,1.235,0,0,0,.809.359.974.974,0,0,0,.729-.266l1.7-1.7a.956.956,0,0,0,.266-.729,1.235,1.235,0,0,0-.359-.809l-6.037-6.036a1.144,1.144,0,0,0-.781-.343h-.028" transform="translate(-289.384 -336.2)" fill="#3d4451"/>
    <path id="Trazado_36720" data-name="Trazado 36720" d="M253.706,327.924a1.644,1.644,0,0,1-1.143-.567l-5.55-6.122a1.419,1.419,0,0,1,.165-2.072,1.611,1.611,0,0,1,2.18.148l4.346,4.766,9.435-10.947a1.609,1.609,0,0,1,2.174-.213,1.4,1.4,0,0,1,.224,2.051l-10.6,12.358a1.6,1.6,0,0,1-1.179.6h-.049" transform="translate(-195.585 -247.885)" fill="#4ece46"/>
    <path id="Trazado_36721" data-name="Trazado 36721" d="M250.645,325.629h-.083a2.443,2.443,0,0,1-1.733-.834l-5.551-6.123A2.214,2.214,0,0,1,242.7,317a2.237,2.237,0,0,1,.835-1.583,2.441,2.441,0,0,1,3.3.231l3.725,4.086,8.833-10.249a2.438,2.438,0,0,1,3.29-.328,2.238,2.238,0,0,1,.878,1.557,2.2,2.2,0,0,1-.533,1.675l-10.6,12.356a2.384,2.384,0,0,1-1.779.884m-.055-1.634h.054a.821.821,0,0,0,.54-.315l10.6-12.357a.586.586,0,0,0,.147-.444.622.622,0,0,0-.249-.428.793.793,0,0,0-1.057.1l-10.037,11.645-4.966-5.447a.8.8,0,0,0-1.062-.063.619.619,0,0,0-.235.436.6.6,0,0,0,.159.451l5.551,6.123a.851.851,0,0,0,.552.3" transform="translate(-192.456 -244.771)" fill="#3d4451"/>
    <path id="Trazado_36722" data-name="Trazado 36722" d="M111.929,28.56H104.3a3.411,3.411,0,0,0,.033-.464c0-2.308-2.326-4.178-5.194-4.178S93.941,25.79,93.941,28.1a3.411,3.411,0,0,0,.033.464H87.3a2.739,2.739,0,0,0-2.982,2.4v3.559a2.738,2.738,0,0,0,2.982,2.4l24.624,0a2.738,2.738,0,0,0,2.981-2.4v-3.56a2.739,2.739,0,0,0-2.982-2.4m-12.793-.091a1.974,1.974,0,0,1-2.15-1.729,2.2,2.2,0,0,1,4.3,0,1.974,1.974,0,0,1-2.149,1.729" transform="translate(-66.868 -18.968)" fill="#fdc345"/>
    <path id="Trazado_36723" data-name="Trazado 36723" d="M80.271,17.9a3.96,3.96,0,0,1-4.019-3.887V9.617a3.8,3.8,0,0,1,1.191-2.763A4.065,4.065,0,0,1,80.27,5.729h5.96a5.941,5.941,0,0,1,1.852-3.96A6.394,6.394,0,0,1,92.531,0a6.225,6.225,0,0,1,6.3,5.727h6.958a3.96,3.96,0,0,1,4.019,3.887v4.391a3.8,3.8,0,0,1-1.191,2.763,4.066,4.066,0,0,1-2.827,1.125l-25.52,0ZM92.531,1.857a4.545,4.545,0,0,0-3.164,1.252A4.057,4.057,0,0,0,88.1,6.55l.12,1.035H80.27a2.215,2.215,0,0,0-1.543.609,1.958,1.958,0,0,0-.619,1.422v4.392a2.1,2.1,0,0,0,2.162,2.03l25.52,0a2.215,2.215,0,0,0,1.543-.609,1.958,1.958,0,0,0,.619-1.422V9.614a2.1,2.1,0,0,0-2.162-2.03H96.838l.12-1.036a4.027,4.027,0,0,0,.028-.466,4.35,4.35,0,0,0-4.455-4.226m0,7.67h0a3.114,3.114,0,0,1-3.156-3.062,3,3,0,0,1,.939-2.179A3.188,3.188,0,0,1,92.531,3.4h0a3.114,3.114,0,0,1,3.156,3.062,3,3,0,0,1-.939,2.18,3.188,3.188,0,0,1-2.217.883m0-4.267a1.34,1.34,0,0,0-.933.367,1.155,1.155,0,0,0-.366.838,1.256,1.256,0,0,0,1.3,1.2,1.339,1.339,0,0,0,.933-.367,1.153,1.153,0,0,0,.366-.838,1.256,1.256,0,0,0-1.3-1.2" transform="translate(-60.468 0)" fill="#3d4451"/>
    <path id="Trazado_36724" data-name="Trazado 36724" d="M49.734,110.222h-.043l-2.343,1.1-.469-1.993,3.175-1.49h2.429V120.42H49.734Z" transform="translate(-37.175 -85.518)" fill="#3d4451"/>
    <path id="Trazado_36725" data-name="Trazado 36725" d="M46.957,213.3v-1.7l1.385-1.606c1.79-2.071,3.26-3.793,3.26-5.592a1.617,1.617,0,0,0-1.768-1.722,4.18,4.18,0,0,0-2.088.639l-.49-1.974a6.671,6.671,0,0,1,3.089-.774c3.026,0,4.005,1.838,4.005,3.638,0,2.361-1.619,4.257-3.217,5.941l-.831.89v.039h4.24V213.3Z" transform="translate(-37.237 -159.051)" fill="#3d4451"/>
    <path id="Trazado_36726" data-name="Trazado 36726" d="M49.231,309.052a4.656,4.656,0,0,0,2.067.484c1.342,0,2.088-.755,2.088-1.819,0-1.393-1.172-1.993-2.6-1.993H50.4v-1.858h.277c1.023-.019,2.344-.407,2.344-1.625a1.432,1.432,0,0,0-1.619-1.451,3.629,3.629,0,0,0-1.747.5l-.362-1.916a6.35,6.35,0,0,1,2.855-.658c2.429,0,3.643,1.432,3.643,3.038a3.066,3.066,0,0,1-1.981,2.825v.039a3.186,3.186,0,0,1,2.365,3.193c0,1.915-1.619,3.792-4.623,3.792a6.349,6.349,0,0,1-2.727-.561Z" transform="translate(-38.719 -236.884)" fill="#3d4451"/>
    <rect id="Rectángulo_3929" data-name="Rectángulo 3929" width="30.766" height="1.98" transform="translate(24.413 24.264)" fill="#3d4451"/>
    <rect id="Rectángulo_3930" data-name="Rectángulo 3930" width="30.766" height="1.98" transform="translate(24.413 31.379)" fill="#3d4451"/>
    <rect id="Rectángulo_3931" data-name="Rectángulo 3931" width="30.766" height="1.98" transform="translate(24.413 43.35)" fill="#3d4451"/>
    <rect id="Rectángulo_3932" data-name="Rectángulo 3932" width="30.766" height="1.98" transform="translate(24.413 50.466)" fill="#3d4451"/>
  </g>
</svg>
