<svg id="Grupo_17450" data-name="Grupo 17450" xmlns="http://www.w3.org/2000/svg" xmlns:xlink="http://www.w3.org/1999/xlink" width="107" height="99.896" viewBox="0 0 107 99.896">
  <defs>
    <clipPath id="clip-path">
      <rect id="Rectángulo_3945" data-name="Rectángulo 3945" width="107" height="99.897" fill="none"/>
    </clipPath>
  </defs>
  <g id="Grupo_17449" data-name="Grupo 17449" clip-path="url(#clip-path)">
    <path id="Rectángulo_3935" data-name="Rectángulo 3935" d="M24.4,0H73.6A24.4,24.4,0,0,1,98,24.4V40.011A24.395,24.395,0,0,1,73.6,64.406H24.4A24.4,24.4,0,0,1,0,40.01V24.4A24.4,24.4,0,0,1,24.4,0Z" transform="translate(9.002 35.491)" fill="#c7ddeb"/>
    <rect id="Rectángulo_3936" data-name="Rectángulo 3936" width="29.585" height="2.88" transform="translate(9.788 68.586)" fill="#3d4451"/>
    <rect id="Rectángulo_3937" data-name="Rectángulo 3937" width="29.585" height="2.88" transform="translate(9.788 77.082)" fill="#3d4451"/>
    <path id="Trazado_36747" data-name="Trazado 36747" d="M98,169.6H5.877A5.884,5.884,0,0,1,0,163.724v-57.3a5.884,5.884,0,0,1,5.877-5.877H98a5.884,5.884,0,0,1,5.877,5.877v57.3A5.884,5.884,0,0,1,98,169.6M5.877,102.839A3.585,3.585,0,0,0,2.3,106.42v57.3a3.585,3.585,0,0,0,3.581,3.581H98a3.585,3.585,0,0,0,3.581-3.581v-57.3A3.585,3.585,0,0,0,98,102.839Z" transform="translate(0 -77.458)" fill="#3d4451"/>
    <path id="Trazado_36748" data-name="Trazado 36748" d="M84.856,158.711a6.215,6.215,0,1,0-5.886-5.88,6.215,6.215,0,0,0,5.886,5.88" transform="translate(-60.831 -112.701)" fill="#7eb9c7"/>
    <path id="Trazado_36749" data-name="Trazado 36749" d="M82.087,156.556c-.119,0-.239,0-.358-.009a7.154,7.154,0,1,1,.358.009m-.266-1.844a5.241,5.241,0,0,0,4.02-1.545,5.3,5.3,0,1,0-4.02,1.545" transform="translate(-57.75 -109.619)" fill="#3d4451"/>
    <path id="Trazado_36750" data-name="Trazado 36750" d="M80.072,216.211a2.047,2.047,0,0,0,2-2.453C81,208.367,76.6,203.543,71.33,203.543s-9.667,4.824-10.743,10.215a2.047,2.047,0,0,0,2,2.453Z" transform="translate(-46.644 -156.809)" fill="#7eb9c7"/>
    <path id="Trazado_36751" data-name="Trazado 36751" d="M76.991,214.048H59.509a2.965,2.965,0,0,1-2.9-3.552c1.247-6.245,6.253-10.954,11.644-10.954s10.4,4.709,11.645,10.954a2.965,2.965,0,0,1-2.9,3.551M68.249,201.38c-4.976,0-8.913,4.818-9.843,9.476a1.134,1.134,0,0,0,.235.945,1.1,1.1,0,0,0,.867.41H76.991a1.1,1.1,0,0,0,.867-.41,1.134,1.134,0,0,0,.235-.945c-.93-4.658-4.867-9.476-9.844-9.476" transform="translate(-43.564 -153.727)" fill="#3d4451"/>
    <rect id="Rectángulo_3938" data-name="Rectángulo 3938" width="19.788" height="2.356" transform="translate(74.384 63.338)" fill="#3d4451"/>
    <rect id="Rectángulo_3939" data-name="Rectángulo 3939" width="19.788" height="2.356" transform="translate(74.384 75.737)" fill="#3d4451"/>
    <rect id="Rectángulo_3940" data-name="Rectángulo 3940" width="5.511" height="2.356" transform="translate(64.893 51.534)" fill="#3d4451"/>
    <rect id="Rectángulo_3941" data-name="Rectángulo 3941" width="19.788" height="2.356" transform="translate(74.384 51.534)" fill="#3d4451"/>
    <rect id="Rectángulo_3942" data-name="Rectángulo 3942" width="5.511" height="2.356" transform="translate(65.143 63.316)" fill="#3d4451"/>
    <rect id="Rectángulo_3943" data-name="Rectángulo 3943" width="5.511" height="2.094" transform="translate(64.893 75.883)" fill="#3d4451"/>
    <path id="Trazado_36752" data-name="Trazado 36752" d="M215.323,337.113a1.472,1.472,0,0,1-1.519,1.536H203.722a1.4,1.4,0,0,1-1.422-1.536v-.074a1.411,1.411,0,0,1,1.422-1.553H213.8a1.486,1.486,0,0,1,1.519,1.553Z" transform="translate(-155.851 -258.458)" fill="#3d4451"/>
    <path id="Trazado_36753" data-name="Trazado 36753" d="M215.31,277.912a1.553,1.553,0,0,1-1.5,1.645H203.724a1.5,1.5,0,0,1-1.437-1.645v-.074a1.54,1.54,0,0,1,1.437-1.687h10.081a1.591,1.591,0,0,1,1.5,1.687Z" transform="translate(-155.841 -212.745)" fill="#3d4451"/>
    <path id="Trazado_36754" data-name="Trazado 36754" d="M214.3,220.614a1.406,1.406,0,0,1-1.489,1.484H202.726a1.378,1.378,0,0,1-1.452-1.484v-.073a1.478,1.478,0,0,1,1.452-1.605h10.081a1.507,1.507,0,0,1,1.489,1.605Z" transform="translate(-155.061 -168.666)" fill="#3d4451"/>
    <path id="Trazado_36755" data-name="Trazado 36755" d="M212.5,163.314a1.461,1.461,0,0,1-1.474,1.565H200.948a1.65,1.65,0,0,1-1.7-1.565v-.074a1.617,1.617,0,0,1,1.7-1.523h10.081a1.427,1.427,0,0,1,1.474,1.523Z" transform="translate(-153.5 -124.586)" fill="#3d4451"/>
    <rect id="Rectángulo_3944" data-name="Rectángulo 3944" width="2.618" height="67.809" transform="translate(51.678 23.186)" fill="#3d4451"/>
    <path id="Trazado_36756" data-name="Trazado 36756" d="M315.37,19.3V13.929C315.37,8.465,312.4,4,308.819,4h-10.7c-3.582,0-6.9,4.464-6.9,9.928V19.3h4.241V14.936c0-4.082,1.772-7.248,4.264-7.248h7.447c2.493,0,4.144,3.166,4.144,7.248V19.3Z" transform="translate(-224.352 -3.082)" fill="#7eb9c7"/>
    <path id="Trazado_36757" data-name="Trazado 36757" d="M313.207,17.141h-5.893V11.855c0-3.608-1.387-6.329-3.226-6.329H296.64c-1.876,0-3.346,2.78-3.346,6.329v5.286h-6.077V10.847C287.217,4.968,290.8,0,295.037,0h10.7c4.119,0,7.47,4.866,7.47,10.846ZM309.15,15.3h2.22V10.847c0-4.884-2.58-9.009-5.633-9.009h-10.7c-3.188,0-5.984,4.21-5.984,9.009V15.3h2.4V11.855c0-4.732,2.18-8.166,5.183-8.166h7.448c2.981,0,5.063,3.358,5.063,8.166Z" transform="translate(-221.271 -0.001)" fill="#3d4451"/>
    <path id="Trazado_36758" data-name="Trazado 36758" d="M299.857,75.468h-21.8c-3.3,0-6.109,2.032-6.109,4.57V97.845c0,2.538,2.81,4.541,6.109,4.541h21.8c3.3,0,5.644-2,5.644-4.541V80.038c0-2.538-2.345-4.57-5.644-4.57" transform="translate(-209.504 -58.14)" fill="#fdc345"/>
    <path id="Trazado_36759" data-name="Trazado 36759" d="M296.832,100.263h-21.8c-3.866,0-7.011-2.442-7.011-5.443V77.013c0-3.017,3.145-5.472,7.011-5.472h21.8c3.731,0,6.545,2.353,6.545,5.472V94.82c0,3.1-2.814,5.443-6.545,5.443m-21.8-26.919c-2.823,0-5.208,1.68-5.208,3.669V94.82c0,1.973,2.385,3.64,5.208,3.64h21.8c2.7,0,4.742-1.565,4.742-3.64V77.013c0-2.092-2.039-3.669-4.742-3.669Z" transform="translate(-206.48 -55.115)" fill="#3d4451"/>
    <path id="Trazado_36760" data-name="Trazado 36760" d="M333.463,112.323l.861,8.3h-5.593l.86-8.453a3.234,3.234,0,0,1-1.726-2.852,3.817,3.817,0,0,1,7.6,0,4.015,4.015,0,0,1-2.006,3.009" transform="translate(-252.586 -81.536)" fill="#3d4451"/>
    <path id="Trazado_36761" data-name="Trazado 36761" d="M67.648,160.347H32.518v-35.13h35.13ZM34.584,158.28h31v-31h-31Z" transform="translate(-25.052 -96.467)" fill="#3d4451"/>
  </g>
</svg>
