<svg xmlns="http://www.w3.org/2000/svg" xmlns:xlink="http://www.w3.org/1999/xlink" width="99" height="76.778" viewBox="0 0 99 76.778">
  <defs>
    <clipPath id="clip-path">
      <rect id="Rectángulo_3948" data-name="Rectángulo 3948" width="99" height="76.778" fill="none"/>
    </clipPath>
  </defs>
  <g id="Grupo_17451" data-name="Grupo 17451" clip-path="url(#clip-path)">
    <path id="Trazado_36763" data-name="Trazado 36763" d="M199.56,123.193V161.5c0,3.39-2.079,6.846-5.265,6.846H135.814c-3.185,0-6.387-3.456-6.387-6.846V123.143" transform="translate(-100.56 -95.678)" fill="#c7ddeb"/>
    <path id="Trazado_36764" data-name="Trazado 36764" d="M336.632,188.687h14.23a3.316,3.316,0,0,0,3.316-3.316v-8.4a3.316,3.316,0,0,0-3.316-3.317h-14.23a3.317,3.317,0,0,0-3.317,3.317v8.4a3.316,3.316,0,0,0,3.317,3.316" transform="translate(-258.973 -134.923)" fill="#fdc345"/>
    <path id="Trazado_36765" data-name="Trazado 36765" d="M347.753,186.471h-14.23a4.213,4.213,0,0,1-4.209-4.208v-8.4a4.213,4.213,0,0,1,4.209-4.209h14.23a4.213,4.213,0,0,1,4.208,4.209v8.4a4.213,4.213,0,0,1-4.208,4.208m-14.23-15.033a2.427,2.427,0,0,0-2.424,2.424v8.4a2.427,2.427,0,0,0,2.424,2.424h14.23a2.427,2.427,0,0,0,2.424-2.424v-8.4a2.427,2.427,0,0,0-2.424-2.424Z" transform="translate(-255.865 -131.815)" fill="#3d4451"/>
    <path id="Trazado_36766" data-name="Trazado 36766" d="M167.5,142.847H107.637c-3.863,0-7.654-4.024-7.654-8.123V95.46a1.115,1.115,0,0,1,2.23,0v39.264c0,2.864,2.788,5.893,5.423,5.893H167.5c2.064,0,4.274-2.368,4.274-5.893V95.512a1.115,1.115,0,0,1,2.23,0v39.212c0,3.907-2.487,8.123-6.5,8.123" transform="translate(-77.683 -73.303)" fill="#3d4451"/>
    <path id="Trazado_36767" data-name="Trazado 36767" d="M352.024,196.074a3.338,3.338,0,1,1,3.338,3.314,3.326,3.326,0,0,1-3.338-3.314" transform="translate(-273.51 -149.767)" fill="#f04f4c"/>
    <path id="Trazado_36768" data-name="Trazado 36768" d="M353.031,197.726a3.984,3.984,0,1,1,4.007-3.984,4,4,0,0,1-4.007,3.984m0-6.629a2.645,2.645,0,1,0,2.669,2.645,2.66,2.66,0,0,0-2.669-2.645" transform="translate(-271.179 -147.436)" fill="#3d4451"/>
    <path id="Trazado_36769" data-name="Trazado 36769" d="M172.472,65.853H105.986a6.676,6.676,0,1,1,0-13.352h11.628a.892.892,0,1,1,0,1.784H105.986a4.892,4.892,0,1,0,0,9.784h66.486a.892.892,0,0,1,0,1.784" transform="translate(-77.16 -40.791)" fill="#3d4451"/>
    <path id="Trazado_36770" data-name="Trazado 36770" d="M366.765,59.622a1.193,1.193,0,0,1-1.193-1.193V54.739c0-1.132-1.475-2.088-3.22-2.088h-6.619a1.192,1.192,0,1,1,0-2.385h6.619c3.091,0,5.605,2.007,5.605,4.473V58.43a1.193,1.193,0,0,1-1.193,1.193" transform="translate(-275.465 -39.055)" fill="#3d4451"/>
    <path id="Trazado_36771" data-name="Trazado 36771" d="M197.332,86.282H145.574a.954.954,0,1,1,0-1.908h51.758a.954.954,0,0,1,0,1.908" transform="translate(-112.364 -65.555)" fill="#3d4451"/>
    <path id="Trazado_36772" data-name="Trazado 36772" d="M192.019,20.03a1.212,1.212,0,0,1-1.1-.693L183.265,3.178,153.358,16.546l.866,1.731a1.211,1.211,0,0,1-2.167,1.083l-2-3.993L184.44,0l8.673,18.3a1.211,1.211,0,0,1-1.094,1.73" transform="translate(-116.591)" fill="#3d4451"/>
    <path id="Trazado_36773" data-name="Trazado 36773" d="M185.089,47.577a.564.564,0,0,1-.232-1.078l23.152-10.441,4.9,10.305a.564.564,0,0,1-1.019.484l-4.424-9.307L185.32,47.526a.559.559,0,0,1-.232.05" transform="translate(-143.369 -28.015)" fill="#3d4451"/>
    <path id="Trazado_36774" data-name="Trazado 36774" d="M322.245,29.907a1.211,1.211,0,0,1-1.1-.7L314.93,15.944l-5.046,2.4a1.211,1.211,0,0,1-1.039-2.188l7.245-3.441,7.251,15.469a1.212,1.212,0,0,1-1.1,1.725" transform="translate(-239.424 -9.877)" fill="#3d4451"/>
    <path id="Trazado_36775" data-name="Trazado 36775" d="M47.917,193.413a5.8,5.8,0,0,0-5.733-5.666,5.6,5.6,0,0,0-2.442.558,12.446,12.446,0,0,0-24.411,3.426,13.3,13.3,0,0,0,.1,1.56h-.1c-5.154,0-9.332,3.755-9.332,8.363s4.178,8.363,9.332,8.363H46.249c5.154,0,9.332-3.76,9.332-8.368,0-4.1-3.306-7.533-7.664-8.236" transform="translate(-4.662 -139.295)" fill="#f5fafc"/>
    <path id="Trazado_36776" data-name="Trazado 36776" d="M74.668,213.976a4.931,4.931,0,0,0-4.791-4.9,4.554,4.554,0,0,0-2.041.483,10.463,10.463,0,0,0-10-7.8,10.588,10.588,0,0,0-10.4,10.763,11.9,11.9,0,0,0,.081,1.348h-.08a7.251,7.251,0,1,0,0,14.461h25.84a7.541,7.541,0,0,0,7.8-7.235,7.419,7.419,0,0,0-6.406-7.12" transform="translate(-30.795 -156.759)" fill="#c7ddeb"/>
    <path id="Trazado_36777" data-name="Trazado 36777" d="M41.587,206.693H10.67c-5.884,0-10.67-4.352-10.67-9.7,0-4.938,4.078-9.026,9.333-9.626,0-.1,0-.2,0-.3a13.784,13.784,0,0,1,26.577-5.134,6.954,6.954,0,0,1,1.615-.188,7.082,7.082,0,0,1,6.957,5.892,9.874,9.874,0,0,1,7.778,9.348c0,5.352-4.786,9.707-10.67,9.707M10.67,189.966c-4.408,0-7.993,3.152-7.993,7.025s3.586,7.025,7.993,7.025H41.587c4.408,0,7.993-3.154,7.993-7.03,0-3.4-2.75-6.3-6.539-6.915l-1.087-.175-.037-1.1a4.445,4.445,0,0,0-4.4-4.374,4.247,4.247,0,0,0-1.861.425l-1.432.691-.436-1.529a11.107,11.107,0,0,0-21.786,3.059,11.849,11.849,0,0,0,.088,1.409l.168,1.489Z" transform="translate(0 -134.633)" fill="#3d4451"/>
    <path id="Trazado_36789" data-name="Trazado 36789" d="M81.474,247.168a1.579,1.579,0,0,1-1.073-.476l-5.272-5.233a1.178,1.178,0,0,1,.116-1.8,1.578,1.578,0,0,1,2.03.1l4.128,4.074,8.578-9.646A1.572,1.572,0,0,1,92,233.963a1.169,1.169,0,0,1,.245,1.778L82.606,246.63a1.513,1.513,0,0,1-1.086.538Z" transform="translate(-58.089 -181.572)" fill="#6b968b"/>
    <path id="Trazado_36790" data-name="Trazado 36790" d="M79.19,245.5h-.046a2.237,2.237,0,0,1-1.543-.668l-5.273-5.235a1.862,1.862,0,0,1-.56-1.426,1.9,1.9,0,0,1,.734-1.377,2.239,2.239,0,0,1,2.913.145l3.626,3.579,8.11-9.119a2.232,2.232,0,0,1,2.9-.324,1.915,1.915,0,0,1,.827,1.336,1.817,1.817,0,0,1-.462,1.437l-9.638,10.888a2.153,2.153,0,0,1-1.587.763m-5.31-7.836a.9.9,0,0,0-.551.183.553.553,0,0,0-.224.4.519.519,0,0,0,.165.4l5.273,5.235a.92.92,0,0,0,.6.281h.046a.86.86,0,0,0,.585-.313l9.639-10.888a.491.491,0,0,0,.134-.39.572.572,0,0,0-.26-.395.9.9,0,0,0-1.137.112L79.1,242.459l-4.629-4.569a.85.85,0,0,0-.6-.228" transform="translate(-55.759 -179.232)" fill="#3d4451"/>
  </g>
</svg>
