<svg id="Grupo_17448" data-name="Grupo 17448" xmlns="http://www.w3.org/2000/svg" xmlns:xlink="http://www.w3.org/1999/xlink" width="84.804" height="78.678" viewBox="0 0 84.804 78.678">
  <defs>
    <clipPath id="clip-path">
      <rect id="Rectángulo_3934" data-name="Rectángulo 3934" width="84.804" height="78.678" fill="none"/>
    </clipPath>
  </defs>
  <g id="Grupo_17447" data-name="Grupo 17447" clip-path="url(#clip-path)">
    <path id="Trazado_36727" data-name="Trazado 36727" d="M96.852,88.472H33.013a4.837,4.837,0,0,1-4.837-4.837V34.9a4.837,4.837,0,0,1,4.837-4.837H96.852a4.837,4.837,0,0,1,4.837,4.837V83.635a4.837,4.837,0,0,1-4.837,4.837" transform="translate(-22.531 -24.04)" fill="#7eb9c7"/>
    <path id="Trazado_36728" data-name="Trazado 36728" d="M43.447,50.749V86.131a7.3,7.3,0,0,1,7.3,7.3c0,.094,0,.188-.007.281h52.525c0-.093-.007-.187-.007-.281a7.3,7.3,0,0,1,7.3-7.3V50.749a7.3,7.3,0,0,1-7.3-7.3H50.748a7.3,7.3,0,0,1-7.3,7.3" transform="translate(-34.742 -34.743)" fill="#ebf6fc"/>
    <path id="Trazado_36729" data-name="Trazado 36729" d="M159.018,95.3H144.752l-7.134,12.356,7.134,12.355h14.267l7.134-12.355Z" transform="translate(-110.044 -76.208)" fill="#7eb9c7"/>
    <path id="Trazado_36730" data-name="Trazado 36730" d="M156.188,117.914H141.111l-7.539-13.057L141.111,91.8h15.077l7.539,13.058Zm-14.267-1.4h13.456l6.728-11.653L155.378,93.2H141.922l-6.728,11.653Z" transform="translate(-106.809 -73.406)" fill="#3d4451"/>
    <path id="Trazado_36731" data-name="Trazado 36731" d="M84.8,67.956H0V0H84.8Zm-82-2.808H82V2.808H2.808Z" fill="#3d4451"/>
    <path id="Trazado_36732" data-name="Trazado 36732" d="M99.536,89.933H44.386l.049-1.311c0-.077.006-.155.006-.233A6.044,6.044,0,0,0,38.4,82.351H37.141V44.442H38.4A6.044,6.044,0,0,0,44.442,38.4V37.141H99.48V38.4a6.044,6.044,0,0,0,6.037,6.037h1.264V82.351h-1.264a6.044,6.044,0,0,0-6.037,6.038c0,.078,0,.156.006.233ZM46.913,87.406h50.1a8.583,8.583,0,0,1,7.245-7.489V46.876a8.585,8.585,0,0,1-7.208-7.208H46.876a8.585,8.585,0,0,1-7.208,7.208v33.04a8.583,8.583,0,0,1,7.245,7.489" transform="translate(-29.699 -29.699)" fill="#3d4451"/>
    <path id="Trazado_36733" data-name="Trazado 36733" d="M181.2,300.4v15.333l5.815-5.856,5.6,6.282V301.084" transform="translate(-144.893 -240.214)" fill="#f04f4c"/>
    <path id="Trazado_36734" data-name="Trazado 36734" d="M189.5,318.892,182.82,311.4,176,318.262V300.4h2.081v12.808l4.815-4.849,4.523,5.07V301.084H189.5Z" transform="translate(-140.74 -240.214)" fill="#3d4451"/>
    <path id="Trazado_36735" data-name="Trazado 36735" d="M173.771,260.119a7.165,7.165,0,1,1,7.162,6.972,7.069,7.069,0,0,1-7.162-6.972" transform="translate(-138.954 -202.426)" fill="#f04f4c"/>
    <path id="Trazado_36736" data-name="Trazado 36736" d="M176.686,263.908a8.039,8.039,0,1,1,8.226-8.037,8.142,8.142,0,0,1-8.226,8.037m0-13.944a5.911,5.911,0,1,0,6.1,5.908,6.012,6.012,0,0,0-6.1-5.908" transform="translate(-134.707 -198.178)" fill="#3d4451"/>
    <path id="Trazado_36737" data-name="Trazado 36737" d="M98.105,231.113a2.668,2.668,0,1,1,2.668,2.668,2.668,2.668,0,0,1-2.668-2.668" transform="translate(-78.448 -182.673)" fill="#3d4451"/>
    <path id="Trazado_36738" data-name="Trazado 36738" d="M294.315,231.113a2.668,2.668,0,1,1,2.668,2.668,2.668,2.668,0,0,1-2.668-2.668" transform="translate(-235.345 -182.673)" fill="#3d4451"/>
    <path id="Trazado_36739" data-name="Trazado 36739" d="M74.421,144.1H67.4a1.022,1.022,0,1,1,0-2.043h7.02a1.022,1.022,0,1,1,0,2.043" transform="translate(-53.079 -113.596)" fill="#3d4451"/>
    <path id="Trazado_36740" data-name="Trazado 36740" d="M74.421,166.527H67.4a1.022,1.022,0,1,1,0-2.043h7.02a1.022,1.022,0,1,1,0,2.043" transform="translate(-53.079 -131.528)" fill="#3d4451"/>
    <path id="Trazado_36741" data-name="Trazado 36741" d="M310.573,144.8h-7.02a1.022,1.022,0,1,1,0-2.043h7.02a1.022,1.022,0,1,1,0,2.043" transform="translate(-241.915 -114.156)" fill="#3d4451"/>
    <path id="Trazado_36742" data-name="Trazado 36742" d="M310.573,167.227h-7.02a1.022,1.022,0,1,1,0-2.043h7.02a1.022,1.022,0,1,1,0,2.043" transform="translate(-241.915 -132.087)" fill="#3d4451"/>
    <path id="Trazado_36743" data-name="Trazado 36743" d="M179.831,125.164l.458,5.9a5.487,5.487,0,0,0,3.55,4.809l1.943,1.079,1.943-1.079a5.487,5.487,0,0,0,3.55-4.809l.458-5.9a24.092,24.092,0,0,1-6.009-1.908,21.47,21.47,0,0,1-5.892,1.908" transform="translate(-143.8 -98.56)" fill="#f5fafc"/>
    <path id="Trazado_36744" data-name="Trazado 36744" d="M182.488,134.41l-2.292-1.272a6.262,6.262,0,0,1-3.974-5.469l-.51-6.573.7-.118a20.7,20.7,0,0,0,5.68-1.84l.333-.164.337.158a23.307,23.307,0,0,0,5.816,1.847l.689.123-.51,6.568a6.262,6.262,0,0,1-3.974,5.469Zm-5.126-12.038.406,5.266a4.75,4.75,0,0,0,3.1,4.105l.056.028,1.568.87,1.624-.9a4.75,4.75,0,0,0,3.1-4.105l0-.06.4-5.21a24.846,24.846,0,0,1-5.177-1.682,22.248,22.248,0,0,1-5.076,1.686" transform="translate(-140.506 -95.136)" fill="#3d4451"/>
    <path id="Trazado_36745" data-name="Trazado 36745" d="M185.193,130.5q.2,2.322.391,4.642c0,1.558,1.152,3,3.027,3.785l1.658.849,0,0V129.011l-.054-.016Z" transform="translate(-148.087 -103.149)" fill="#f99841"/>
    <path id="Trazado_36746" data-name="Trazado 36746" d="M210.545,129.075v10.759l1.653-.847c1.875-.785,3.028-2.227,3.028-3.785l.39-4.642Z" transform="translate(-168.36 -103.213)" fill="#ffc655"/>
  </g>
</svg>
