<svg xmlns="http://www.w3.org/2000/svg" xmlns:xlink="http://www.w3.org/1999/xlink" width="160" height="160" viewBox="0 0 160 160">
  <defs>
    <clipPath id="clip-path">
      <rect id="Rectángulo_3703" data-name="Rectángulo 3703" width="87.505" height="115.88" fill="none"/>
    </clipPath>
  </defs>
  <g id="Grupo_17470" data-name="Grupo 17470" transform="translate(-521 -605)">
    <g id="Grupo_17455" data-name="Grupo 17455">
      <g id="Elipse_943" data-name="Elipse 943" transform="translate(521 605)" fill="#fff" stroke="#472ea6" stroke-width="1">
        <circle cx="80" cy="80" r="80" stroke="none"/>
        <circle cx="80" cy="80" r="79.5" fill="none"/>
      </g>
      <g id="Grupo_12224" data-name="Grupo 12224" transform="translate(557 627.362)">
        <g id="Grupo_12223" data-name="Grupo 12223" clip-path="url(#clip-path)">
          <path id="Trazado_35805" data-name="Trazado 35805" d="M116.81,100.655a20.608,20.608,0,0,0,3.667-4.165l6.322,1.12,2.71-8.16-5.62-2.833a20.615,20.615,0,0,0-.349-5.738l5.093-3.562-3.855-7.689-5.784,1.907a20.642,20.642,0,0,0-4.464-3.929l1.049-5.943-8.161-2.714-2.691,5.344a20.608,20.608,0,0,0-6.008.433l-3.433-4.908L87.6,63.669l1.894,5.738a20.6,20.6,0,0,0-3.85,4.52l-6-1.063-2.71,8.16,5.558,2.8a20.624,20.624,0,0,0,.48,5.722l-5.161,3.61,3.855,7.689,6.1-2.012a20.622,20.622,0,0,0,4.222,3.6l-1.126,6.376,8.161,2.714,2.935-5.829a20.6,20.6,0,0,0,5.454-.391l3.743,5.351,7.687-3.85ZM93.955,94.532a13.4,13.4,0,1,1,18.959-.189,13.407,13.407,0,0,1-18.959.189" transform="translate(-58.782 -45.043)" fill="#fdc345"/>
          <path id="Trazado_35806" data-name="Trazado 35806" d="M94.6,108.467a1.361,1.361,0,0,1-.431-.07L86,105.683a1.365,1.365,0,0,1-.914-1.533l.971-5.5a22.022,22.022,0,0,1-3.126-2.667L77.664,97.72a1.366,1.366,0,0,1-1.648-.685l-3.855-7.689a1.365,1.365,0,0,1,.438-1.731l4.427-3.1a21.98,21.98,0,0,1-.358-4.291L71.891,77.82a1.366,1.366,0,0,1-.681-1.65l2.71-8.16a1.366,1.366,0,0,1,1.534-.914L80.572,68A21.939,21.939,0,0,1,83.5,64.575l-1.618-4.9a1.365,1.365,0,0,1,.685-1.649l7.687-3.85a1.365,1.365,0,0,1,1.73.438L94.9,58.79a22.053,22.053,0,0,1,4.583-.33l2.29-4.547a1.367,1.367,0,0,1,1.65-.681l8.161,2.714a1.365,1.365,0,0,1,.914,1.533l-.9,5.074a21.98,21.98,0,0,1,3.391,2.982l4.932-1.626a1.365,1.365,0,0,1,1.648.685l3.855,7.689a1.365,1.365,0,0,1-.438,1.731l-4.375,3.06a21.99,21.99,0,0,1,.264,4.305l4.82,2.429a1.366,1.366,0,0,1,.681,1.65l-2.71,8.16a1.365,1.365,0,0,1-1.534.914l-5.462-.968a21.983,21.983,0,0,1-2.714,3.085l1.752,5.3a1.365,1.365,0,0,1-.685,1.649l-7.687,3.85a1.365,1.365,0,0,1-1.73-.438l-3.24-4.631a21.9,21.9,0,0,1-4.015.288l-2.54,5.043a1.366,1.366,0,0,1-1.22.751m-6.612-5,5.923,1.97,2.4-4.775a1.374,1.374,0,0,1,1.3-.749,19.253,19.253,0,0,0,5.092-.365,1.364,1.364,0,0,1,1.4.554l3.067,4.384,5.578-2.794-1.66-5.029a1.365,1.365,0,0,1,.4-1.46,19.272,19.272,0,0,0,3.425-3.889,1.365,1.365,0,0,1,1.375-.589l5.16.914,1.966-5.921-4.568-2.3a1.366,1.366,0,0,1-.746-1.327,19.244,19.244,0,0,0-.326-5.358,1.365,1.365,0,0,1,.556-1.391l4.126-2.886-2.8-5.581L115,68.41A1.365,1.365,0,0,1,113.53,68a19.276,19.276,0,0,0-4.169-3.669,1.365,1.365,0,0,1-.6-1.382l.844-4.782-5.923-1.97-2.161,4.29a1.362,1.362,0,0,1-1.321.747,19.239,19.239,0,0,0-5.61.4,1.366,1.366,0,0,1-1.414-.55l-2.758-3.941-5.578,2.793,1.525,4.618a1.365,1.365,0,0,1-.4,1.454,19.229,19.229,0,0,0-3.6,4.22,1.366,1.366,0,0,1-1.394.618l-4.841-.857-1.966,5.921,4.505,2.271a1.366,1.366,0,0,1,.749,1.3,19.247,19.247,0,0,0,.448,5.343,1.366,1.366,0,0,1-.549,1.421l-4.195,2.934,2.8,5.581,4.982-1.643a1.365,1.365,0,0,1,1.445.386A19.277,19.277,0,0,0,88.3,96.862a1.366,1.366,0,0,1,.607,1.386ZM98.917,95.3a14.769,14.769,0,0,1-.161-29.537h.151a14.769,14.769,0,1,1,.01,29.538m-8.431-6.167a12.038,12.038,0,1,0,8.42-20.64h-.123a12.036,12.036,0,0,0-8.3,20.64" transform="translate(-54.358 -40.621)" fill="#3d4451"/>
          <path id="Trazado_35807" data-name="Trazado 35807" d="M140.676,291.306h0a4.622,4.622,0,0,0-6.612,0l-17.119,17.4a4.706,4.706,0,0,0,.314-1.693,4.619,4.619,0,0,0-4.581-4.657H87.137a4.279,4.279,0,0,0-2.905,1.142L71.377,315.412l13.188,13.406,5.181-5.407a2.672,2.672,0,0,1,1.9-.8h23.067a4.256,4.256,0,0,0,3.034-1.278l22.924-23.3a4.809,4.809,0,0,0,0-6.722" transform="translate(-54.54 -221.525)" fill="#c7ddeb"/>
          <path id="Trazado_35808" data-name="Trazado 35808" d="M37.645,392.827l16.218,16.487a.74.74,0,0,1,0,1.035l-5.229,5.316a.712.712,0,0,1-1.018,0L31.165,398.941a.74.74,0,0,1,.023-1.057L36.65,392.8a.711.711,0,0,1,.995.023" transform="translate(-23.653 -299.998)" fill="#7eb9c7"/>
          <path id="Trazado_35809" data-name="Trazado 35809" d="M50.752,305.966,34.67,289.617l14.813-13.726a5.911,5.911,0,0,1,4.021-1.579H80.948A6.272,6.272,0,0,1,87,279.08l15.985-16.249a6.289,6.289,0,0,1,8.991,0,6.5,6.5,0,0,1,0,9.078L87.343,296.95a5.935,5.935,0,0,1-4.2,1.768H58.353a1.539,1.539,0,0,0-1.1.467ZM38.467,289.705l12.261,12.463,4.624-4.827a4.232,4.232,0,0,1,3-1.269H83.14a3.23,3.23,0,0,0,2.317-.978l24.633-25.041a3.845,3.845,0,0,0,0-5.368,3.644,3.644,0,0,0-5.219,0L86.657,283.2a6.252,6.252,0,0,1-5.71,3.764H65.583a1.323,1.323,0,0,1,0-2.645H80.948a3.608,3.608,0,0,0,3.338-2.3c.008-.024.017-.047.027-.071a3.74,3.74,0,0,0,.235-1.309,3.646,3.646,0,0,0-3.6-3.682H53.5a3.271,3.271,0,0,0-2.225.876Z" transform="translate(-26.492 -199.386)" fill="#3d4451"/>
          <path id="Trazado_35810" data-name="Trazado 35810" d="M19.773,397h0a2.076,2.076,0,0,1-1.489-.626L.606,378.408a2.118,2.118,0,0,1,.067-3.032l5.869-5.458a2.079,2.079,0,0,1,2.912.065h0L26.882,387.7a2.125,2.125,0,0,1,0,2.967l-5.619,5.712a2.076,2.076,0,0,1-1.49.626m-16.9-20.062,16.9,17.179,4.858-4.938L7.948,372.222Zm4.7-5.1h0l0,0Z" transform="translate(0 -282.226)" fill="#3d4451"/>
          <path id="Trazado_35811" data-name="Trazado 35811" d="M160.345,19.372a12.246,12.246,0,0,1-6.208,10.611v29.6a6.139,6.139,0,0,1-1.86,4.4,6.378,6.378,0,0,1-10.84-4.507V29.983A12.2,12.2,0,0,1,143.765,7.72v7.945a3.258,3.258,0,0,0,3.292,3.224h1.318a3.258,3.258,0,0,0,3.292-3.224V7.674a12.331,12.331,0,0,1,8.678,11.7" transform="translate(-103.329 -5.864)" fill="#f5fafc"/>
          <path id="Trazado_35812" data-name="Trazado 35812" d="M178.254,32A11.993,11.993,0,0,1,174,41.578V68.294a6.505,6.505,0,0,1-1.274,3.969,3.926,3.926,0,0,1-3.05,1.643c-2.407.018-4.375-2.607-4.375-5.712V41.578A11.993,11.993,0,0,1,161.049,32c0-4.887.184-9.036,3.584-10.518v7.171c0,1.607,3.273,2.91,4.519,2.91h.9c1.246,0,2.255-1.3,2.255-2.91V21.442c3.449,1.444,5.944,5.626,5.944,10.559" transform="translate(-123.059 -16.384)" fill="#c7ddeb"/>
          <path id="Trazado_35813" data-name="Trazado 35813" d="M143.5,61.261a7.714,7.714,0,0,1-7.675-7.653V24.861a13.618,13.618,0,0,1-6.208-11.352A13.634,13.634,0,0,1,139.06.6L140.8.023V9.8a1.937,1.937,0,0,0,1.967,1.9h1.318a1.937,1.937,0,0,0,1.968-1.9V0l1.726.548a13.52,13.52,0,0,1,3.393,24.312V53.719a7.429,7.429,0,0,1-2.257,5.343,7.7,7.7,0,0,1-5.372,2.2H143.5M138.152,3.854a10.854,10.854,0,0,0-.344,19.118l.664.382V53.609a5.066,5.066,0,0,0,5.027,5h.028a5.061,5.061,0,0,0,3.534-1.443,4.8,4.8,0,0,0,1.462-3.451V23.353l.664-.382A10.856,10.856,0,0,0,148.7,3.779V9.8a4.588,4.588,0,0,1-4.616,4.548h-1.318A4.588,4.588,0,0,1,138.152,9.8Z" transform="translate(-99.04)" fill="#3d4451"/>
          <path id="Trazado_35814" data-name="Trazado 35814" d="M177.346,219.112a2.543,2.543,0,0,1,0-3.649,2.674,2.674,0,0,1,3.726,0,2.543,2.543,0,0,1,0,3.649,2.674,2.674,0,0,1-3.726,0" transform="translate(-134.922 -164.059)" fill="#3d4451"/>
        </g>
      </g>
    </g>
  </g>
</svg>
