<svg xmlns="http://www.w3.org/2000/svg" xmlns:xlink="http://www.w3.org/1999/xlink" width="160" height="160" viewBox="0 0 160 160">
  <defs>
    <clipPath id="clip-path">
      <rect id="Rectángulo_3687" data-name="Rectángulo 3687" width="105" height="107.233" fill="none"/>
    </clipPath>
  </defs>
  <g id="Grupo_17471" data-name="Grupo 17471" transform="translate(-880 -605)">
    <g id="Grupo_17456" data-name="Grupo 17456">
      <g id="Elipse_941" data-name="Elipse 941" transform="translate(880 605)" fill="#fff" stroke="#472ea6" stroke-width="1">
        <circle cx="80" cy="80" r="80" stroke="none"/>
        <circle cx="80" cy="80" r="79.5" fill="none"/>
      </g>
      <g id="Grupo_12219" data-name="Grupo 12219" transform="translate(908 631.362)">
        <g id="Grupo_12218" data-name="Grupo 12218" clip-path="url(#clip-path)">
          <path id="Trazado_35766" data-name="Trazado 35766" d="M85.781,30.3a38.714,38.714,0,0,0-55.535,0,40.657,40.657,0,0,0,0,56.674,38.714,38.714,0,0,0,55.535,0,40.657,40.657,0,0,0,0-56.674M82.118,85.465a32.364,32.364,0,0,1-46.426,0,33.988,33.988,0,0,1,0-47.377,32.363,32.363,0,0,1,46.426,0,33.988,33.988,0,0,1,0,47.377" transform="translate(-14.537 -14.396)" fill="#c7ddeb"/>
          <path id="Trazado_35767" data-name="Trazado 35767" d="M389.725,389.239c1.129,1.164,1.383,2.9.5,3.817l-2.336,2.424c-.881.914-2.563.656-3.692-.507l-10.076-10.386c-1.129-1.164-1.33-2.848-.45-3.762l2.336-2.424c.88-.914,2.509-.712,3.638.452Z" transform="translate(-289.382 -293.029)" fill="#c7ddeb"/>
          <path id="Trazado_35768" data-name="Trazado 35768" d="M135.457,250.843c0,1.811-10.53,3.279-23.521,3.279s-23.52-1.468-23.52-3.279,10.53-3.279,23.52-3.279,23.521,1.468,23.521,3.279" transform="translate(-68.572 -192.001)" fill="#7eb9c7"/>
          <path id="Trazado_35769" data-name="Trazado 35769" d="M43.393,88.556h0A42.707,42.707,0,0,1,12.685,75.577a44.96,44.96,0,0,1,0-62.6A42.709,42.709,0,0,1,43.394,0h0A42.706,42.706,0,0,1,74.1,12.978a44.96,44.96,0,0,1,0,62.6A42.711,42.711,0,0,1,43.393,88.556M14.551,73.749a40.207,40.207,0,0,0,57.684,0,42.333,42.333,0,0,0,0-58.942,40.206,40.206,0,0,0-57.684,0,42.333,42.333,0,0,0,0,58.942" transform="translate(0 0.001)" fill="#3d4451"/>
          <path id="Trazado_35770" data-name="Trazado 35770" d="M67.792,106.247h0A35.759,35.759,0,0,1,42.081,95.381a37.646,37.646,0,0,1,0-52.415,35.853,35.853,0,0,1,51.424,0,37.646,37.646,0,0,1,0,52.414,35.764,35.764,0,0,1-25.713,10.867m0-71.975A33.6,33.6,0,0,0,43.632,44.486a35.463,35.463,0,0,0,0,49.375,33.681,33.681,0,0,0,48.322,0,35.462,35.462,0,0,0,0-49.375A33.6,33.6,0,0,0,67.792,34.272" transform="translate(-24.4 -24.896)" fill="#3d4451"/>
          <path id="Trazado_35771" data-name="Trazado 35771" d="M324.126,325.391l-9.907-10.12,7.656-7.807,9.908,10.12ZM316.8,315.272l7.329,7.485,5.075-5.175-7.329-7.485Z" transform="translate(-243.696 -238.457)" fill="#3d4451"/>
          <path id="Trazado_35772" data-name="Trazado 35772" d="M372.9,376.428h0a4.473,4.473,0,0,1-3.19-1.375L357,361.907a4.411,4.411,0,0,1-.129-6.08l3.588-3.71a3.931,3.931,0,0,1,2.851-1.205h0a4.276,4.276,0,0,1,3.088,1.338L379.109,365.4a4.466,4.466,0,0,1,.2,6.15l-3.588,3.71a3.876,3.876,0,0,1-2.816,1.172m-9.593-24.25a2.675,2.675,0,0,0-1.941.818l-3.589,3.711a3.135,3.135,0,0,0,.13,4.318l12.713,13.146a3.2,3.2,0,0,0,2.279.989h0a2.618,2.618,0,0,0,1.9-.786l3.588-3.711a3.232,3.232,0,0,0-.2-4.389L365.484,353.13a3.02,3.02,0,0,0-2.177-.952" transform="translate(-275.879 -272.153)" fill="#3d4451"/>
          <path id="Trazado_35773" data-name="Trazado 35773" d="M371.362,375.351h0a4.923,4.923,0,0,1-3.512-1.512l-12.713-13.146a4.86,4.86,0,0,1-.132-6.7l3.587-3.708a4.371,4.371,0,0,1,3.17-1.339h0a4.718,4.718,0,0,1,3.409,1.475l12.714,13.146a4.914,4.914,0,0,1,.2,6.769l-3.586,3.708a4.314,4.314,0,0,1-3.135,1.307m-9.6-24.245a2.229,2.229,0,0,0-1.617.681l-3.587,3.709a2.685,2.685,0,0,0,.131,3.7L369.4,372.338a2.754,2.754,0,0,0,1.959.853h0a2.172,2.172,0,0,0,1.582-.648l3.586-3.708a2.777,2.777,0,0,0-.2-3.766l-12.714-13.146a2.576,2.576,0,0,0-1.856-.816Z" transform="translate(-274.339 -270.629)" fill="#3d4451"/>
          <path id="Trazado_35774" data-name="Trazado 35774" d="M402.585,383.571a.632.632,0,0,1-.454-.192l-6.266-6.439a.634.634,0,1,1,.908-.884l6.266,6.439a.634.634,0,0,1-.454,1.076" transform="translate(-306.878 -291.507)" fill="#3d4451"/>
          <rect id="Rectángulo_3683" data-name="Rectángulo 3683" width="6.354" height="20.722" transform="translate(44.298 37.081)" fill="#f04f4c"/>
          <path id="Trazado_35775" data-name="Trazado 35775" d="M201.648,183.858H193.6V161.441h8.048Zm-6.354-1.694h4.66V163.135h-4.66Z" transform="translate(-150.149 -125.207)" fill="#3d4451"/>
          <rect id="Rectángulo_3684" data-name="Rectángulo 3684" width="6.354" height="27.918" transform="translate(54.247 29.885)" fill="#7eb9c7"/>
          <path id="Trazado_35776" data-name="Trazado 35776" d="M246.01,159.028h-8.019V129.444h8.019Zm-6.354-1.665h4.689V131.109h-4.689Z" transform="translate(-184.577 -100.392)" fill="#3d4451"/>
          <rect id="Rectángulo_3685" data-name="Rectángulo 3685" width="5.739" height="14.519" transform="translate(34.57 43.284)" fill="#fdc345"/>
          <path id="Trazado_35777" data-name="Trazado 35777" d="M157.725,205.33h-7.4V189.146h7.4Zm-5.739-1.665h4.073V190.811h-4.073Z" transform="translate(-116.583 -146.694)" fill="#3d4451"/>
          <rect id="Rectángulo_3686" data-name="Rectángulo 3686" width="5.549" height="8.497" transform="translate(25.133 49.306)" fill="#c7ddeb"/>
          <path id="Trazado_35778" data-name="Trazado 35778" d="M115.627,226.28h-7.1V216.233h7.1Zm-5.549-1.55h4v-6.946h-4Z" transform="translate(-84.17 -167.702)" fill="#3d4451"/>
          <path id="Trazado_35779" data-name="Trazado 35779" d="M106.85,117.69h0a.841.841,0,0,0-.844-.838H98.417a.838.838,0,1,0,0,1.676h1.662a.841.841,0,0,1,.844.839v10.059a.841.841,0,0,1-.844.838H98.417a.838.838,0,1,0,0,1.677h7.589a.838.838,0,1,0,0-1.677h-1.92a.841.841,0,0,1-.844-.838V119.367a.841.841,0,0,1,.844-.839h1.92a.841.841,0,0,0,.844-.838" transform="translate(-75.674 -90.626)" fill="#3d4451"/>
          <path id="Trazado_35780" data-name="Trazado 35780" d="M170.127,312.8l-.32-15.718a9.411,9.411,0,0,0-9.474-9.3l-3.506.075-2.681.057a9.432,9.432,0,0,0-9.088,9.7l.32,15.718a11.988,11.988,0,0,0-.541,3.816,13.008,13.008,0,0,0,25.987-.554,11.98,11.98,0,0,0-.7-3.789" transform="translate(-112.328 -223.193)" fill="#f5fafc"/>
          <path id="Trazado_35781" data-name="Trazado 35781" d="M147.8,359.994c-2.172,4.717,1.169,9.676,1.169,9.676s4.512-1.174,4.639-10.878-6.1-13.164-6.1-13.164" transform="translate(-114.061 -268.056)" fill="#c7ddeb"/>
          <path id="Trazado_35782" data-name="Trazado 35782" d="M154,326.64a14.258,14.258,0,0,1-9.706-3.745,13.162,13.162,0,0,1-3.8-13.5l-.316-15.544a10.512,10.512,0,0,1,10.16-10.814l6.187-.132a10.177,10.177,0,0,1,7.4,2.964,10.628,10.628,0,0,1,3.191,7.41l.316,15.544a13.077,13.077,0,0,1,.7,3.963c.152,7.472-6.044,13.686-13.812,13.852q-.161,0-.32,0m2.742-41.548-.172,0-6.187.132a8.318,8.318,0,0,0-8.016,8.578l.323,15.9-.053.17a10.892,10.892,0,0,0-.492,3.468,11.026,11.026,0,0,0,3.631,7.943,12.085,12.085,0,0,0,8.5,3.164,11.669,11.669,0,0,0,11.668-11.617,10.884,10.884,0,0,0-.632-3.444l-.06-.168-.323-15.9a8.447,8.447,0,0,0-2.535-5.891,8.021,8.021,0,0,0-5.649-2.339" transform="translate(-108.541 -219.407)" fill="#3d4451"/>
          <path id="Trazado_35783" data-name="Trazado 35783" d="M199,321.65l-.146,0a1.235,1.235,0,0,1-1.244-1.221l-.117-5.738a1.239,1.239,0,0,1,1.193-1.273l.146,0a1.235,1.235,0,0,1,1.243,1.221l.117,5.738A1.238,1.238,0,0,1,199,321.65" transform="translate(-153.172 -243.075)" fill="#f04f4c"/>
          <path id="Trazado_35784" data-name="Trazado 35784" d="M196.426,319.944a1.886,1.886,0,0,1-1.329-.548,1.945,1.945,0,0,1-.584-1.356L194.4,312.3a1.933,1.933,0,0,1,1.874-1.983l.147,0a1.893,1.893,0,0,1,1.354.532,1.942,1.942,0,0,1,.6,1.371l.117,5.738a1.934,1.934,0,0,1-1.874,1.983l-.147,0h-.041m.031-8.236h-.01l-.147,0a.545.545,0,0,0-.511.562l.117,5.738a.56.56,0,0,0,.167.39.483.483,0,0,0,.365.149l.147,0a.546.546,0,0,0,.511-.562l-.117-5.739a.558.558,0,0,0-.171-.395.506.506,0,0,0-.35-.144" transform="translate(-150.765 -240.669)" fill="#3d4451"/>
          <line id="Línea_1" data-name="Línea 1" x2="0.071" y2="3.483" transform="translate(45.602 79.135)" fill="#f04f4c"/>
          <path id="Trazado_35785" data-name="Trazado 35785" d="M200.55,354.154a.783.783,0,0,1-.782-.766L199.7,349.9a.783.783,0,0,1,1.565-.032l.071,3.483a.782.782,0,0,1-.766.8h-.016" transform="translate(-154.877 -270.753)" fill="#3d4451"/>
          <line id="Línea_2" data-name="Línea 2" y2="2.655" transform="translate(45.602 66.57)" fill="#f04f4c"/>
          <path id="Trazado_35786" data-name="Trazado 35786" d="M200.479,297.34a.783.783,0,0,1-.783-.783V293.9a.783.783,0,1,1,1.565,0v2.655a.783.783,0,0,1-.783.783" transform="translate(-154.877 -227.333)" fill="#3d4451"/>
        </g>
      </g>
    </g>
  </g>
</svg>
