<svg xmlns="http://www.w3.org/2000/svg" xmlns:xlink="http://www.w3.org/1999/xlink" width="160" height="160" viewBox="0 0 160 160">
  <defs>
    <clipPath id="clip-path">
      <rect id="Rectángulo_3710" data-name="Rectángulo 3710" width="100.659" height="110.052" fill="none"/>
    </clipPath>
  </defs>
  <g id="Grupo_17473" data-name="Grupo 17473" transform="translate(-693 -1078)">
    <g id="Grupo_17458" data-name="Grupo 17458">
      <g id="Elipse_944" data-name="Elipse 944" transform="translate(693 1078)" fill="#fff" stroke="#472ea6" stroke-width="1">
        <circle cx="80" cy="80" r="80" stroke="none"/>
        <circle cx="80" cy="80" r="79.5" fill="none"/>
      </g>
      <g id="Grupo_12226" data-name="Grupo 12226" transform="translate(723 1103)">
        <g id="Grupo_12225" data-name="Grupo 12225" clip-path="url(#clip-path)">
          <path id="Trazado_35815" data-name="Trazado 35815" d="M23.787,194.563a1.2,1.2,0,0,1-1.2-1.2V155a1.2,1.2,0,1,1,2.4,0v38.362a1.2,1.2,0,0,1-1.2,1.2" transform="translate(-17.159 -116.846)" fill="#3d4451"/>
          <path id="Trazado_35816" data-name="Trazado 35816" d="M86.469,373.889a1.2,1.2,0,0,1-.581-.151L56.119,357.252a1.2,1.2,0,0,1,1.164-2.1l29.769,16.486a1.2,1.2,0,0,1-.583,2.252" transform="translate(-42.166 -269.707)" fill="#3d4451"/>
          <path id="Trazado_35817" data-name="Trazado 35817" d="M237.7,369.127a1.2,1.2,0,0,1-.589-2.249l31.688-17.8a1.2,1.2,0,0,1,1.176,2.095l-31.688,17.8a1.2,1.2,0,0,1-.587.154" transform="translate(-179.678 -265.094)" fill="#3d4451"/>
          <path id="Trazado_35818" data-name="Trazado 35818" d="M391.128,182.384a1.2,1.2,0,0,1-1.2-1.2v-37.6a1.2,1.2,0,1,1,2.4,0v37.6a1.2,1.2,0,0,1-1.2,1.2" transform="translate(-296.243 -108.173)" fill="#3d4451"/>
          <path id="Trazado_35819" data-name="Trazado 35819" d="M262.408,44.447a1.194,1.194,0,0,1-.569-.144l-30.451-16.43a1.2,1.2,0,1,1,1.141-2.115l30.451,16.431a1.2,1.2,0,0,1-.571,2.259" transform="translate(-175.314 -19.459)" fill="#3d4451"/>
          <path id="Trazado_35820" data-name="Trazado 35820" d="M43.14,54.55a1.2,1.2,0,0,1-.587-2.25L73.381,35.066a1.2,1.2,0,0,1,1.172,2.1L43.725,54.4a1.2,1.2,0,0,1-.585.153" transform="translate(-31.861 -26.525)" fill="#3d4451"/>
          <path id="Trazado_35821" data-name="Trazado 35821" d="M378.307,109.426a5.541,5.541,0,1,1,0-7.836,5.54,5.54,0,0,1,0,7.836" transform="translate(-280.229 -75.949)" fill="#fdc345"/>
          <path id="Trazado_35822" data-name="Trazado 35822" d="M371.359,108.979a6.5,6.5,0,1,1,4.6-1.9,6.482,6.482,0,0,1-4.6,1.9m0-11.076a4.577,4.577,0,1,0,3.238,1.339,4.565,4.565,0,0,0-3.238-1.339" transform="translate(-277.198 -72.921)" fill="#3d4451"/>
          <path id="Trazado_35823" data-name="Trazado 35823" d="M17.769,326.7a5.541,5.541,0,1,1,0-7.835,5.54,5.54,0,0,1,0,7.835" transform="translate(-6.314 -241.021)" fill="#fdc345"/>
          <path id="Trazado_35824" data-name="Trazado 35824" d="M10.812,326.254a6.5,6.5,0,1,1,4.6-1.9,6.458,6.458,0,0,1-4.6,1.9m0-11.079a4.575,4.575,0,1,0,3.238,1.339,4.566,4.566,0,0,0-3.238-1.339" transform="translate(-3.274 -237.991)" fill="#3d4451"/>
          <path id="Trazado_35825" data-name="Trazado 35825" d="M195.64,417.4a5.541,5.541,0,1,1,0-7.836,5.54,5.54,0,0,1,0,7.836" transform="translate(-141.449 -309.93)" fill="#f04f4c"/>
          <path id="Trazado_35826" data-name="Trazado 35826" d="M188.692,416.952a6.5,6.5,0,1,1,4.6-1.9,6.482,6.482,0,0,1-4.6,1.9m0-11.076a4.577,4.577,0,1,0,3.238,1.339,4.566,4.566,0,0,0-3.238-1.339" transform="translate(-138.419 -306.9)" fill="#3d4451"/>
          <path id="Trazado_35827" data-name="Trazado 35827" d="M196.854,13.458a5.541,5.541,0,1,1,0-7.835,5.541,5.541,0,0,1,0,7.835" transform="translate(-142.372 -3.039)" fill="#f04f4c"/>
          <path id="Trazado_35828" data-name="Trazado 35828" d="M189.9,13a6.5,6.5,0,1,1,4.6-1.9,6.481,6.481,0,0,1-4.6,1.9m0-11.078a4.579,4.579,0,1,0,3.238,1.341A4.549,4.549,0,0,0,189.9,1.922" transform="translate(-139.332)" fill="#3d4451"/>
          <path id="Trazado_35829" data-name="Trazado 35829" d="M159.456,182.013a19.791,19.791,0,1,0-19.791,19.659,19.725,19.725,0,0,0,19.791-19.659" transform="translate(-91.073 -123.347)" fill="#c7ddeb"/>
          <path id="Trazado_35830" data-name="Trazado 35830" d="M122.295,260.377l1.083-.713-.625-2.818,2.884-2.79,4.256,2.648L131,253H133.6l.833,6.218,3.339,2.226,9.183-1.113,1.113,7.235,3.793,2.393s-24.46,4.656-29.571-9.582" transform="translate(-92.912 -192.214)" fill="#7eb9c7"/>
          <path id="Trazado_35831" data-name="Trazado 35831" d="M140.654,269.285c-1.332,0-2.746-.052-4.2-.184-9.107-.83-15.073-4.481-17.254-10.558l-.173-.481,1.135-.748-.607-2.736,3.509-3.395,3.964,2.466,1-3.353h3.66l.87,6.49,2.895,1.93,9.569-1.16,1.164,7.564,4.936,3.114-1.618.309a51.957,51.957,0,0,1-8.854.741M120.609,258.58c4.407,10.909,21.475,9.651,26.955,8.944L145,265.9,143.935,259l-8.8,1.066-3.784-2.522-.8-5.946H129l-1.209,4.056-4.548-2.829-2.259,2.184.643,2.9Z" transform="translate(-90.433 -190.16)" fill="#3d4451"/>
          <path id="Trazado_35832" data-name="Trazado 35832" d="M128.91,174.74a25.576,25.576,0,1,1,25.575-25.576A25.6,25.6,0,0,1,128.91,174.74m0-48.9a23.326,23.326,0,1,0,23.326,23.326,23.353,23.353,0,0,0-23.326-23.326" transform="translate(-78.507 -93.895)" fill="#3d4451"/>
          <path id="Trazado_35833" data-name="Trazado 35833" d="M179.824,130.1l1.364,3.29-2.678,1.042-3.657-1.178-7.3,4.56.911,4.823-3.259,3.127,4.669,3.455,6.936-3.329,8.6,7.49,1.04-3.315,4.953-1.695,1.173,3.128,3.519-3.226-5.46-4.6h7.812s-7.277-13-18.618-13.574" transform="translate(-125.51 -98.845)" fill="#7eb9c7"/>
          <path id="Trazado_35834" data-name="Trazado 35834" d="M182.559,152.312l-9.026-7.861-6.9,3.314-5.6-4.144,3.56-3.416-.928-4.913,7.934-4.954,3.725,1.2,1.847-.718-1.5-3.626,1.024.052c4.8.245,9.641,2.734,13.993,7.2a35.571,35.571,0,0,1,5.157,6.706l.54.964h-7.142l4.666,3.929-4.77,4.373-1.289-3.438-4.047,1.385Zm-8.818-9.4,8.175,7.12.841-2.683,5.858-2,1.057,2.819,2.269-2.08-6.253-5.266h8.424c-1.859-2.858-7.933-11.143-16.45-12.19l1.209,2.917-3.509,1.365-3.59-1.156-6.673,4.166.894,4.732-2.959,2.839,3.739,2.766Z" transform="translate(-122.341 -96.634)" fill="#3d4451"/>
          <path id="Trazado_35835" data-name="Trazado 35835" d="M208.22,74.032h-2.361v-5.51h2.361Zm0-9.155h-2.361v-5.51h2.361Z" transform="translate(-156.399 -45.103)" fill="#3d4451"/>
          <rect id="Rectángulo_3704" data-name="Rectángulo 3704" width="3.936" height="2.362" transform="translate(11.18 78.873) rotate(-31.428)" fill="#3d4451"/>
          <rect id="Rectángulo_3705" data-name="Rectángulo 3705" width="5.178" height="2.362" transform="translate(17.108 75.251) rotate(-31.428)" fill="#3d4451"/>
          <rect id="Rectángulo_3706" data-name="Rectángulo 3706" width="3.936" height="2.362" transform="translate(24.096 70.981) rotate(-31.428)" fill="#3d4451"/>
          <path id="Trazado_35836" data-name="Trazado 35836" d="M316.54,293.515l-3.1-2.116,1.332-1.95,3.1,2.116Zm-6.11-4.171-4.551-3.107,1.332-1.95,4.551,3.107Zm-7.561-5.162-4.551-3.107,1.332-1.95,4.551,3.107Z" transform="translate(-226.643 -212.062)" fill="#3d4451"/>
          <rect id="Rectángulo_3707" data-name="Rectángulo 3707" width="3.936" height="2.362" transform="translate(85.9 32.679) rotate(-31.428)" fill="#3d4451"/>
          <rect id="Rectángulo_3708" data-name="Rectángulo 3708" width="5.178" height="2.362" transform="translate(78.912 36.949) rotate(-31.428)" fill="#3d4451"/>
          <rect id="Rectángulo_3709" data-name="Rectángulo 3709" width="3.936" height="2.362" transform="translate(72.984 40.572) rotate(-31.428)" fill="#3d4451"/>
          <path id="Trazado_35837" data-name="Trazado 35837" d="M57.476,138.577l-4.794-2.716,1.164-2.055,4.794,2.716Zm-7.966-4.513-4.794-2.716,1.164-2.054,4.794,2.716Zm-7.966-4.513-3.953-2.24,1.164-2.055,3.953,2.24Z" transform="translate(-28.559 -95.163)" fill="#3d4451"/>
          <path id="Trazado_35838" data-name="Trazado 35838" d="M207.229,365.534h-2.361v-5.51h2.361Zm0-9.155h-2.361v-5.51h2.361Z" transform="translate(-155.646 -266.569)" fill="#3d4451"/>
          <path id="Trazado_35839" data-name="Trazado 35839" d="M13.458,108.452a5.54,5.54,0,1,1,0-7.835,5.54,5.54,0,0,1,0,7.835" transform="translate(-3.039 -75.209)" fill="#7eb9c7"/>
          <path id="Trazado_35840" data-name="Trazado 35840" d="M6.5,108a6.5,6.5,0,1,1,4.6-1.9A6.457,6.457,0,0,1,6.5,108m0-11.081a4.58,4.58,0,1,0,3.238,1.341A4.55,4.55,0,0,0,6.5,96.914" transform="translate(0.001 -72.169)" fill="#3d4451"/>
          <path id="Trazado_35841" data-name="Trazado 35841" d="M376.438,326.923a5.541,5.541,0,1,1,0-7.836,5.54,5.54,0,0,1,0,7.836" transform="translate(-278.809 -241.19)" fill="#7eb9c7"/>
          <path id="Trazado_35842" data-name="Trazado 35842" d="M369.49,326.475a6.5,6.5,0,1,1,4.6-1.9,6.482,6.482,0,0,1-4.6,1.9m0-11.076a4.577,4.577,0,1,0,3.238,1.339,4.565,4.565,0,0,0-3.238-1.339" transform="translate(-275.778 -238.162)" fill="#3d4451"/>
        </g>
      </g>
    </g>
  </g>
</svg>
